<?xml version="1.0" encoding="us-ascii" standalone="no"?><svg xmlns="http://www.w3.org/2000/svg" xmlns:xlink="http://www.w3.org/1999/xlink" contentStyleType="text/css" height="891.6667px" preserveAspectRatio="none" style="width:1344px;height:891px;" version="1.1" viewBox="0 0 1344 891" width="1344.7917px" zoomAndPan="magnify"><defs><linearGradient id="g577t607faqmc0" x1="50%" x2="50%" y1="0%" y2="100%"><stop offset="0%" stop-color="#59B6EC"/><stop offset="100%" stop-color="#2FA4E7"/></linearGradient><linearGradient id="g577t607faqmc1" x1="50%" x2="50%" y1="0%" y2="100%"><stop offset="0%" stop-color="#35638F"/><stop offset="100%" stop-color="#033C73"/></linearGradient></defs><g><rect fill="#EDF0F2" height="648.0998" style="stroke:#BABDBF;stroke-width:1.0416666666666667;" width="10.4167" x="401.0417" y="134.1166"/><rect fill="#EDF0F2" height="513.9832" style="stroke:#BABDBF;stroke-width:1.0416666666666667;" width="10.4167" x="633.3333" y="228.0416"/><rect fill="#EDF0F2" height="31.25" style="stroke:#BABDBF;stroke-width:1.0416666666666667;" width="10.4167" x="1047.9167" y="268.2332"/><rect fill="#EDF0F2" height="40.1917" style="stroke:#BABDBF;stroke-width:1.0416666666666667;" width="10.4167" x="1047.9167" y="661.6414"/><rect fill="#EDF0F2" height="31.25" style="stroke:#BABDBF;stroke-width:1.0416666666666667;" width="10.4167" x="1270.8333" y="518.7581"/><rect fill="#EDF0F2" height="31.25" style="stroke:#BABDBF;stroke-width:1.0416666666666667;" width="10.4167" x="1270.8333" y="590.1998"/><rect fill="none" height="164.4999" rx="4.1667" ry="4.1667" style="stroke:#59B6EC;stroke-width:1.0416666666666667;" width="711.9792" x="13.5417" y="315.1082"/><line style="stroke:#BABDBF;stroke-width:1.0416666666666667;stroke-dasharray:5.0,5.0;" x1="223.9583" x2="223.9583" y1="51.65" y2="841.158"/><line style="stroke:#BABDBF;stroke-width:1.0416666666666667;stroke-dasharray:5.0,5.0;" x1="406.25" x2="406.25" y1="51.65" y2="841.158"/><line style="stroke:#BABDBF;stroke-width:1.0416666666666667;stroke-dasharray:5.0,5.0;" x1="638.0208" x2="638.0208" y1="51.65" y2="841.158"/><line style="stroke:#BABDBF;stroke-width:1.0416666666666667;stroke-dasharray:5.0,5.0;" x1="1052.6042" x2="1052.6042" y1="51.65" y2="841.158"/><line style="stroke:#BABDBF;stroke-width:1.0416666666666667;stroke-dasharray:5.0,5.0;" x1="1275.5208" x2="1275.5208" y1="51.65" y2="841.158"/><rect fill="url(#g577t607faqmc0)" height="40.1917" rx="4.1667" ry="4.1667" style="stroke:#2FA4E7;stroke-width:1.0416666666666667;" width="45.8333" x="201.0417" y="10.4167"/><text fill="#FFFFFF" font-family="Verdana" font-size="12.5" lengthAdjust="spacing" textLength="20.8333" x="213.5417" y="35.4838">API</text><rect fill="url(#g577t607faqmc0)" height="40.1917" rx="4.1667" ry="4.1667" style="stroke:#2FA4E7;stroke-width:1.0416666666666667;" width="45.8333" x="201.0417" y="840.1164"/><text fill="#FFFFFF" font-family="Verdana" font-size="12.5" lengthAdjust="spacing" textLength="20.8333" x="213.5417" y="865.1835">API</text><rect fill="url(#g577t607faqmc0)" height="40.1917" rx="4.1667" ry="4.1667" style="stroke:#2FA4E7;stroke-width:1.0416666666666667;" width="85.4167" x="363.5417" y="10.4167"/><text fill="#FFFFFF" font-family="Verdana" font-size="12.5" lengthAdjust="spacing" textLength="60.4167" x="376.0417" y="35.4838">Controller</text><rect fill="url(#g577t607faqmc0)" height="40.1917" rx="4.1667" ry="4.1667" style="stroke:#2FA4E7;stroke-width:1.0416666666666667;" width="85.4167" x="363.5417" y="840.1164"/><text fill="#FFFFFF" font-family="Verdana" font-size="12.5" lengthAdjust="spacing" textLength="60.4167" x="376.0417" y="865.1835">Controller</text><rect fill="url(#g577t607faqmc0)" height="40.1917" rx="4.1667" ry="4.1667" style="stroke:#2FA4E7;stroke-width:1.0416666666666667;" width="69.7917" x="603.6458" y="10.4167"/><text fill="#FFFFFF" font-family="Verdana" font-size="12.5" lengthAdjust="spacing" textLength="44.7917" x="616.1458" y="35.4838">Service</text><rect fill="url(#g577t607faqmc0)" height="40.1917" rx="4.1667" ry="4.1667" style="stroke:#2FA4E7;stroke-width:1.0416666666666667;" width="69.7917" x="603.6458" y="840.1164"/><text fill="#FFFFFF" font-family="Verdana" font-size="12.5" lengthAdjust="spacing" textLength="44.7917" x="616.1458" y="865.1835">Service</text><rect fill="url(#g577t607faqmc0)" height="40.1917" rx="4.1667" ry="4.1667" style="stroke:#2FA4E7;stroke-width:1.0416666666666667;" width="142.7083" x="981.7708" y="10.4167"/><text fill="#FFFFFF" font-family="Verdana" font-size="12.5" lengthAdjust="spacing" textLength="117.7083" x="994.2708" y="35.4838">RefreshTokenStore</text><rect fill="url(#g577t607faqmc0)" height="40.1917" rx="4.1667" ry="4.1667" style="stroke:#2FA4E7;stroke-width:1.0416666666666667;" width="142.7083" x="981.7708" y="840.1164"/><text fill="#FFFFFF" font-family="Verdana" font-size="12.5" lengthAdjust="spacing" textLength="117.7083" x="994.2708" y="865.1835">RefreshTokenStore</text><rect fill="url(#g577t607faqmc0)" height="40.1917" rx="4.1667" ry="4.1667" style="stroke:#2FA4E7;stroke-width:1.0416666666666667;" width="115.625" x="1218.2292" y="10.4167"/><text fill="#FFFFFF" font-family="Verdana" font-size="12.5" lengthAdjust="spacing" textLength="90.625" x="1230.7292" y="35.4838">TokenManager</text><rect fill="url(#g577t607faqmc0)" height="40.1917" rx="4.1667" ry="4.1667" style="stroke:#2FA4E7;stroke-width:1.0416666666666667;" width="115.625" x="1218.2292" y="840.1164"/><text fill="#FFFFFF" font-family="Verdana" font-size="12.5" lengthAdjust="spacing" textLength="90.625" x="1230.7292" y="865.1835">TokenManager</text><rect fill="#EDF0F2" height="648.0998" style="stroke:#BABDBF;stroke-width:1.0416666666666667;" width="10.4167" x="401.0417" y="134.1166"/><rect fill="#EDF0F2" height="513.9832" style="stroke:#BABDBF;stroke-width:1.0416666666666667;" width="10.4167" x="633.3333" y="228.0416"/><rect fill="#EDF0F2" height="31.25" style="stroke:#BABDBF;stroke-width:1.0416666666666667;" width="10.4167" x="1047.9167" y="268.2332"/><rect fill="#EDF0F2" height="40.1917" style="stroke:#BABDBF;stroke-width:1.0416666666666667;" width="10.4167" x="1047.9167" y="661.6414"/><rect fill="#EDF0F2" height="31.25" style="stroke:#BABDBF;stroke-width:1.0416666666666667;" width="10.4167" x="1270.8333" y="518.7581"/><rect fill="#EDF0F2" height="31.25" style="stroke:#BABDBF;stroke-width:1.0416666666666667;" width="10.4167" x="1270.8333" y="590.1998"/><polygon fill="#2FA4E7" points="211.4583,89.7583,221.875,93.925,211.4583,98.0916,215.625,93.925" style="stroke:#2FA4E7;stroke-width:1.0416666666666667;"/><line style="stroke:#2FA4E7;stroke-width:3.125;stroke-dasharray:2.0,2.0;" x1="10.4167" x2="217.7083" y1="93.925" y2="93.925"/><text fill="#343A40" font-family="Verdana" font-size="12.5" lengthAdjust="spacing" textLength="143.75" x="22.9167" y="84.0088">POST /api/refreshtoken</text><polygon fill="#2FA4E7" points="388.5417,129.95,398.9583,134.1166,388.5417,138.2833,392.7083,134.1166" style="stroke:#2FA4E7;stroke-width:1.0416666666666667;"/><line style="stroke:#2FA4E7;stroke-width:3.125;" x1="223.9583" x2="394.7917" y1="134.1166" y2="134.1166"/><text fill="#343A40" font-family="Verdana" font-size="12.5" lengthAdjust="spacing" textLength="138.5417" x="236.4583" y="124.2004">refreshToken(request)</text><line style="stroke:#2FA4E7;stroke-width:3.125;" x1="411.4583" x2="455.2083" y1="174.3083" y2="174.3083"/><line style="stroke:#2FA4E7;stroke-width:3.125;" x1="455.2083" x2="455.2083" y1="174.3083" y2="187.8499"/><line style="stroke:#2FA4E7;stroke-width:3.125;" x1="412.5" x2="455.2083" y1="187.8499" y2="187.8499"/><polygon fill="#2FA4E7" points="422.9167,183.6833,412.5,187.8499,422.9167,192.0166,418.75,187.8499" style="stroke:#2FA4E7;stroke-width:1.0416666666666667;"/><text fill="#343A40" font-family="Verdana" font-size="12.5" lengthAdjust="spacing" textLength="196.875" x="423.9583" y="164.3921">{refreshToken} = request.body</text><polygon fill="#2FA4E7" points="620.8333,223.8749,631.25,228.0416,620.8333,232.2083,625,228.0416" style="stroke:#2FA4E7;stroke-width:1.0416666666666667;"/><line style="stroke:#2FA4E7;stroke-width:3.125;" x1="411.4583" x2="627.0833" y1="228.0416" y2="228.0416"/><text fill="#343A40" font-family="Verdana" font-size="12.5" lengthAdjust="spacing" textLength="172.9167" x="423.9583" y="218.1254">refreshToken(refreshToken)</text><polygon fill="#2FA4E7" points="1035.4167,264.0666,1045.8333,268.2332,1035.4167,272.3999,1039.5833,268.2332" style="stroke:#2FA4E7;stroke-width:1.0416666666666667;"/><line style="stroke:#2FA4E7;stroke-width:3.125;" x1="643.75" x2="1041.6667" y1="268.2332" y2="268.2332"/><text fill="#343A40" font-family="Verdana" font-size="12.5" lengthAdjust="spacing" textLength="314.5833" x="656.25" y="258.3171">refreshTokenStore.getRefreshToken(refreshToken)</text><path d="M17.7083,315.1082 L88.5417,315.1082 L88.5417,332.3832 L78.125,342.7999 L13.5417,342.7999 L13.5417,319.2749 A4.1667,4.1667 0 0 1 17.7083,315.1082 " fill="#E9ECEF" style="stroke:#868E96;stroke-width:1.0416666666666667;"/><rect fill="none" height="164.4999" rx="4.1667" ry="4.1667" style="stroke:#59B6EC;stroke-width:1.0416666666666667;" width="711.9792" x="13.5417" y="315.1082"/><text fill="#033C73" font-family="Verdana" font-size="12.5" font-weight="bold" lengthAdjust="spacing" textLength="17.7083" x="34.375" y="333.9254">alt</text><text fill="#343A40" font-family="Verdana" font-size="12.5" font-weight="bold" lengthAdjust="spacing" textLength="181.25" x="109.375" y="334.967">[refresh token not found]</text><polygon fill="#2FA4E7" points="235.4167,380.4749,225,384.6415,235.4167,388.8082,231.25,384.6415" style="stroke:#2FA4E7;stroke-width:1.0416666666666667;"/><line style="stroke:#2FA4E7;stroke-width:3.125;stroke-dasharray:2.0,2.0;" x1="229.1667" x2="632.2917" y1="384.6415" y2="384.6415"/><text fill="#343A40" font-family="Verdana" font-size="12.5" lengthAdjust="spacing" textLength="144.7917" x="246.875" y="374.7253">throw BadRequestError</text><path d="M416.6667,402.3499 L416.6667,429.4332 A4.1667,4.1667 0 0 0 420.8333,433.5999 L565.625,433.5999 A4.1667,4.1667 0 0 0 569.7917,429.4332 L569.7917,408.5999 L559.375,398.1832 L420.8333,398.1832 A4.1667,4.1667 0 0 0 416.6667,402.3499 " fill="url(#g577t607faqmc1)" style="stroke:#033C73;stroke-width:1.0416666666666667;"/><path d="M559.375,398.1832 L559.375,406.5165 A2.0833,2.0833 0 0 0 561.4583,408.5999 L569.7917,408.5999 L559.375,398.1832 " fill="url(#g577t607faqmc1)" style="stroke:#033C73;stroke-width:1.0416666666666667;"/><text fill="#FFFFFF" font-family="Verdana" font-size="12.5" lengthAdjust="spacing" textLength="120.8333" x="428.125" y="421.167">Finish the workflow</text><polygon fill="#2FA4E7" points="21.875,467.1082,11.4583,471.2748,21.875,475.4415,17.7083,471.2748" style="stroke:#2FA4E7;stroke-width:1.0416666666666667;"/><line style="stroke:#2FA4E7;stroke-width:3.125;stroke-dasharray:2.0,2.0;" x1="15.625" x2="222.9167" y1="471.2748" y2="471.2748"/><text fill="#343A40" font-family="Verdana" font-size="12.5" lengthAdjust="spacing" textLength="133.3333" x="33.3333" y="461.3586">400 BadRequestError</text><polygon fill="#2FA4E7" points="1258.3333,514.5915,1268.75,518.7581,1258.3333,522.9248,1262.5,518.7581" style="stroke:#2FA4E7;stroke-width:1.0416666666666667;"/><line style="stroke:#2FA4E7;stroke-width:3.125;" x1="643.75" x2="1264.5833" y1="518.7581" y2="518.7581"/><text fill="#343A40" font-family="Verdana" font-size="12.5" lengthAdjust="spacing" textLength="284.375" x="656.25" y="508.842">payload = tokenManager.verify(refreshToken)</text><polygon fill="#2FA4E7" points="1258.3333,586.0331,1268.75,590.1998,1258.3333,594.3665,1262.5,590.1998" style="stroke:#2FA4E7;stroke-width:1.0416666666666667;"/><line style="stroke:#2FA4E7;stroke-width:3.125;" x1="643.75" x2="1264.5833" y1="590.1998" y2="590.1998"/><text fill="#343A40" font-family="Verdana" font-size="12.5" lengthAdjust="spacing" textLength="237.5" x="656.25" y="580.2836">tokens = TokenManager.sign(payload)</text><polygon fill="#2FA4E7" points="1035.4167,657.4748,1045.8333,661.6414,1035.4167,665.8081,1039.5833,661.6414" style="stroke:#2FA4E7;stroke-width:1.0416666666666667;"/><line style="stroke:#2FA4E7;stroke-width:3.125;" x1="643.75" x2="1041.6667" y1="661.6414" y2="661.6414"/><text fill="#343A40" font-family="Verdana" font-size="12.5" lengthAdjust="spacing" textLength="332.2917" x="656.25" y="651.7253">refreshTokenStore.deleteRefreshToken(refreshToken)</text><polygon fill="#2FA4E7" points="1040.625,697.6664,1051.0417,701.8331,1040.625,705.9998,1044.7917,701.8331" style="stroke:#2FA4E7;stroke-width:1.0416666666666667;"/><line style="stroke:#2FA4E7;stroke-width:3.125;" x1="643.75" x2="1046.875" y1="701.8331" y2="701.8331"/><text fill="#343A40" font-family="Verdana" font-size="12.5" lengthAdjust="spacing" textLength="368.75" x="656.25" y="691.9169">refreshTokenStore.saveRefreshToken(tokens.refreshToken)</text><polygon fill="#2FA4E7" points="422.9167,737.8581,412.5,742.0247,422.9167,746.1914,418.75,742.0247" style="stroke:#2FA4E7;stroke-width:1.0416666666666667;"/><line style="stroke:#2FA4E7;stroke-width:3.125;" x1="416.6667" x2="637.5" y1="742.0247" y2="742.0247"/><text fill="#343A40" font-family="Verdana" font-size="12.5" lengthAdjust="spacing" textLength="141.6667" x="434.375" y="732.1086">{token, refreshToken}</text><polygon fill="#2FA4E7" points="235.4167,778.0497,225,782.2164,235.4167,786.3831,231.25,782.2164" style="stroke:#2FA4E7;stroke-width:1.0416666666666667;"/><line style="stroke:#2FA4E7;stroke-width:3.125;" x1="229.1667" x2="405.2083" y1="782.2164" y2="782.2164"/><text fill="#343A40" font-family="Verdana" font-size="12.5" lengthAdjust="spacing" textLength="141.6667" x="246.875" y="772.3002">{token, refreshToken}</text><polygon fill="#2FA4E7" points="21.875,818.2414,11.4583,822.408,21.875,826.5747,17.7083,822.408" style="stroke:#2FA4E7;stroke-width:1.0416666666666667;"/><line style="stroke:#2FA4E7;stroke-width:3.125;stroke-dasharray:2.0,2.0;" x1="15.625" x2="222.9167" y1="822.408" y2="822.408"/><text fill="#343A40" font-family="Verdana" font-size="12.5" lengthAdjust="spacing" textLength="170.8333" x="33.3333" y="812.4919">200 {token, refreshToken}</text><!--SRC=[dLDHJy8m47xVhpXvmaG6CJuHDL6YYGz60lo1kjrOmspnTa28uR_RTHsqcQ3OXsszk- - -wxUl5vpZ1qA2j2fGg6WfY6KYbq8nT1x6BnqG9PXtc1XfnQIB0idcHqn5M315Mii4RTPzXmKJp0ZBVAONgAQigIvjHKEGZRyA9UQEs0z4PlLwzzMmGnY_JMVG5qlPfxebLvMHoO4fgUOT0dbaNSBF5PPy6Oc4vLemreUg7WV4bm_PmHquLFokq-s-rfstHN3OU2oDEEvTuLiYX9riA9uZJ_xGlYreYYUIek262wnYe3H3fbSgZS2i_PIDpfoJti2ZI2Ur4az4ccof0IAGdESCEgl51BUUfP8LGOwmqRJ82hsnELIfXTdDRQzNKzmC1Yq2K-ahvjjW24knBRH8pUzXBnwlaMIsFIPKu2HFez1XHpajKsae_N1Sohdgkd7EvJhN42aMoFW_JvpBLOfro5GVFmu9JphDvtINopQv2kXsVfFcgZJtpBhZLvHrdZCJ3E7QkEbdJFGD]--></g></svg>