<?xml version="1.0" encoding="us-ascii" standalone="no"?><svg xmlns="http://www.w3.org/2000/svg" xmlns:xlink="http://www.w3.org/1999/xlink" contentStyleType="text/css" height="1471.875px" preserveAspectRatio="none" style="width:2514px;height:1471px;" version="1.1" viewBox="0 0 2514 1471" width="2514.5833px" zoomAndPan="magnify"><defs><linearGradient id="g1nm7v7xjyyozm0" x1="50%" x2="50%" y1="0%" y2="100%"><stop offset="0%" stop-color="#59B6EC"/><stop offset="100%" stop-color="#2FA4E7"/></linearGradient><linearGradient id="g1nm7v7xjyyozm1" x1="50%" x2="50%" y1="0%" y2="100%"><stop offset="0%" stop-color="#35638F"/><stop offset="100%" stop-color="#033C73"/></linearGradient></defs><g><rect fill="#EDF0F2" height="93.925" style="stroke:#BABDBF;stroke-width:1.0416666666666667;" width="10.4167" x="603.125" y="134.1166"/><rect fill="#EDF0F2" height="14.5833" style="stroke:#BABDBF;stroke-width:1.0416666666666667;" width="10.4167" x="603.125" y="1348.2829"/><rect fill="#EDF0F2" height="1120.2413" style="stroke:#BABDBF;stroke-width:1.0416666666666667;" width="10.4167" x="989.5833" y="228.0416"/><rect fill="#EDF0F2" height="31.25" style="stroke:#BABDBF;stroke-width:1.0416666666666667;" width="10.4167" x="1245.8333" y="268.2332"/><rect fill="#EDF0F2" height="31.25" style="stroke:#BABDBF;stroke-width:1.0416666666666667;" width="10.4167" x="1245.8333" y="1144.9829"/><rect fill="#EDF0F2" height="31.25" style="stroke:#BABDBF;stroke-width:1.0416666666666667;" width="10.4167" x="1452.0833" y="518.7581"/><rect fill="#EDF0F2" height="31.25" style="stroke:#BABDBF;stroke-width:1.0416666666666667;" width="10.4167" x="1452.0833" y="769.283"/><rect fill="#EDF0F2" height="31.25" style="stroke:#BABDBF;stroke-width:1.0416666666666667;" width="10.4167" x="1768.75" y="840.7247"/><rect fill="#EDF0F2" height="45.8333" style="stroke:#BABDBF;stroke-width:1.0416666666666667;" width="10.4167" x="1923.9583" y="1216.4246"/><rect fill="#EDF0F2" height="31.25" style="stroke:#BABDBF;stroke-width:1.0416666666666667;" width="10.4167" x="2275.5208" y="1302.4495"/><rect fill="#EDF0F2" height="31.25" style="stroke:#BABDBF;stroke-width:1.0416666666666667;" width="10.4167" x="2460.9375" y="1231.0079"/><rect fill="none" height="164.4999" rx="4.1667" ry="4.1667" style="stroke:#59B6EC;stroke-width:1.0416666666666667;" width="1068.2292" x="13.5417" y="315.1082"/><rect fill="none" height="164.4999" rx="4.1667" ry="4.1667" style="stroke:#59B6EC;stroke-width:1.0416666666666667;" width="1068.2292" x="13.5417" y="565.6331"/><rect fill="none" height="164.4999" rx="4.1667" ry="4.1667" style="stroke:#59B6EC;stroke-width:1.0416666666666667;" width="1068.2292" x="13.5417" y="887.5997"/><line style="stroke:#BABDBF;stroke-width:1.0416666666666667;stroke-dasharray:5.0,5.0;" x1="438.5417" x2="438.5417" y1="51.65" y2="1421.8079"/><line style="stroke:#BABDBF;stroke-width:1.0416666666666667;stroke-dasharray:5.0,5.0;" x1="608.3333" x2="608.3333" y1="51.65" y2="1421.8079"/><line style="stroke:#BABDBF;stroke-width:1.0416666666666667;stroke-dasharray:5.0,5.0;" x1="994.2708" x2="994.2708" y1="51.65" y2="1421.8079"/><line style="stroke:#BABDBF;stroke-width:1.0416666666666667;stroke-dasharray:5.0,5.0;" x1="1251.0417" x2="1251.0417" y1="51.65" y2="1421.8079"/><line style="stroke:#BABDBF;stroke-width:1.0416666666666667;stroke-dasharray:5.0,5.0;" x1="1457.2917" x2="1457.2917" y1="51.65" y2="1421.8079"/><line style="stroke:#BABDBF;stroke-width:1.0416666666666667;stroke-dasharray:5.0,5.0;" x1="1773.4375" x2="1773.4375" y1="51.65" y2="1421.8079"/><line style="stroke:#BABDBF;stroke-width:1.0416666666666667;stroke-dasharray:5.0,5.0;" x1="1928.6458" x2="1928.6458" y1="51.65" y2="1421.8079"/><line style="stroke:#BABDBF;stroke-width:1.0416666666666667;stroke-dasharray:5.0,5.0;" x1="2095.3125" x2="2095.3125" y1="51.65" y2="1421.8079"/><line style="stroke:#BABDBF;stroke-width:1.0416666666666667;stroke-dasharray:5.0,5.0;" x1="2280.7292" x2="2280.7292" y1="51.65" y2="1421.8079"/><line style="stroke:#BABDBF;stroke-width:1.0416666666666667;stroke-dasharray:5.0,5.0;" x1="2466.1458" x2="2466.1458" y1="51.65" y2="1421.8079"/><rect fill="url(#g1nm7v7xjyyozm0)" height="40.1917" rx="4.1667" ry="4.1667" style="stroke:#2FA4E7;stroke-width:1.0416666666666667;" width="45.8333" x="415.625" y="10.4167"/><text fill="#FFFFFF" font-family="Verdana" font-size="12.5" lengthAdjust="spacing" textLength="20.8333" x="428.125" y="35.4838">API</text><rect fill="url(#g1nm7v7xjyyozm0)" height="40.1917" rx="4.1667" ry="4.1667" style="stroke:#2FA4E7;stroke-width:1.0416666666666667;" width="45.8333" x="415.625" y="1420.7662"/><text fill="#FFFFFF" font-family="Verdana" font-size="12.5" lengthAdjust="spacing" textLength="20.8333" x="428.125" y="1445.8333">API</text><rect fill="url(#g1nm7v7xjyyozm0)" height="40.1917" rx="4.1667" ry="4.1667" style="stroke:#2FA4E7;stroke-width:1.0416666666666667;" width="85.4167" x="565.625" y="10.4167"/><text fill="#FFFFFF" font-family="Verdana" font-size="12.5" lengthAdjust="spacing" textLength="60.4167" x="578.125" y="35.4838">Controller</text><rect fill="url(#g1nm7v7xjyyozm0)" height="40.1917" rx="4.1667" ry="4.1667" style="stroke:#2FA4E7;stroke-width:1.0416666666666667;" width="85.4167" x="565.625" y="1420.7662"/><text fill="#FFFFFF" font-family="Verdana" font-size="12.5" lengthAdjust="spacing" textLength="60.4167" x="578.125" y="1445.8333">Controller</text><rect fill="url(#g1nm7v7xjyyozm0)" height="40.1917" rx="4.1667" ry="4.1667" style="stroke:#2FA4E7;stroke-width:1.0416666666666667;" width="69.7917" x="959.8958" y="10.4167"/><text fill="#FFFFFF" font-family="Verdana" font-size="12.5" lengthAdjust="spacing" textLength="44.7917" x="972.3958" y="35.4838">Service</text><rect fill="url(#g1nm7v7xjyyozm0)" height="40.1917" rx="4.1667" ry="4.1667" style="stroke:#2FA4E7;stroke-width:1.0416666666666667;" width="69.7917" x="959.8958" y="1420.7662"/><text fill="#FFFFFF" font-family="Verdana" font-size="12.5" lengthAdjust="spacing" textLength="44.7917" x="972.3958" y="1445.8333">Service</text><rect fill="url(#g1nm7v7xjyyozm0)" height="40.1917" rx="4.1667" ry="4.1667" style="stroke:#2FA4E7;stroke-width:1.0416666666666667;" width="89.5833" x="1206.25" y="10.4167"/><text fill="#FFFFFF" font-family="Verdana" font-size="12.5" lengthAdjust="spacing" textLength="64.5833" x="1218.75" y="35.4838">Repository</text><rect fill="url(#g1nm7v7xjyyozm0)" height="40.1917" rx="4.1667" ry="4.1667" style="stroke:#2FA4E7;stroke-width:1.0416666666666667;" width="89.5833" x="1206.25" y="1420.7662"/><text fill="#FFFFFF" font-family="Verdana" font-size="12.5" lengthAdjust="spacing" textLength="64.5833" x="1218.75" y="1445.8333">Repository</text><rect fill="url(#g1nm7v7xjyyozm0)" height="40.1917" rx="4.1667" ry="4.1667" style="stroke:#2FA4E7;stroke-width:1.0416666666666667;" width="135.4167" x="1389.5833" y="10.4167"/><text fill="#FFFFFF" font-family="Verdana" font-size="12.5" lengthAdjust="spacing" textLength="110.4167" x="1402.0833" y="35.4838">PasswordManager</text><rect fill="url(#g1nm7v7xjyyozm0)" height="40.1917" rx="4.1667" ry="4.1667" style="stroke:#2FA4E7;stroke-width:1.0416666666666667;" width="135.4167" x="1389.5833" y="1420.7662"/><text fill="#FFFFFF" font-family="Verdana" font-size="12.5" lengthAdjust="spacing" textLength="110.4167" x="1402.0833" y="1445.8333">PasswordManager</text><rect fill="url(#g1nm7v7xjyyozm0)" height="40.1917" rx="4.1667" ry="4.1667" style="stroke:#2FA4E7;stroke-width:1.0416666666666667;" width="53.125" x="1747.3958" y="10.4167"/><text fill="#FFFFFF" font-family="Verdana" font-size="12.5" lengthAdjust="spacing" textLength="28.125" x="1759.8958" y="35.4838">User</text><rect fill="url(#g1nm7v7xjyyozm0)" height="40.1917" rx="4.1667" ry="4.1667" style="stroke:#2FA4E7;stroke-width:1.0416666666666667;" width="53.125" x="1747.3958" y="1420.7662"/><text fill="#FFFFFF" font-family="Verdana" font-size="12.5" lengthAdjust="spacing" textLength="28.125" x="1759.8958" y="1445.8333">User</text><rect fill="url(#g1nm7v7xjyyozm0)" height="40.1917" rx="4.1667" ry="4.1667" style="stroke:#2FA4E7;stroke-width:1.0416666666666667;" width="69.7917" x="1894.2708" y="10.4167"/><text fill="#FFFFFF" font-family="Verdana" font-size="12.5" lengthAdjust="spacing" textLength="44.7917" x="1906.7708" y="35.4838">Mapper</text><rect fill="url(#g1nm7v7xjyyozm0)" height="40.1917" rx="4.1667" ry="4.1667" style="stroke:#2FA4E7;stroke-width:1.0416666666666667;" width="69.7917" x="1894.2708" y="1420.7662"/><text fill="#FFFFFF" font-family="Verdana" font-size="12.5" lengthAdjust="spacing" textLength="44.7917" x="1906.7708" y="1445.8333">Mapper</text><rect fill="url(#g1nm7v7xjyyozm0)" height="40.1917" rx="4.1667" ry="4.1667" style="stroke:#2FA4E7;stroke-width:1.0416666666666667;" width="75" x="2057.8125" y="10.4167"/><text fill="#FFFFFF" font-family="Verdana" font-size="12.5" lengthAdjust="spacing" textLength="50" x="2070.3125" y="35.4838">UserDto</text><rect fill="url(#g1nm7v7xjyyozm0)" height="40.1917" rx="4.1667" ry="4.1667" style="stroke:#2FA4E7;stroke-width:1.0416666666666667;" width="75" x="2057.8125" y="1420.7662"/><text fill="#FFFFFF" font-family="Verdana" font-size="12.5" lengthAdjust="spacing" textLength="50" x="2070.3125" y="1445.8333">UserDto</text><rect fill="url(#g1nm7v7xjyyozm0)" height="40.1917" rx="4.1667" ry="4.1667" style="stroke:#2FA4E7;stroke-width:1.0416666666666667;" width="108.3333" x="2226.5625" y="10.4167"/><text fill="#FFFFFF" font-family="Verdana" font-size="12.5" lengthAdjust="spacing" textLength="83.3333" x="2239.0625" y="35.4838">EventEmitter</text><rect fill="url(#g1nm7v7xjyyozm0)" height="40.1917" rx="4.1667" ry="4.1667" style="stroke:#2FA4E7;stroke-width:1.0416666666666667;" width="108.3333" x="2226.5625" y="1420.7662"/><text fill="#FFFFFF" font-family="Verdana" font-size="12.5" lengthAdjust="spacing" textLength="83.3333" x="2239.0625" y="1445.8333">EventEmitter</text><rect fill="url(#g1nm7v7xjyyozm0)" height="40.1917" rx="4.1667" ry="4.1667" style="stroke:#2FA4E7;stroke-width:1.0416666666666667;" width="75" x="2428.6458" y="10.4167"/><text fill="#FFFFFF" font-family="Verdana" font-size="12.5" lengthAdjust="spacing" textLength="50" x="2441.1458" y="35.4838">UserDto</text><rect fill="url(#g1nm7v7xjyyozm0)" height="40.1917" rx="4.1667" ry="4.1667" style="stroke:#2FA4E7;stroke-width:1.0416666666666667;" width="75" x="2428.6458" y="1420.7662"/><text fill="#FFFFFF" font-family="Verdana" font-size="12.5" lengthAdjust="spacing" textLength="50" x="2441.1458" y="1445.8333">UserDto</text><rect fill="#EDF0F2" height="93.925" style="stroke:#BABDBF;stroke-width:1.0416666666666667;" width="10.4167" x="603.125" y="134.1166"/><rect fill="#EDF0F2" height="14.5833" style="stroke:#BABDBF;stroke-width:1.0416666666666667;" width="10.4167" x="603.125" y="1348.2829"/><rect fill="#EDF0F2" height="1120.2413" style="stroke:#BABDBF;stroke-width:1.0416666666666667;" width="10.4167" x="989.5833" y="228.0416"/><rect fill="#EDF0F2" height="31.25" style="stroke:#BABDBF;stroke-width:1.0416666666666667;" width="10.4167" x="1245.8333" y="268.2332"/><rect fill="#EDF0F2" height="31.25" style="stroke:#BABDBF;stroke-width:1.0416666666666667;" width="10.4167" x="1245.8333" y="1144.9829"/><rect fill="#EDF0F2" height="31.25" style="stroke:#BABDBF;stroke-width:1.0416666666666667;" width="10.4167" x="1452.0833" y="518.7581"/><rect fill="#EDF0F2" height="31.25" style="stroke:#BABDBF;stroke-width:1.0416666666666667;" width="10.4167" x="1452.0833" y="769.283"/><rect fill="#EDF0F2" height="31.25" style="stroke:#BABDBF;stroke-width:1.0416666666666667;" width="10.4167" x="1768.75" y="840.7247"/><rect fill="#EDF0F2" height="45.8333" style="stroke:#BABDBF;stroke-width:1.0416666666666667;" width="10.4167" x="1923.9583" y="1216.4246"/><rect fill="#EDF0F2" height="31.25" style="stroke:#BABDBF;stroke-width:1.0416666666666667;" width="10.4167" x="2275.5208" y="1302.4495"/><rect fill="#EDF0F2" height="31.25" style="stroke:#BABDBF;stroke-width:1.0416666666666667;" width="10.4167" x="2460.9375" y="1231.0079"/><polygon fill="#2FA4E7" points="426.0417,89.7583,436.4583,93.925,426.0417,98.0916,430.2083,93.925" style="stroke:#2FA4E7;stroke-width:1.0416666666666667;"/><line style="stroke:#2FA4E7;stroke-width:3.125;stroke-dasharray:2.0,2.0;" x1="10.4167" x2="432.2917" y1="93.925" y2="93.925"/><text fill="#343A40" font-family="Verdana" font-size="12.5" lengthAdjust="spacing" textLength="195.8333" x="22.9167" y="84.0088">PUT /api/user/change-password</text><polygon fill="#2FA4E7" points="590.625,129.95,601.0417,134.1166,590.625,138.2833,594.7917,134.1166" style="stroke:#2FA4E7;stroke-width:1.0416666666666667;"/><line style="stroke:#2FA4E7;stroke-width:3.125;" x1="438.5417" x2="596.875" y1="134.1166" y2="134.1166"/><text fill="#343A40" font-family="Verdana" font-size="12.5" lengthAdjust="spacing" textLength="134.375" x="451.0417" y="124.2004">activateUser(request)</text><line style="stroke:#2FA4E7;stroke-width:3.125;" x1="613.5417" x2="657.2917" y1="174.3083" y2="174.3083"/><line style="stroke:#2FA4E7;stroke-width:3.125;" x1="657.2917" x2="657.2917" y1="174.3083" y2="187.8499"/><line style="stroke:#2FA4E7;stroke-width:3.125;" x1="614.5833" x2="657.2917" y1="187.8499" y2="187.8499"/><polygon fill="#2FA4E7" points="625,183.6833,614.5833,187.8499,625,192.0166,620.8333,187.8499" style="stroke:#2FA4E7;stroke-width:1.0416666666666667;"/><text fill="#343A40" font-family="Verdana" font-size="12.5" lengthAdjust="spacing" textLength="351.0417" x="626.0417" y="164.3921">{userEmail, password, newPassword} = request.params</text><polygon fill="#2FA4E7" points="977.0833,223.8749,987.5,228.0416,977.0833,232.2083,981.25,228.0416" style="stroke:#2FA4E7;stroke-width:1.0416666666666667;"/><line style="stroke:#2FA4E7;stroke-width:3.125;" x1="608.3333" x2="983.3333" y1="228.0416" y2="228.0416"/><text fill="#343A40" font-family="Verdana" font-size="12.5" lengthAdjust="spacing" textLength="331.25" x="620.8333" y="218.1254">changePassword(userEmail, password, newPassword)</text><polygon fill="#2FA4E7" points="1233.3333,264.0666,1243.75,268.2332,1233.3333,272.3999,1237.5,268.2332" style="stroke:#2FA4E7;stroke-width:1.0416666666666667;"/><line style="stroke:#2FA4E7;stroke-width:3.125;" x1="1000" x2="1239.5833" y1="268.2332" y2="268.2332"/><text fill="#343A40" font-family="Verdana" font-size="12.5" lengthAdjust="spacing" textLength="215.625" x="1012.5" y="258.3171">user = getUserByEmail(userEmail)</text><path d="M17.7083,315.1082 L88.5417,315.1082 L88.5417,332.3832 L78.125,342.7999 L13.5417,342.7999 L13.5417,319.2749 A4.1667,4.1667 0 0 1 17.7083,315.1082 " fill="#E9ECEF" style="stroke:#868E96;stroke-width:1.0416666666666667;"/><rect fill="none" height="164.4999" rx="4.1667" ry="4.1667" style="stroke:#59B6EC;stroke-width:1.0416666666666667;" width="1068.2292" x="13.5417" y="315.1082"/><text fill="#033C73" font-family="Verdana" font-size="12.5" font-weight="bold" lengthAdjust="spacing" textLength="17.7083" x="34.375" y="333.9254">alt</text><text fill="#343A40" font-family="Verdana" font-size="12.5" font-weight="bold" lengthAdjust="spacing" textLength="128.125" x="109.375" y="334.967">[user dont't exist]</text><polygon fill="#2FA4E7" points="450,380.4749,439.5833,384.6415,450,388.8082,445.8333,384.6415" style="stroke:#2FA4E7;stroke-width:1.0416666666666667;"/><line style="stroke:#2FA4E7;stroke-width:3.125;stroke-dasharray:2.0,2.0;" x1="443.75" x2="988.5417" y1="384.6415" y2="384.6415"/><text fill="#343A40" font-family="Verdana" font-size="12.5" lengthAdjust="spacing" textLength="160.4167" x="461.4583" y="374.7253">throw UserNotFoundError</text><path d="M613.5417,402.3499 L613.5417,429.4332 A4.1667,4.1667 0 0 0 617.7083,433.5999 L762.5,433.5999 A4.1667,4.1667 0 0 0 766.6667,429.4332 L766.6667,408.5999 L756.25,398.1832 L617.7083,398.1832 A4.1667,4.1667 0 0 0 613.5417,402.3499 " fill="url(#g1nm7v7xjyyozm1)" style="stroke:#033C73;stroke-width:1.0416666666666667;"/><path d="M756.25,398.1832 L756.25,406.5165 A2.0833,2.0833 0 0 0 758.3333,408.5999 L766.6667,408.5999 L756.25,398.1832 " fill="url(#g1nm7v7xjyyozm1)" style="stroke:#033C73;stroke-width:1.0416666666666667;"/><text fill="#FFFFFF" font-family="Verdana" font-size="12.5" lengthAdjust="spacing" textLength="120.8333" x="625" y="421.167">Finish the workflow</text><polygon fill="#2FA4E7" points="21.875,467.1082,11.4583,471.2748,21.875,475.4415,17.7083,471.2748" style="stroke:#2FA4E7;stroke-width:1.0416666666666667;"/><line style="stroke:#2FA4E7;stroke-width:3.125;stroke-dasharray:2.0,2.0;" x1="15.625" x2="437.5" y1="471.2748" y2="471.2748"/><text fill="#343A40" font-family="Verdana" font-size="12.5" lengthAdjust="spacing" textLength="148.9583" x="33.3333" y="461.3586">404 UserNotFoundError</text><polygon fill="#2FA4E7" points="1439.5833,514.5915,1450,518.7581,1439.5833,522.9248,1443.75,518.7581" style="stroke:#2FA4E7;stroke-width:1.0416666666666667;"/><line style="stroke:#2FA4E7;stroke-width:3.125;" x1="1000" x2="1445.8333" y1="518.7581" y2="518.7581"/><text fill="#343A40" font-family="Verdana" font-size="12.5" lengthAdjust="spacing" textLength="411.4583" x="1012.5" y="508.842">isPasswordCorrect = comparePasswords(password, user.password)</text><path d="M17.7083,565.6331 L88.5417,565.6331 L88.5417,582.9081 L78.125,593.3248 L13.5417,593.3248 L13.5417,569.7998 A4.1667,4.1667 0 0 1 17.7083,565.6331 " fill="#E9ECEF" style="stroke:#868E96;stroke-width:1.0416666666666667;"/><rect fill="none" height="164.4999" rx="4.1667" ry="4.1667" style="stroke:#59B6EC;stroke-width:1.0416666666666667;" width="1068.2292" x="13.5417" y="565.6331"/><text fill="#033C73" font-family="Verdana" font-size="12.5" font-weight="bold" lengthAdjust="spacing" textLength="17.7083" x="34.375" y="584.4503">alt</text><text fill="#343A40" font-family="Verdana" font-size="12.5" font-weight="bold" lengthAdjust="spacing" textLength="197.9167" x="109.375" y="585.4919">[isPasswordCorrect is false]</text><polygon fill="#2FA4E7" points="450,630.9998,439.5833,635.1664,450,639.3331,445.8333,635.1664" style="stroke:#2FA4E7;stroke-width:1.0416666666666667;"/><line style="stroke:#2FA4E7;stroke-width:3.125;stroke-dasharray:2.0,2.0;" x1="443.75" x2="988.5417" y1="635.1664" y2="635.1664"/><text fill="#343A40" font-family="Verdana" font-size="12.5" lengthAdjust="spacing" textLength="170.8333" x="461.4583" y="625.2502">throw UserNotFoundError()</text><path d="M613.5417,652.8748 L613.5417,679.9581 A4.1667,4.1667 0 0 0 617.7083,684.1248 L762.5,684.1248 A4.1667,4.1667 0 0 0 766.6667,679.9581 L766.6667,659.1248 L756.25,648.7081 L617.7083,648.7081 A4.1667,4.1667 0 0 0 613.5417,652.8748 " fill="url(#g1nm7v7xjyyozm1)" style="stroke:#033C73;stroke-width:1.0416666666666667;"/><path d="M756.25,648.7081 L756.25,657.0414 A2.0833,2.0833 0 0 0 758.3333,659.1248 L766.6667,659.1248 L756.25,648.7081 " fill="url(#g1nm7v7xjyyozm1)" style="stroke:#033C73;stroke-width:1.0416666666666667;"/><text fill="#FFFFFF" font-family="Verdana" font-size="12.5" lengthAdjust="spacing" textLength="120.8333" x="625" y="671.6919">Finish the workflow</text><polygon fill="#2FA4E7" points="21.875,717.6331,11.4583,721.7997,21.875,725.9664,17.7083,721.7997" style="stroke:#2FA4E7;stroke-width:1.0416666666666667;"/><line style="stroke:#2FA4E7;stroke-width:3.125;stroke-dasharray:2.0,2.0;" x1="15.625" x2="437.5" y1="721.7997" y2="721.7997"/><text fill="#343A40" font-family="Verdana" font-size="12.5" lengthAdjust="spacing" textLength="159.375" x="33.3333" y="711.8835">404 UserNotFoundError()</text><polygon fill="#2FA4E7" points="1439.5833,765.1164,1450,769.283,1439.5833,773.4497,1443.75,769.283" style="stroke:#2FA4E7;stroke-width:1.0416666666666667;"/><line style="stroke:#2FA4E7;stroke-width:3.125;" x1="1000" x2="1445.8333" y1="769.283" y2="769.283"/><text fill="#343A40" font-family="Verdana" font-size="12.5" lengthAdjust="spacing" textLength="302.0833" x="1012.5" y="759.3669">hashedPassword = hashPassword(newPassword)</text><polygon fill="#2FA4E7" points="1756.25,836.558,1766.6667,840.7247,1756.25,844.8914,1760.4167,840.7247" style="stroke:#2FA4E7;stroke-width:1.0416666666666667;"/><line style="stroke:#2FA4E7;stroke-width:3.125;" x1="1000" x2="1762.5" y1="840.7247" y2="840.7247"/><text fill="#343A40" font-family="Verdana" font-size="12.5" lengthAdjust="spacing" textLength="738.5417" x="1012.5" y="830.8085">isPasswordValid = User.isValidPassword(newPassword, passwordRequirements) // passwordRequirements is from config</text><path d="M17.7083,887.5997 L88.5417,887.5997 L88.5417,904.8747 L78.125,915.2913 L13.5417,915.2913 L13.5417,891.7664 A4.1667,4.1667 0 0 1 17.7083,887.5997 " fill="#E9ECEF" style="stroke:#868E96;stroke-width:1.0416666666666667;"/><rect fill="none" height="164.4999" rx="4.1667" ry="4.1667" style="stroke:#59B6EC;stroke-width:1.0416666666666667;" width="1068.2292" x="13.5417" y="887.5997"/><text fill="#033C73" font-family="Verdana" font-size="12.5" font-weight="bold" lengthAdjust="spacing" textLength="17.7083" x="34.375" y="906.4168">alt</text><text fill="#343A40" font-family="Verdana" font-size="12.5" font-weight="bold" lengthAdjust="spacing" textLength="181.25" x="109.375" y="907.4585">[isPasswordValid is false]</text><polygon fill="#2FA4E7" points="450,952.9663,439.5833,957.133,450,961.2996,445.8333,957.133" style="stroke:#2FA4E7;stroke-width:1.0416666666666667;"/><line style="stroke:#2FA4E7;stroke-width:3.125;stroke-dasharray:2.0,2.0;" x1="443.75" x2="988.5417" y1="957.133" y2="957.133"/><text fill="#343A40" font-family="Verdana" font-size="12.5" lengthAdjust="spacing" textLength="396.875" x="461.4583" y="947.2168">throw InvalidUserError('Password does not meet requirements')</text><path d="M613.5417,974.8413 L613.5417,1001.9246 A4.1667,4.1667 0 0 0 617.7083,1006.0913 L762.5,1006.0913 A4.1667,4.1667 0 0 0 766.6667,1001.9246 L766.6667,981.0913 L756.25,970.6746 L617.7083,970.6746 A4.1667,4.1667 0 0 0 613.5417,974.8413 " fill="url(#g1nm7v7xjyyozm1)" style="stroke:#033C73;stroke-width:1.0416666666666667;"/><path d="M756.25,970.6746 L756.25,979.008 A2.0833,2.0833 0 0 0 758.3333,981.0913 L766.6667,981.0913 L756.25,970.6746 " fill="url(#g1nm7v7xjyyozm1)" style="stroke:#033C73;stroke-width:1.0416666666666667;"/><text fill="#FFFFFF" font-family="Verdana" font-size="12.5" lengthAdjust="spacing" textLength="120.8333" x="625" y="993.6584">Finish the workflow</text><polygon fill="#2FA4E7" points="21.875,1039.5996,11.4583,1043.7663,21.875,1047.9329,17.7083,1043.7663" style="stroke:#2FA4E7;stroke-width:1.0416666666666667;"/><line style="stroke:#2FA4E7;stroke-width:3.125;stroke-dasharray:2.0,2.0;" x1="15.625" x2="437.5" y1="1043.7663" y2="1043.7663"/><text fill="#343A40" font-family="Verdana" font-size="12.5" lengthAdjust="spacing" textLength="385.4167" x="33.3333" y="1033.8501">400 InvalidUserError('Password does not meet requirements')</text><line style="stroke:#2FA4E7;stroke-width:3.125;" x1="1000" x2="1043.75" y1="1091.2496" y2="1091.2496"/><line style="stroke:#2FA4E7;stroke-width:3.125;" x1="1043.75" x2="1043.75" y1="1091.2496" y2="1104.7913"/><line style="stroke:#2FA4E7;stroke-width:3.125;" x1="1001.0417" x2="1043.75" y1="1104.7913" y2="1104.7913"/><polygon fill="#2FA4E7" points="1011.4583,1100.6246,1001.0417,1104.7913,1011.4583,1108.9579,1007.2917,1104.7913" style="stroke:#2FA4E7;stroke-width:1.0416666666666667;"/><text fill="#343A40" font-family="Verdana" font-size="12.5" lengthAdjust="spacing" textLength="219.7917" x="1012.5" y="1081.3334">user.setPassword(hashedPassword)</text><polygon fill="#2FA4E7" points="1233.3333,1140.8162,1243.75,1144.9829,1233.3333,1149.1496,1237.5,1144.9829" style="stroke:#2FA4E7;stroke-width:1.0416666666666667;"/><line style="stroke:#2FA4E7;stroke-width:3.125;" x1="1000" x2="1239.5833" y1="1144.9829" y2="1144.9829"/><text fill="#343A40" font-family="Verdana" font-size="12.5" lengthAdjust="spacing" textLength="108.3333" x="1012.5" y="1135.0667">updateUser(user)</text><polygon fill="#2FA4E7" points="1911.4583,1212.2579,1921.875,1216.4246,1911.4583,1220.5912,1915.625,1216.4246" style="stroke:#2FA4E7;stroke-width:1.0416666666666667;"/><line style="stroke:#2FA4E7;stroke-width:3.125;" x1="1000" x2="1917.7083" y1="1216.4246" y2="1216.4246"/><text fill="#343A40" font-family="Verdana" font-size="12.5" lengthAdjust="spacing" textLength="244.7917" x="1012.5" y="1206.5084">userDto = UserMapper.toUserDto(user)</text><polygon fill="#2FA4E7" points="2448.4375,1226.8412,2458.8542,1231.0079,2448.4375,1235.1746,2452.6042,1231.0079" style="stroke:#2FA4E7;stroke-width:1.0416666666666667;"/><line style="stroke:#2FA4E7;stroke-width:3.125;" x1="1934.375" x2="2454.6875" y1="1231.0079" y2="1231.0079"/><polygon fill="#2FA4E7" points="2263.0208,1298.2829,2273.4375,1302.4495,2263.0208,1306.6162,2267.1875,1302.4495" style="stroke:#2FA4E7;stroke-width:1.0416666666666667;"/><line style="stroke:#2FA4E7;stroke-width:3.125;" x1="1000" x2="2269.2708" y1="1302.4495" y2="1302.4495"/><text fill="#343A40" font-family="Verdana" font-size="12.5" lengthAdjust="spacing" textLength="213.5417" x="1012.5" y="1292.5334">emit('PasswordChanged', userDto)</text><polygon fill="#2FA4E7" points="625,1344.1162,614.5833,1348.2829,625,1352.4495,620.8333,1348.2829" style="stroke:#2FA4E7;stroke-width:1.0416666666666667;"/><line style="stroke:#2FA4E7;stroke-width:3.125;stroke-dasharray:2.0,2.0;" x1="618.75" x2="993.75" y1="1348.2829" y2="1348.2829"/><polygon fill="#2FA4E7" points="450,1358.6995,439.5833,1362.8662,450,1367.0329,445.8333,1362.8662" style="stroke:#2FA4E7;stroke-width:1.0416666666666667;"/><line style="stroke:#2FA4E7;stroke-width:3.125;stroke-dasharray:2.0,2.0;" x1="443.75" x2="607.2917" y1="1362.8662" y2="1362.8662"/><polygon fill="#2FA4E7" points="21.875,1398.8912,11.4583,1403.0579,21.875,1407.2245,17.7083,1403.0579" style="stroke:#2FA4E7;stroke-width:1.0416666666666667;"/><line style="stroke:#2FA4E7;stroke-width:3.125;stroke-dasharray:2.0,2.0;" x1="15.625" x2="437.5" y1="1403.0579" y2="1403.0579"/><text fill="#343A40" font-family="Verdana" font-size="12.5" lengthAdjust="spacing" textLength="138.5417" x="33.3333" y="1393.1417">200 changedPassword</text><!--SRC=[lLLBRzim3BxxLsYz90RoA8QUWct0bgL03nsARjrTi9bOc2rv4fEi6FRVHxrisGcGhHYMGoIH54bz7qs-mWeQO0NeVGrSPYtNA0hHSediwlt3tHNZXj4wLAoLHAtg6hJJhr7NGuFFe0-Y0ASD-w718xJA25JwsTdOuz3WWHjpLBgyvvBlGfoHR7ZXoGGhkncgxddR1gNVdjxyYChfQHqgDmUGk6a4Ol0Gzbasdx-poApOmzCNjkIjMEx9qRAekDp1l0svPcJ2oD9Yj6AyG77W23RaLCFtFHZCioZrGDg__iPFwtJJS57FMFGvOnAE4OnVx2qBdXQKEMzCvo4Wls8-ftXZUibbdfKmpAbFCR8PLXl6ahTYrYcbiWEqZ_lmx0BqeVB4XsCx2U7El4RlewJYcY237y9WnkZNXOg0OwNLqV7yIU6jsijoexNIpbWgSgZ5haAcjZvv5dwtGWfJqMrWzCflsreTdGvawQwvmvlvt0UvkRuv4u9ii_Jjev9SCM6YQAsqXW89aq8rn4o7lvdsgDiNBzeEzmwISQadQ8rL3hdJiCAmBQyD_1M4q_m_W4X1Bi9OSLD16SM4eHLq1JoerHTXbiIs-QMyVUMri16jV26CEvwBt7yyZ_Jv2KrzLAB9sN9vLk48qQgXQf1RiUlJTlqgoTMTHwJwdFw4qZjviBRMYGTxqe5OAZ2M8zO0eEiPCRV9FwVz-iM9Z4iZRds7MHZ0ZenXaUJPcQRKbh7RsjlvXHwKEl2JmaUbgH0AmaiNgCBG6BiDyyKliRhiK1dGQmKZnaUYu2TDA0oU5GFQz6YkNMyl9xEOQP9Dd5M9usvyfVNZg4wCOfC_DvX2kPsCY40-yVIQsFSJf-Cc-mq0]--></g></svg>