<?xml version="1.0" encoding="us-ascii" standalone="no"?><svg xmlns="http://www.w3.org/2000/svg" xmlns:xlink="http://www.w3.org/1999/xlink" contentStyleType="text/css" height="1913.5417px" preserveAspectRatio="none" style="width:2019px;height:1913px;" version="1.1" viewBox="0 0 2019 1913" width="2019.7917px" zoomAndPan="magnify"><defs><linearGradient id="gtx7r5348g4y30" x1="50%" x2="50%" y1="0%" y2="100%"><stop offset="0%" stop-color="#59B6EC"/><stop offset="100%" stop-color="#2FA4E7"/></linearGradient><linearGradient id="gtx7r5348g4y31" x1="50%" x2="50%" y1="0%" y2="100%"><stop offset="0%" stop-color="#35638F"/><stop offset="100%" stop-color="#033C73"/></linearGradient></defs><g><rect fill="#EDF0F2" height="1670.4244" style="stroke:#BABDBF;stroke-width:1.0416666666666667;" width="10.4167" x="513.5417" y="134.1166"/><rect fill="#EDF0F2" height="1561.9161" style="stroke:#BABDBF;stroke-width:1.0416666666666667;" width="10.4167" x="847.9167" y="228.0416"/><rect fill="#EDF0F2" height="31.25" style="stroke:#BABDBF;stroke-width:1.0416666666666667;" width="10.4167" x="1076.0417" y="268.2332"/><rect fill="#EDF0F2" height="31.25" style="stroke:#BABDBF;stroke-width:1.0416666666666667;" width="10.4167" x="1076.0417" y="1601.241"/><rect fill="#EDF0F2" height="31.25" style="stroke:#BABDBF;stroke-width:1.0416666666666667;" width="10.4167" x="1377.0833" y="518.7581"/><rect fill="#EDF0F2" height="31.25" style="stroke:#BABDBF;stroke-width:1.0416666666666667;" width="10.4167" x="1377.0833" y="948.3663"/><rect fill="#EDF0F2" height="31.25" style="stroke:#BABDBF;stroke-width:1.0416666666666667;" width="10.4167" x="1377.0833" y="1270.3328"/><rect fill="#EDF0F2" height="40.1917" style="stroke:#BABDBF;stroke-width:1.0416666666666667;" width="10.4167" x="1377.0833" y="1520.8577"/><rect fill="#EDF0F2" height="31.25" style="stroke:#BABDBF;stroke-width:1.0416666666666667;" width="10.4167" x="1567.7083" y="1198.8912"/><rect fill="#EDF0F2" height="31.25" style="stroke:#BABDBF;stroke-width:1.0416666666666667;" width="10.4167" x="1766.6667" y="1672.6827"/><rect fill="#EDF0F2" height="31.25" style="stroke:#BABDBF;stroke-width:1.0416666666666667;" width="10.4167" x="1949.4792" y="1744.1243"/><rect fill="none" height="164.4999" rx="4.1667" ry="4.1667" style="stroke:#59B6EC;stroke-width:1.0416666666666667;" width="926.5625" x="13.5417" y="315.1082"/><rect fill="none" height="164.4999" rx="4.1667" ry="4.1667" style="stroke:#59B6EC;stroke-width:1.0416666666666667;" width="926.5625" x="13.5417" y="565.6331"/><rect fill="none" height="164.4999" rx="4.1667" ry="4.1667" style="stroke:#59B6EC;stroke-width:1.0416666666666667;" width="926.5625" x="13.5417" y="744.7164"/><rect fill="none" height="164.4999" rx="4.1667" ry="4.1667" style="stroke:#59B6EC;stroke-width:1.0416666666666667;" width="926.5625" x="13.5417" y="995.2413"/><rect fill="none" height="164.4999" rx="4.1667" ry="4.1667" style="stroke:#59B6EC;stroke-width:1.0416666666666667;" width="926.5625" x="13.5417" y="1317.2078"/><line style="stroke:#BABDBF;stroke-width:1.0416666666666667;stroke-dasharray:5.0,5.0;" x1="337.5" x2="337.5" y1="51.65" y2="1863.4827"/><line style="stroke:#BABDBF;stroke-width:1.0416666666666667;stroke-dasharray:5.0,5.0;" x1="518.75" x2="518.75" y1="51.65" y2="1863.4827"/><line style="stroke:#BABDBF;stroke-width:1.0416666666666667;stroke-dasharray:5.0,5.0;" x1="852.6042" x2="852.6042" y1="51.65" y2="1863.4827"/><line style="stroke:#BABDBF;stroke-width:1.0416666666666667;stroke-dasharray:5.0,5.0;" x1="1081.25" x2="1081.25" y1="51.65" y2="1863.4827"/><line style="stroke:#BABDBF;stroke-width:1.0416666666666667;stroke-dasharray:5.0,5.0;" x1="1381.7708" x2="1381.7708" y1="51.65" y2="1863.4827"/><line style="stroke:#BABDBF;stroke-width:1.0416666666666667;stroke-dasharray:5.0,5.0;" x1="1572.3958" x2="1572.3958" y1="51.65" y2="1863.4827"/><line style="stroke:#BABDBF;stroke-width:1.0416666666666667;stroke-dasharray:5.0,5.0;" x1="1771.3542" x2="1771.3542" y1="51.65" y2="1863.4827"/><line style="stroke:#BABDBF;stroke-width:1.0416666666666667;stroke-dasharray:5.0,5.0;" x1="1954.6875" x2="1954.6875" y1="51.65" y2="1863.4827"/><rect fill="url(#gtx7r5348g4y30)" height="40.1917" rx="4.1667" ry="4.1667" style="stroke:#2FA4E7;stroke-width:1.0416666666666667;" width="45.8333" x="314.5833" y="10.4167"/><text fill="#FFFFFF" font-family="Verdana" font-size="12.5" lengthAdjust="spacing" textLength="20.8333" x="327.0833" y="35.4838">API</text><rect fill="url(#gtx7r5348g4y30)" height="40.1917" rx="4.1667" ry="4.1667" style="stroke:#2FA4E7;stroke-width:1.0416666666666667;" width="45.8333" x="314.5833" y="1862.441"/><text fill="#FFFFFF" font-family="Verdana" font-size="12.5" lengthAdjust="spacing" textLength="20.8333" x="327.0833" y="1887.5081">API</text><rect fill="url(#gtx7r5348g4y30)" height="40.1917" rx="4.1667" ry="4.1667" style="stroke:#2FA4E7;stroke-width:1.0416666666666667;" width="85.4167" x="476.0417" y="10.4167"/><text fill="#FFFFFF" font-family="Verdana" font-size="12.5" lengthAdjust="spacing" textLength="60.4167" x="488.5417" y="35.4838">Controller</text><rect fill="url(#gtx7r5348g4y30)" height="40.1917" rx="4.1667" ry="4.1667" style="stroke:#2FA4E7;stroke-width:1.0416666666666667;" width="85.4167" x="476.0417" y="1862.441"/><text fill="#FFFFFF" font-family="Verdana" font-size="12.5" lengthAdjust="spacing" textLength="60.4167" x="488.5417" y="1887.5081">Controller</text><rect fill="url(#gtx7r5348g4y30)" height="40.1917" rx="4.1667" ry="4.1667" style="stroke:#2FA4E7;stroke-width:1.0416666666666667;" width="69.7917" x="818.2292" y="10.4167"/><text fill="#FFFFFF" font-family="Verdana" font-size="12.5" lengthAdjust="spacing" textLength="44.7917" x="830.7292" y="35.4838">Service</text><rect fill="url(#gtx7r5348g4y30)" height="40.1917" rx="4.1667" ry="4.1667" style="stroke:#2FA4E7;stroke-width:1.0416666666666667;" width="69.7917" x="818.2292" y="1862.441"/><text fill="#FFFFFF" font-family="Verdana" font-size="12.5" lengthAdjust="spacing" textLength="44.7917" x="830.7292" y="1887.5081">Service</text><rect fill="url(#gtx7r5348g4y30)" height="40.1917" rx="4.1667" ry="4.1667" style="stroke:#2FA4E7;stroke-width:1.0416666666666667;" width="89.5833" x="1036.4583" y="10.4167"/><text fill="#FFFFFF" font-family="Verdana" font-size="12.5" lengthAdjust="spacing" textLength="64.5833" x="1048.9583" y="35.4838">Repository</text><rect fill="url(#gtx7r5348g4y30)" height="40.1917" rx="4.1667" ry="4.1667" style="stroke:#2FA4E7;stroke-width:1.0416666666666667;" width="89.5833" x="1036.4583" y="1862.441"/><text fill="#FFFFFF" font-family="Verdana" font-size="12.5" lengthAdjust="spacing" textLength="64.5833" x="1048.9583" y="1887.5081">Repository</text><rect fill="url(#gtx7r5348g4y30)" height="40.1917" rx="4.1667" ry="4.1667" style="stroke:#2FA4E7;stroke-width:1.0416666666666667;" width="53.125" x="1355.7292" y="10.4167"/><text fill="#FFFFFF" font-family="Verdana" font-size="12.5" lengthAdjust="spacing" textLength="28.125" x="1368.2292" y="35.4838">User</text><rect fill="url(#gtx7r5348g4y30)" height="40.1917" rx="4.1667" ry="4.1667" style="stroke:#2FA4E7;stroke-width:1.0416666666666667;" width="53.125" x="1355.7292" y="1862.441"/><text fill="#FFFFFF" font-family="Verdana" font-size="12.5" lengthAdjust="spacing" textLength="28.125" x="1368.2292" y="1887.5081">User</text><rect fill="url(#gtx7r5348g4y30)" height="40.1917" rx="4.1667" ry="4.1667" style="stroke:#2FA4E7;stroke-width:1.0416666666666667;" width="140.625" x="1502.6042" y="10.4167"/><text fill="#FFFFFF" font-family="Verdana" font-size="12.5" lengthAdjust="spacing" textLength="115.625" x="1515.1042" y="35.4838">IPasswordManager</text><rect fill="url(#gtx7r5348g4y30)" height="40.1917" rx="4.1667" ry="4.1667" style="stroke:#2FA4E7;stroke-width:1.0416666666666667;" width="140.625" x="1502.6042" y="1862.441"/><text fill="#FFFFFF" font-family="Verdana" font-size="12.5" lengthAdjust="spacing" textLength="115.625" x="1515.1042" y="1887.5081">IPasswordManager</text><rect fill="url(#gtx7r5348g4y30)" height="40.1917" rx="4.1667" ry="4.1667" style="stroke:#2FA4E7;stroke-width:1.0416666666666667;" width="69.7917" x="1736.9792" y="10.4167"/><text fill="#FFFFFF" font-family="Verdana" font-size="12.5" lengthAdjust="spacing" textLength="44.7917" x="1749.4792" y="35.4838">Mapper</text><rect fill="url(#gtx7r5348g4y30)" height="40.1917" rx="4.1667" ry="4.1667" style="stroke:#2FA4E7;stroke-width:1.0416666666666667;" width="69.7917" x="1736.9792" y="1862.441"/><text fill="#FFFFFF" font-family="Verdana" font-size="12.5" lengthAdjust="spacing" textLength="44.7917" x="1749.4792" y="1887.5081">Mapper</text><rect fill="url(#gtx7r5348g4y30)" height="40.1917" rx="4.1667" ry="4.1667" style="stroke:#2FA4E7;stroke-width:1.0416666666666667;" width="108.3333" x="1900.5208" y="10.4167"/><text fill="#FFFFFF" font-family="Verdana" font-size="12.5" lengthAdjust="spacing" textLength="83.3333" x="1913.0208" y="35.4838">EventEmitter</text><rect fill="url(#gtx7r5348g4y30)" height="40.1917" rx="4.1667" ry="4.1667" style="stroke:#2FA4E7;stroke-width:1.0416666666666667;" width="108.3333" x="1900.5208" y="1862.441"/><text fill="#FFFFFF" font-family="Verdana" font-size="12.5" lengthAdjust="spacing" textLength="83.3333" x="1913.0208" y="1887.5081">EventEmitter</text><rect fill="#EDF0F2" height="1670.4244" style="stroke:#BABDBF;stroke-width:1.0416666666666667;" width="10.4167" x="513.5417" y="134.1166"/><rect fill="#EDF0F2" height="1561.9161" style="stroke:#BABDBF;stroke-width:1.0416666666666667;" width="10.4167" x="847.9167" y="228.0416"/><rect fill="#EDF0F2" height="31.25" style="stroke:#BABDBF;stroke-width:1.0416666666666667;" width="10.4167" x="1076.0417" y="268.2332"/><rect fill="#EDF0F2" height="31.25" style="stroke:#BABDBF;stroke-width:1.0416666666666667;" width="10.4167" x="1076.0417" y="1601.241"/><rect fill="#EDF0F2" height="31.25" style="stroke:#BABDBF;stroke-width:1.0416666666666667;" width="10.4167" x="1377.0833" y="518.7581"/><rect fill="#EDF0F2" height="31.25" style="stroke:#BABDBF;stroke-width:1.0416666666666667;" width="10.4167" x="1377.0833" y="948.3663"/><rect fill="#EDF0F2" height="31.25" style="stroke:#BABDBF;stroke-width:1.0416666666666667;" width="10.4167" x="1377.0833" y="1270.3328"/><rect fill="#EDF0F2" height="40.1917" style="stroke:#BABDBF;stroke-width:1.0416666666666667;" width="10.4167" x="1377.0833" y="1520.8577"/><rect fill="#EDF0F2" height="31.25" style="stroke:#BABDBF;stroke-width:1.0416666666666667;" width="10.4167" x="1567.7083" y="1198.8912"/><rect fill="#EDF0F2" height="31.25" style="stroke:#BABDBF;stroke-width:1.0416666666666667;" width="10.4167" x="1766.6667" y="1672.6827"/><rect fill="#EDF0F2" height="31.25" style="stroke:#BABDBF;stroke-width:1.0416666666666667;" width="10.4167" x="1949.4792" y="1744.1243"/><polygon fill="#2FA4E7" points="325,89.7583,335.4167,93.925,325,98.0916,329.1667,93.925" style="stroke:#2FA4E7;stroke-width:1.0416666666666667;"/><line style="stroke:#2FA4E7;stroke-width:3.125;stroke-dasharray:2.0,2.0;" x1="10.4167" x2="331.25" y1="93.925" y2="93.925"/><text fill="#343A40" font-family="Verdana" font-size="12.5" lengthAdjust="spacing" textLength="158.3333" x="22.9167" y="84.0088">POST /api/reset-password</text><polygon fill="#2FA4E7" points="501.0417,129.95,511.4583,134.1166,501.0417,138.2833,505.2083,134.1166" style="stroke:#2FA4E7;stroke-width:1.0416666666666667;"/><line style="stroke:#2FA4E7;stroke-width:3.125;" x1="337.5" x2="507.2917" y1="134.1166" y2="134.1166"/><text fill="#343A40" font-family="Verdana" font-size="12.5" lengthAdjust="spacing" textLength="145.8333" x="350" y="124.2004">resetPassword(request)</text><line style="stroke:#2FA4E7;stroke-width:3.125;" x1="523.9583" x2="567.7083" y1="174.3083" y2="174.3083"/><line style="stroke:#2FA4E7;stroke-width:3.125;" x1="567.7083" x2="567.7083" y1="174.3083" y2="187.8499"/><line style="stroke:#2FA4E7;stroke-width:3.125;" x1="525" x2="567.7083" y1="187.8499" y2="187.8499"/><polygon fill="#2FA4E7" points="535.4167,183.6833,525,187.8499,535.4167,192.0166,531.25,187.8499" style="stroke:#2FA4E7;stroke-width:1.0416666666666667;"/><text fill="#343A40" font-family="Verdana" font-size="12.5" lengthAdjust="spacing" textLength="283.3333" x="536.4583" y="164.3921">{email, resetCode, newPassword} = req.body</text><polygon fill="#2FA4E7" points="835.4167,223.8749,845.8333,228.0416,835.4167,232.2083,839.5833,228.0416" style="stroke:#2FA4E7;stroke-width:1.0416666666666667;"/><line style="stroke:#2FA4E7;stroke-width:3.125;" x1="523.9583" x2="841.6667" y1="228.0416" y2="228.0416"/><text fill="#343A40" font-family="Verdana" font-size="12.5" lengthAdjust="spacing" textLength="293.75" x="536.4583" y="218.1254">resetPassword(email, resetCode, newPassword)</text><polygon fill="#2FA4E7" points="1063.5417,264.0666,1073.9583,268.2332,1063.5417,272.3999,1067.7083,268.2332" style="stroke:#2FA4E7;stroke-width:1.0416666666666667;"/><line style="stroke:#2FA4E7;stroke-width:3.125;" x1="858.3333" x2="1069.7917" y1="268.2332" y2="268.2332"/><text fill="#343A40" font-family="Verdana" font-size="12.5" lengthAdjust="spacing" textLength="187.5" x="870.8333" y="258.3171">user = getUserByEmail(email)</text><path d="M17.7083,315.1082 L88.5417,315.1082 L88.5417,332.3832 L78.125,342.7999 L13.5417,342.7999 L13.5417,319.2749 A4.1667,4.1667 0 0 1 17.7083,315.1082 " fill="#E9ECEF" style="stroke:#868E96;stroke-width:1.0416666666666667;"/><rect fill="none" height="164.4999" rx="4.1667" ry="4.1667" style="stroke:#59B6EC;stroke-width:1.0416666666666667;" width="926.5625" x="13.5417" y="315.1082"/><text fill="#033C73" font-family="Verdana" font-size="12.5" font-weight="bold" lengthAdjust="spacing" textLength="17.7083" x="34.375" y="333.9254">alt</text><text fill="#343A40" font-family="Verdana" font-size="12.5" font-weight="bold" lengthAdjust="spacing" textLength="117.7083" x="109.375" y="334.967">[user not found]</text><polygon fill="#2FA4E7" points="348.9583,380.4749,338.5417,384.6415,348.9583,388.8082,344.7917,384.6415" style="stroke:#2FA4E7;stroke-width:1.0416666666666667;"/><line style="stroke:#2FA4E7;stroke-width:3.125;stroke-dasharray:2.0,2.0;" x1="342.7083" x2="846.875" y1="384.6415" y2="384.6415"/><text fill="#343A40" font-family="Verdana" font-size="12.5" lengthAdjust="spacing" textLength="160.4167" x="360.4167" y="374.7253">throw UserNotFoundError</text><polygon fill="#2FA4E7" points="21.875,420.6665,11.4583,424.8332,21.875,428.9998,17.7083,424.8332" style="stroke:#2FA4E7;stroke-width:1.0416666666666667;"/><line style="stroke:#2FA4E7;stroke-width:3.125;stroke-dasharray:2.0,2.0;" x1="15.625" x2="336.4583" y1="424.8332" y2="424.8332"/><text fill="#343A40" font-family="Verdana" font-size="12.5" lengthAdjust="spacing" textLength="148.9583" x="33.3333" y="414.917">404 UserNotFoundError</text><path d="M529.1667,442.5415 L529.1667,469.6248 A4.1667,4.1667 0 0 0 533.3333,473.7915 L678.125,473.7915 A4.1667,4.1667 0 0 0 682.2917,469.6248 L682.2917,448.7915 L671.875,438.3748 L533.3333,438.3748 A4.1667,4.1667 0 0 0 529.1667,442.5415 " fill="url(#gtx7r5348g4y31)" style="stroke:#033C73;stroke-width:1.0416666666666667;"/><path d="M671.875,438.3748 L671.875,446.7082 A2.0833,2.0833 0 0 0 673.9583,448.7915 L682.2917,448.7915 L671.875,438.3748 " fill="url(#gtx7r5348g4y31)" style="stroke:#033C73;stroke-width:1.0416666666666667;"/><text fill="#FFFFFF" font-family="Verdana" font-size="12.5" lengthAdjust="spacing" textLength="120.8333" x="540.625" y="461.3586">Finish the workflow</text><polygon fill="#2FA4E7" points="1364.5833,514.5915,1375,518.7581,1364.5833,522.9248,1368.75,518.7581" style="stroke:#2FA4E7;stroke-width:1.0416666666666667;"/><line style="stroke:#2FA4E7;stroke-width:3.125;" x1="858.3333" x2="1370.8333" y1="518.7581" y2="518.7581"/><text fill="#343A40" font-family="Verdana" font-size="12.5" lengthAdjust="spacing" textLength="88.5417" x="870.8333" y="508.842">user.isActive()</text><path d="M17.7083,565.6331 L88.5417,565.6331 L88.5417,582.9081 L78.125,593.3248 L13.5417,593.3248 L13.5417,569.7998 A4.1667,4.1667 0 0 1 17.7083,565.6331 " fill="#E9ECEF" style="stroke:#868E96;stroke-width:1.0416666666666667;"/><rect fill="none" height="164.4999" rx="4.1667" ry="4.1667" style="stroke:#59B6EC;stroke-width:1.0416666666666667;" width="926.5625" x="13.5417" y="565.6331"/><text fill="#033C73" font-family="Verdana" font-size="12.5" font-weight="bold" lengthAdjust="spacing" textLength="17.7083" x="34.375" y="584.4503">alt</text><text fill="#343A40" font-family="Verdana" font-size="12.5" font-weight="bold" lengthAdjust="spacing" textLength="134.375" x="109.375" y="585.4919">[user is not active]</text><polygon fill="#2FA4E7" points="348.9583,630.9998,338.5417,635.1664,348.9583,639.3331,344.7917,635.1664" style="stroke:#2FA4E7;stroke-width:1.0416666666666667;"/><line style="stroke:#2FA4E7;stroke-width:3.125;stroke-dasharray:2.0,2.0;" x1="342.7083" x2="846.875" y1="635.1664" y2="635.1664"/><text fill="#343A40" font-family="Verdana" font-size="12.5" lengthAdjust="spacing" textLength="144.7917" x="360.4167" y="625.2502">throw BadRequestError</text><polygon fill="#2FA4E7" points="21.875,671.1914,11.4583,675.3581,21.875,679.5247,17.7083,675.3581" style="stroke:#2FA4E7;stroke-width:1.0416666666666667;"/><line style="stroke:#2FA4E7;stroke-width:3.125;stroke-dasharray:2.0,2.0;" x1="15.625" x2="336.4583" y1="675.3581" y2="675.3581"/><text fill="#343A40" font-family="Verdana" font-size="12.5" lengthAdjust="spacing" textLength="133.3333" x="33.3333" y="665.4419">400 BadRequestError</text><path d="M529.1667,693.0664 L529.1667,720.1497 A4.1667,4.1667 0 0 0 533.3333,724.3164 L678.125,724.3164 A4.1667,4.1667 0 0 0 682.2917,720.1497 L682.2917,699.3164 L671.875,688.8997 L533.3333,688.8997 A4.1667,4.1667 0 0 0 529.1667,693.0664 " fill="url(#gtx7r5348g4y31)" style="stroke:#033C73;stroke-width:1.0416666666666667;"/><path d="M671.875,688.8997 L671.875,697.2331 A2.0833,2.0833 0 0 0 673.9583,699.3164 L682.2917,699.3164 L671.875,688.8997 " fill="url(#gtx7r5348g4y31)" style="stroke:#033C73;stroke-width:1.0416666666666667;"/><text fill="#FFFFFF" font-family="Verdana" font-size="12.5" lengthAdjust="spacing" textLength="120.8333" x="540.625" y="711.8835">Finish the workflow</text><path d="M17.7083,744.7164 L88.5417,744.7164 L88.5417,761.9914 L78.125,772.408 L13.5417,772.408 L13.5417,748.8831 A4.1667,4.1667 0 0 1 17.7083,744.7164 " fill="#E9ECEF" style="stroke:#868E96;stroke-width:1.0416666666666667;"/><rect fill="none" height="164.4999" rx="4.1667" ry="4.1667" style="stroke:#59B6EC;stroke-width:1.0416666666666667;" width="926.5625" x="13.5417" y="744.7164"/><text fill="#033C73" font-family="Verdana" font-size="12.5" font-weight="bold" lengthAdjust="spacing" textLength="17.7083" x="34.375" y="763.5335">alt</text><text fill="#343A40" font-family="Verdana" font-size="12.5" font-weight="bold" lengthAdjust="spacing" textLength="336.4583" x="109.375" y="764.5752">[user.resetCode &amp;&amp; user.resetCode.isExpired()]</text><polygon fill="#2FA4E7" points="348.9583,810.083,338.5417,814.2497,348.9583,818.4163,344.7917,814.2497" style="stroke:#2FA4E7;stroke-width:1.0416666666666667;"/><line style="stroke:#2FA4E7;stroke-width:3.125;stroke-dasharray:2.0,2.0;" x1="342.7083" x2="846.875" y1="814.2497" y2="814.2497"/><text fill="#343A40" font-family="Verdana" font-size="12.5" lengthAdjust="spacing" textLength="144.7917" x="360.4167" y="804.3335">throw BadRequestError</text><polygon fill="#2FA4E7" points="21.875,850.2747,11.4583,854.4413,21.875,858.608,17.7083,854.4413" style="stroke:#2FA4E7;stroke-width:1.0416666666666667;"/><line style="stroke:#2FA4E7;stroke-width:3.125;stroke-dasharray:2.0,2.0;" x1="15.625" x2="336.4583" y1="854.4413" y2="854.4413"/><text fill="#343A40" font-family="Verdana" font-size="12.5" lengthAdjust="spacing" textLength="284.375" x="33.3333" y="844.5251">400 BadRequestError: Reset code has expired</text><path d="M529.1667,872.1497 L529.1667,899.233 A4.1667,4.1667 0 0 0 533.3333,903.3997 L678.125,903.3997 A4.1667,4.1667 0 0 0 682.2917,899.233 L682.2917,878.3997 L671.875,867.983 L533.3333,867.983 A4.1667,4.1667 0 0 0 529.1667,872.1497 " fill="url(#gtx7r5348g4y31)" style="stroke:#033C73;stroke-width:1.0416666666666667;"/><path d="M671.875,867.983 L671.875,876.3163 A2.0833,2.0833 0 0 0 673.9583,878.3997 L682.2917,878.3997 L671.875,867.983 " fill="url(#gtx7r5348g4y31)" style="stroke:#033C73;stroke-width:1.0416666666666667;"/><text fill="#FFFFFF" font-family="Verdana" font-size="12.5" lengthAdjust="spacing" textLength="120.8333" x="540.625" y="890.9668">Finish the workflow</text><polygon fill="#2FA4E7" points="1364.5833,944.1996,1375,948.3663,1364.5833,952.533,1368.75,948.3663" style="stroke:#2FA4E7;stroke-width:1.0416666666666667;"/><line style="stroke:#2FA4E7;stroke-width:3.125;" x1="858.3333" x2="1370.8333" y1="948.3663" y2="948.3663"/><text fill="#343A40" font-family="Verdana" font-size="12.5" lengthAdjust="spacing" textLength="353.125" x="870.8333" y="938.4501">isResetCodeCorrect = user.validateResetCode(resetCode)</text><path d="M17.7083,995.2413 L88.5417,995.2413 L88.5417,1012.5163 L78.125,1022.9329 L13.5417,1022.9329 L13.5417,999.408 A4.1667,4.1667 0 0 1 17.7083,995.2413 " fill="#E9ECEF" style="stroke:#868E96;stroke-width:1.0416666666666667;"/><rect fill="none" height="164.4999" rx="4.1667" ry="4.1667" style="stroke:#59B6EC;stroke-width:1.0416666666666667;" width="926.5625" x="13.5417" y="995.2413"/><text fill="#033C73" font-family="Verdana" font-size="12.5" font-weight="bold" lengthAdjust="spacing" textLength="17.7083" x="34.375" y="1014.0584">alt</text><text fill="#343A40" font-family="Verdana" font-size="12.5" font-weight="bold" lengthAdjust="spacing" textLength="168.75" x="109.375" y="1015.1001">[reset code is incorrect]</text><polygon fill="#2FA4E7" points="348.9583,1060.6079,338.5417,1064.7746,348.9583,1068.9412,344.7917,1064.7746" style="stroke:#2FA4E7;stroke-width:1.0416666666666667;"/><line style="stroke:#2FA4E7;stroke-width:3.125;stroke-dasharray:2.0,2.0;" x1="342.7083" x2="846.875" y1="1064.7746" y2="1064.7746"/><text fill="#343A40" font-family="Verdana" font-size="12.5" lengthAdjust="spacing" textLength="160.4167" x="360.4167" y="1054.8584">throw UserNotFoundError</text><polygon fill="#2FA4E7" points="21.875,1100.7996,11.4583,1104.9662,21.875,1109.1329,17.7083,1104.9662" style="stroke:#2FA4E7;stroke-width:1.0416666666666667;"/><line style="stroke:#2FA4E7;stroke-width:3.125;stroke-dasharray:2.0,2.0;" x1="15.625" x2="336.4583" y1="1104.9662" y2="1104.9662"/><text fill="#343A40" font-family="Verdana" font-size="12.5" lengthAdjust="spacing" textLength="148.9583" x="33.3333" y="1095.05">404 UserNotFoundError</text><path d="M529.1667,1122.6746 L529.1667,1149.7579 A4.1667,4.1667 0 0 0 533.3333,1153.9246 L678.125,1153.9246 A4.1667,4.1667 0 0 0 682.2917,1149.7579 L682.2917,1128.9246 L671.875,1118.5079 L533.3333,1118.5079 A4.1667,4.1667 0 0 0 529.1667,1122.6746 " fill="url(#gtx7r5348g4y31)" style="stroke:#033C73;stroke-width:1.0416666666666667;"/><path d="M671.875,1118.5079 L671.875,1126.8412 A2.0833,2.0833 0 0 0 673.9583,1128.9246 L682.2917,1128.9246 L671.875,1118.5079 " fill="url(#gtx7r5348g4y31)" style="stroke:#033C73;stroke-width:1.0416666666666667;"/><text fill="#FFFFFF" font-family="Verdana" font-size="12.5" lengthAdjust="spacing" textLength="120.8333" x="540.625" y="1141.4917">Finish the workflow</text><polygon fill="#2FA4E7" points="1555.2083,1194.7245,1565.625,1198.8912,1555.2083,1203.0579,1559.375,1198.8912" style="stroke:#2FA4E7;stroke-width:1.0416666666666667;"/><line style="stroke:#2FA4E7;stroke-width:3.125;" x1="858.3333" x2="1561.4583" y1="1198.8912" y2="1198.8912"/><text fill="#343A40" font-family="Verdana" font-size="12.5" lengthAdjust="spacing" textLength="302.0833" x="870.8333" y="1188.975">hashedPassword = hashPassword(newPassword)</text><polygon fill="#2FA4E7" points="1364.5833,1266.1662,1375,1270.3328,1364.5833,1274.4995,1368.75,1270.3328" style="stroke:#2FA4E7;stroke-width:1.0416666666666667;"/><line style="stroke:#2FA4E7;stroke-width:3.125;" x1="858.3333" x2="1370.8333" y1="1270.3328" y2="1270.3328"/><text fill="#343A40" font-family="Verdana" font-size="12.5" lengthAdjust="spacing" textLength="488.5417" x="870.8333" y="1260.4167">isPasswordValid = User.isPasswordValid(newPassword, passwordRequirements)</text><path d="M17.7083,1317.2078 L88.5417,1317.2078 L88.5417,1334.4828 L78.125,1344.8995 L13.5417,1344.8995 L13.5417,1321.3745 A4.1667,4.1667 0 0 1 17.7083,1317.2078 " fill="#E9ECEF" style="stroke:#868E96;stroke-width:1.0416666666666667;"/><rect fill="none" height="164.4999" rx="4.1667" ry="4.1667" style="stroke:#59B6EC;stroke-width:1.0416666666666667;" width="926.5625" x="13.5417" y="1317.2078"/><text fill="#033C73" font-family="Verdana" font-size="12.5" font-weight="bold" lengthAdjust="spacing" textLength="17.7083" x="34.375" y="1336.025">alt</text><text fill="#343A40" font-family="Verdana" font-size="12.5" font-weight="bold" lengthAdjust="spacing" textLength="161.4583" x="109.375" y="1337.0667">[password is not valid]</text><polygon fill="#2FA4E7" points="348.9583,1382.5745,338.5417,1386.7411,348.9583,1390.9078,344.7917,1386.7411" style="stroke:#2FA4E7;stroke-width:1.0416666666666667;"/><line style="stroke:#2FA4E7;stroke-width:3.125;stroke-dasharray:2.0,2.0;" x1="342.7083" x2="846.875" y1="1386.7411" y2="1386.7411"/><text fill="#343A40" font-family="Verdana" font-size="12.5" lengthAdjust="spacing" textLength="141.6667" x="360.4167" y="1376.825">throw InvalidUserError</text><polygon fill="#2FA4E7" points="21.875,1422.7661,11.4583,1426.9328,21.875,1431.0994,17.7083,1426.9328" style="stroke:#2FA4E7;stroke-width:1.0416666666666667;"/><line style="stroke:#2FA4E7;stroke-width:3.125;stroke-dasharray:2.0,2.0;" x1="15.625" x2="336.4583" y1="1426.9328" y2="1426.9328"/><text fill="#343A40" font-family="Verdana" font-size="12.5" lengthAdjust="spacing" textLength="130.2083" x="33.3333" y="1417.0166">400 InvalidUserError</text><path d="M529.1667,1444.6411 L529.1667,1471.7244 A4.1667,4.1667 0 0 0 533.3333,1475.8911 L678.125,1475.8911 A4.1667,4.1667 0 0 0 682.2917,1471.7244 L682.2917,1450.8911 L671.875,1440.4744 L533.3333,1440.4744 A4.1667,4.1667 0 0 0 529.1667,1444.6411 " fill="url(#gtx7r5348g4y31)" style="stroke:#033C73;stroke-width:1.0416666666666667;"/><path d="M671.875,1440.4744 L671.875,1448.8078 A2.0833,2.0833 0 0 0 673.9583,1450.8911 L682.2917,1450.8911 L671.875,1440.4744 " fill="url(#gtx7r5348g4y31)" style="stroke:#033C73;stroke-width:1.0416666666666667;"/><text fill="#FFFFFF" font-family="Verdana" font-size="12.5" lengthAdjust="spacing" textLength="120.8333" x="540.625" y="1463.4583">Finish the workflow</text><polygon fill="#2FA4E7" points="1364.5833,1516.6911,1375,1520.8577,1364.5833,1525.0244,1368.75,1520.8577" style="stroke:#2FA4E7;stroke-width:1.0416666666666667;"/><line style="stroke:#2FA4E7;stroke-width:3.125;" x1="858.3333" x2="1370.8333" y1="1520.8577" y2="1520.8577"/><text fill="#343A40" font-family="Verdana" font-size="12.5" lengthAdjust="spacing" textLength="219.7917" x="870.8333" y="1510.9416">user.setPassword(hashedPassword)</text><polygon fill="#2FA4E7" points="1369.7917,1556.8827,1380.2083,1561.0494,1369.7917,1565.2161,1373.9583,1561.0494" style="stroke:#2FA4E7;stroke-width:1.0416666666666667;"/><line style="stroke:#2FA4E7;stroke-width:3.125;" x1="858.3333" x2="1376.0417" y1="1561.0494" y2="1561.0494"/><text fill="#343A40" font-family="Verdana" font-size="12.5" lengthAdjust="spacing" textLength="135.4167" x="870.8333" y="1551.1332">user.clearResetCode()</text><polygon fill="#2FA4E7" points="1063.5417,1597.0744,1073.9583,1601.241,1063.5417,1605.4077,1067.7083,1601.241" style="stroke:#2FA4E7;stroke-width:1.0416666666666667;"/><line style="stroke:#2FA4E7;stroke-width:3.125;" x1="858.3333" x2="1069.7917" y1="1601.241" y2="1601.241"/><text fill="#343A40" font-family="Verdana" font-size="12.5" lengthAdjust="spacing" textLength="108.3333" x="870.8333" y="1591.3249">updateUser(user)</text><polygon fill="#2FA4E7" points="1754.1667,1668.516,1764.5833,1672.6827,1754.1667,1676.8494,1758.3333,1672.6827" style="stroke:#2FA4E7;stroke-width:1.0416666666666667;"/><line style="stroke:#2FA4E7;stroke-width:3.125;" x1="858.3333" x2="1760.4167" y1="1672.6827" y2="1672.6827"/><text fill="#343A40" font-family="Verdana" font-size="12.5" lengthAdjust="spacing" textLength="216.6667" x="870.8333" y="1662.7665">userDto = UserMapper.toDto(user)</text><polygon fill="#2FA4E7" points="1936.9792,1739.9577,1947.3958,1744.1243,1936.9792,1748.291,1941.1458,1744.1243" style="stroke:#2FA4E7;stroke-width:1.0416666666666667;"/><line style="stroke:#2FA4E7;stroke-width:3.125;" x1="858.3333" x2="1943.2292" y1="1744.1243" y2="1744.1243"/><text fill="#343A40" font-family="Verdana" font-size="12.5" lengthAdjust="spacing" textLength="213.5417" x="870.8333" y="1734.2082">emit('PasswordChanged', userDto)</text><polygon fill="#2FA4E7" points="535.4167,1785.791,525,1789.9577,535.4167,1794.1243,531.25,1789.9577" style="stroke:#2FA4E7;stroke-width:1.0416666666666667;"/><line style="stroke:#2FA4E7;stroke-width:3.125;stroke-dasharray:2.0,2.0;" x1="529.1667" x2="852.0833" y1="1789.9577" y2="1789.9577"/><polygon fill="#2FA4E7" points="348.9583,1800.3743,338.5417,1804.541,348.9583,1808.7077,344.7917,1804.541" style="stroke:#2FA4E7;stroke-width:1.0416666666666667;"/><line style="stroke:#2FA4E7;stroke-width:3.125;stroke-dasharray:2.0,2.0;" x1="342.7083" x2="517.7083" y1="1804.541" y2="1804.541"/><polygon fill="#2FA4E7" points="21.875,1840.566,11.4583,1844.7327,21.875,1848.8993,17.7083,1844.7327" style="stroke:#2FA4E7;stroke-width:1.0416666666666667;"/><line style="stroke:#2FA4E7;stroke-width:3.125;stroke-dasharray:2.0,2.0;" x1="15.625" x2="336.4583" y1="1844.7327" y2="1844.7327"/><text fill="#343A40" font-family="Verdana" font-size="12.5" lengthAdjust="spacing" textLength="25" x="33.3333" y="1834.8165">204</text><!--SRC=[pLLDRnen4Btlht1pI8W415MSLcsbX1A9Grf4ajxTzS1QNUoDRQ2ewd_l-6ln0eLAJQNk0Rmpps_spOp7Rqm9Io05g5K5L6GrLOONlAR2a8lRwUI2K4tml-qOIM6Kh2fGpZyogce37a6jUG7E6zPjm0nggRcHQkimzhKDUDQ1t2xQhicKQhsHYZrGGHS1PctXlOr-e7KTC7xPTe_N8CnuoOq9eB3EibxlWrMUa-ddnoToGsj-eq23wTKXV8PUWY0hFoVE5x-ie-1b1TfSPxGmV4qD-2JPdzsM7x2alEhwhIF9e4i4R2B7J_8UFI_zhv9jcuqXcVlXJX8b7n5h4VujeqrzJbQOPOot06FpVRSTMq9FcsntPMBGVgULyTk5D6GkLu9b19ycH4oZAPNSk79-akRUuiPAIUN0zd6BTxsUHmy7mzzWCGmGnHUb8NBkqnefxhdWkiH8G53ujtabDyu7Whbj6IvIxJQ0rzxd-jQgWauYrxLU8jUzDtAvTegT5qv9lgDivjlXjE31KUJVocq-kDzq1xcytBEW_F7tcYjWgFzVICcnLp0MAMpu4eyP-72l8_6Wf5pFehIHL0eAWytj9AzfnHaMi_5tcYISgxpBfDh9m0RWel3q_tVBfmbA1cLkAr42YuC2SsGDpLGvFaFIIPkaA3KVAqXa-c8BW96U_QbhcTE8NHBdhEqZx9Kb3chz9wSpxeidr9NyL84cma4imRcsFWfz_VvrhPeE-7QXzhDmV7-1DxhQzVdrOKCVNWErFHlMsR4KvqP_Ik0lLn_wev6XmjxQDn9D-vJXEav8WoLX3RTnJW0NdQkOW559nGBOLJU6IsZZ1PxmHbDQVrUc11ElHd_J-WP9_GuVUe7avErWc6M_0000]--></g></svg>