<?xml version="1.0" encoding="us-ascii" standalone="no"?><svg xmlns="http://www.w3.org/2000/svg" xmlns:xlink="http://www.w3.org/1999/xlink" contentStyleType="text/css" height="1311.4583px" preserveAspectRatio="none" style="width:1737px;height:1311px;" version="1.1" viewBox="0 0 1737 1311" width="1737.5px" zoomAndPan="magnify"><defs><linearGradient id="gxupwknqkyys20" x1="50%" x2="50%" y1="0%" y2="100%"><stop offset="0%" stop-color="#59B6EC"/><stop offset="100%" stop-color="#2FA4E7"/></linearGradient><linearGradient id="gxupwknqkyys21" x1="50%" x2="50%" y1="0%" y2="100%"><stop offset="0%" stop-color="#35638F"/><stop offset="100%" stop-color="#033C73"/></linearGradient></defs><g><rect fill="#EDF0F2" height="1068.7663" style="stroke:#BABDBF;stroke-width:1.0416666666666667;" width="10.4167" x="401.0417" y="134.1166"/><rect fill="#EDF0F2" height="934.6497" style="stroke:#BABDBF;stroke-width:1.0416666666666667;" width="10.4167" x="651.0417" y="228.0416"/><rect fill="#EDF0F2" height="31.25" style="stroke:#BABDBF;stroke-width:1.0416666666666667;" width="10.4167" x="879.1667" y="268.2332"/><rect fill="#EDF0F2" height="31.25" style="stroke:#BABDBF;stroke-width:1.0416666666666667;" width="10.4167" x="1044.2708" y="518.7581"/><rect fill="#EDF0F2" height="31.25" style="stroke:#BABDBF;stroke-width:1.0416666666666667;" width="10.4167" x="1234.8958" y="769.283"/><rect fill="#EDF0F2" height="31.25" style="stroke:#BABDBF;stroke-width:1.0416666666666667;" width="10.4167" x="1441.6667" y="1019.8079"/><rect fill="#EDF0F2" height="31.25" style="stroke:#BABDBF;stroke-width:1.0416666666666667;" width="10.4167" x="1649.4792" y="1091.2496"/><rect fill="none" height="118.0583" rx="4.1667" ry="4.1667" style="stroke:#59B6EC;stroke-width:1.0416666666666667;" width="729.6875" x="13.5417" y="315.1082"/><rect fill="none" height="164.4999" rx="4.1667" ry="4.1667" style="stroke:#59B6EC;stroke-width:1.0416666666666667;" width="729.6875" x="13.5417" y="565.6331"/><rect fill="none" height="164.4999" rx="4.1667" ry="4.1667" style="stroke:#59B6EC;stroke-width:1.0416666666666667;" width="729.6875" x="13.5417" y="816.158"/><line style="stroke:#BABDBF;stroke-width:1.0416666666666667;stroke-dasharray:5.0,5.0;" x1="223.9583" x2="223.9583" y1="51.65" y2="1261.8245"/><line style="stroke:#BABDBF;stroke-width:1.0416666666666667;stroke-dasharray:5.0,5.0;" x1="406.25" x2="406.25" y1="51.65" y2="1261.8245"/><line style="stroke:#BABDBF;stroke-width:1.0416666666666667;stroke-dasharray:5.0,5.0;" x1="655.7292" x2="655.7292" y1="51.65" y2="1261.8245"/><line style="stroke:#BABDBF;stroke-width:1.0416666666666667;stroke-dasharray:5.0,5.0;" x1="884.375" x2="884.375" y1="51.65" y2="1261.8245"/><line style="stroke:#BABDBF;stroke-width:1.0416666666666667;stroke-dasharray:5.0,5.0;" x1="1048.9583" x2="1048.9583" y1="51.65" y2="1261.8245"/><line style="stroke:#BABDBF;stroke-width:1.0416666666666667;stroke-dasharray:5.0,5.0;" x1="1239.5833" x2="1239.5833" y1="51.65" y2="1261.8245"/><line style="stroke:#BABDBF;stroke-width:1.0416666666666667;stroke-dasharray:5.0,5.0;" x1="1446.875" x2="1446.875" y1="51.65" y2="1261.8245"/><line style="stroke:#BABDBF;stroke-width:1.0416666666666667;stroke-dasharray:5.0,5.0;" x1="1654.1667" x2="1654.1667" y1="51.65" y2="1261.8245"/><rect fill="url(#gxupwknqkyys20)" height="40.1917" rx="4.1667" ry="4.1667" style="stroke:#2FA4E7;stroke-width:1.0416666666666667;" width="45.8333" x="201.0417" y="10.4167"/><text fill="#FFFFFF" font-family="Verdana" font-size="12.5" lengthAdjust="spacing" textLength="20.8333" x="213.5417" y="35.4838">API</text><rect fill="url(#gxupwknqkyys20)" height="40.1917" rx="4.1667" ry="4.1667" style="stroke:#2FA4E7;stroke-width:1.0416666666666667;" width="45.8333" x="201.0417" y="1260.7829"/><text fill="#FFFFFF" font-family="Verdana" font-size="12.5" lengthAdjust="spacing" textLength="20.8333" x="213.5417" y="1285.85">API</text><rect fill="url(#gxupwknqkyys20)" height="40.1917" rx="4.1667" ry="4.1667" style="stroke:#2FA4E7;stroke-width:1.0416666666666667;" width="85.4167" x="363.5417" y="10.4167"/><text fill="#FFFFFF" font-family="Verdana" font-size="12.5" lengthAdjust="spacing" textLength="60.4167" x="376.0417" y="35.4838">Controller</text><rect fill="url(#gxupwknqkyys20)" height="40.1917" rx="4.1667" ry="4.1667" style="stroke:#2FA4E7;stroke-width:1.0416666666666667;" width="85.4167" x="363.5417" y="1260.7829"/><text fill="#FFFFFF" font-family="Verdana" font-size="12.5" lengthAdjust="spacing" textLength="60.4167" x="376.0417" y="1285.85">Controller</text><rect fill="url(#gxupwknqkyys20)" height="40.1917" rx="4.1667" ry="4.1667" style="stroke:#2FA4E7;stroke-width:1.0416666666666667;" width="69.7917" x="621.3542" y="10.4167"/><text fill="#FFFFFF" font-family="Verdana" font-size="12.5" lengthAdjust="spacing" textLength="44.7917" x="633.8542" y="35.4838">Service</text><rect fill="url(#gxupwknqkyys20)" height="40.1917" rx="4.1667" ry="4.1667" style="stroke:#2FA4E7;stroke-width:1.0416666666666667;" width="69.7917" x="621.3542" y="1260.7829"/><text fill="#FFFFFF" font-family="Verdana" font-size="12.5" lengthAdjust="spacing" textLength="44.7917" x="633.8542" y="1285.85">Service</text><rect fill="url(#gxupwknqkyys20)" height="40.1917" rx="4.1667" ry="4.1667" style="stroke:#2FA4E7;stroke-width:1.0416666666666667;" width="89.5833" x="839.5833" y="10.4167"/><text fill="#FFFFFF" font-family="Verdana" font-size="12.5" lengthAdjust="spacing" textLength="64.5833" x="852.0833" y="35.4838">Repository</text><rect fill="url(#gxupwknqkyys20)" height="40.1917" rx="4.1667" ry="4.1667" style="stroke:#2FA4E7;stroke-width:1.0416666666666667;" width="89.5833" x="839.5833" y="1260.7829"/><text fill="#FFFFFF" font-family="Verdana" font-size="12.5" lengthAdjust="spacing" textLength="64.5833" x="852.0833" y="1285.85">Repository</text><rect fill="url(#gxupwknqkyys20)" height="40.1917" rx="4.1667" ry="4.1667" style="stroke:#2FA4E7;stroke-width:1.0416666666666667;" width="53.125" x="1022.9167" y="10.4167"/><text fill="#FFFFFF" font-family="Verdana" font-size="12.5" lengthAdjust="spacing" textLength="28.125" x="1035.4167" y="35.4838">User</text><rect fill="url(#gxupwknqkyys20)" height="40.1917" rx="4.1667" ry="4.1667" style="stroke:#2FA4E7;stroke-width:1.0416666666666667;" width="53.125" x="1022.9167" y="1260.7829"/><text fill="#FFFFFF" font-family="Verdana" font-size="12.5" lengthAdjust="spacing" textLength="28.125" x="1035.4167" y="1285.85">User</text><rect fill="url(#gxupwknqkyys20)" height="40.1917" rx="4.1667" ry="4.1667" style="stroke:#2FA4E7;stroke-width:1.0416666666666667;" width="140.625" x="1169.7917" y="10.4167"/><text fill="#FFFFFF" font-family="Verdana" font-size="12.5" lengthAdjust="spacing" textLength="115.625" x="1182.2917" y="35.4838">IPasswordManager</text><rect fill="url(#gxupwknqkyys20)" height="40.1917" rx="4.1667" ry="4.1667" style="stroke:#2FA4E7;stroke-width:1.0416666666666667;" width="140.625" x="1169.7917" y="1260.7829"/><text fill="#FFFFFF" font-family="Verdana" font-size="12.5" lengthAdjust="spacing" textLength="115.625" x="1182.2917" y="1285.85">IPasswordManager</text><rect fill="url(#gxupwknqkyys20)" height="40.1917" rx="4.1667" ry="4.1667" style="stroke:#2FA4E7;stroke-width:1.0416666666666667;" width="85.4167" x="1404.1667" y="10.4167"/><text fill="#FFFFFF" font-family="Verdana" font-size="12.5" lengthAdjust="spacing" textLength="60.4167" x="1416.6667" y="35.4838">Encrypter</text><rect fill="url(#gxupwknqkyys20)" height="40.1917" rx="4.1667" ry="4.1667" style="stroke:#2FA4E7;stroke-width:1.0416666666666667;" width="85.4167" x="1404.1667" y="1260.7829"/><text fill="#FFFFFF" font-family="Verdana" font-size="12.5" lengthAdjust="spacing" textLength="60.4167" x="1416.6667" y="1285.85">Encrypter</text><rect fill="url(#gxupwknqkyys20)" height="40.1917" rx="4.1667" ry="4.1667" style="stroke:#2FA4E7;stroke-width:1.0416666666666667;" width="142.7083" x="1583.3333" y="10.4167"/><text fill="#FFFFFF" font-family="Verdana" font-size="12.5" lengthAdjust="spacing" textLength="117.7083" x="1595.8333" y="35.4838">RefreshTokenStore</text><rect fill="url(#gxupwknqkyys20)" height="40.1917" rx="4.1667" ry="4.1667" style="stroke:#2FA4E7;stroke-width:1.0416666666666667;" width="142.7083" x="1583.3333" y="1260.7829"/><text fill="#FFFFFF" font-family="Verdana" font-size="12.5" lengthAdjust="spacing" textLength="117.7083" x="1595.8333" y="1285.85">RefreshTokenStore</text><rect fill="#EDF0F2" height="1068.7663" style="stroke:#BABDBF;stroke-width:1.0416666666666667;" width="10.4167" x="401.0417" y="134.1166"/><rect fill="#EDF0F2" height="934.6497" style="stroke:#BABDBF;stroke-width:1.0416666666666667;" width="10.4167" x="651.0417" y="228.0416"/><rect fill="#EDF0F2" height="31.25" style="stroke:#BABDBF;stroke-width:1.0416666666666667;" width="10.4167" x="879.1667" y="268.2332"/><rect fill="#EDF0F2" height="31.25" style="stroke:#BABDBF;stroke-width:1.0416666666666667;" width="10.4167" x="1044.2708" y="518.7581"/><rect fill="#EDF0F2" height="31.25" style="stroke:#BABDBF;stroke-width:1.0416666666666667;" width="10.4167" x="1234.8958" y="769.283"/><rect fill="#EDF0F2" height="31.25" style="stroke:#BABDBF;stroke-width:1.0416666666666667;" width="10.4167" x="1441.6667" y="1019.8079"/><rect fill="#EDF0F2" height="31.25" style="stroke:#BABDBF;stroke-width:1.0416666666666667;" width="10.4167" x="1649.4792" y="1091.2496"/><polygon fill="#2FA4E7" points="211.4583,89.7583,221.875,93.925,211.4583,98.0916,215.625,93.925" style="stroke:#2FA4E7;stroke-width:1.0416666666666667;"/><line style="stroke:#2FA4E7;stroke-width:3.125;stroke-dasharray:2.0,2.0;" x1="10.4167" x2="217.7083" y1="93.925" y2="93.925"/><text fill="#343A40" font-family="Verdana" font-size="12.5" lengthAdjust="spacing" textLength="101.0417" x="22.9167" y="84.0088">POST /api/signin</text><polygon fill="#2FA4E7" points="388.5417,129.95,398.9583,134.1166,388.5417,138.2833,392.7083,134.1166" style="stroke:#2FA4E7;stroke-width:1.0416666666666667;"/><line style="stroke:#2FA4E7;stroke-width:3.125;" x1="223.9583" x2="394.7917" y1="134.1166" y2="134.1166"/><text fill="#343A40" font-family="Verdana" font-size="12.5" lengthAdjust="spacing" textLength="95.8333" x="236.4583" y="124.2004">signIn(request)</text><line style="stroke:#2FA4E7;stroke-width:3.125;" x1="411.4583" x2="455.2083" y1="174.3083" y2="174.3083"/><line style="stroke:#2FA4E7;stroke-width:3.125;" x1="455.2083" x2="455.2083" y1="174.3083" y2="187.8499"/><line style="stroke:#2FA4E7;stroke-width:3.125;" x1="412.5" x2="455.2083" y1="187.8499" y2="187.8499"/><polygon fill="#2FA4E7" points="422.9167,183.6833,412.5,187.8499,422.9167,192.0166,418.75,187.8499" style="stroke:#2FA4E7;stroke-width:1.0416666666666667;"/><text fill="#343A40" font-family="Verdana" font-size="12.5" lengthAdjust="spacing" textLength="214.5833" x="423.9583" y="164.3921">{email, password} = request.body</text><polygon fill="#2FA4E7" points="638.5417,223.8749,648.9583,228.0416,638.5417,232.2083,642.7083,228.0416" style="stroke:#2FA4E7;stroke-width:1.0416666666666667;"/><line style="stroke:#2FA4E7;stroke-width:3.125;" x1="411.4583" x2="644.7917" y1="228.0416" y2="228.0416"/><text fill="#343A40" font-family="Verdana" font-size="12.5" lengthAdjust="spacing" textLength="147.9167" x="423.9583" y="218.1254">signIn(email, password)</text><polygon fill="#2FA4E7" points="866.6667,264.0666,877.0833,268.2332,866.6667,272.3999,870.8333,268.2332" style="stroke:#2FA4E7;stroke-width:1.0416666666666667;"/><line style="stroke:#2FA4E7;stroke-width:3.125;" x1="661.4583" x2="872.9167" y1="268.2332" y2="268.2332"/><text fill="#343A40" font-family="Verdana" font-size="12.5" lengthAdjust="spacing" textLength="187.5" x="673.9583" y="258.3171">user = getUserByEmail(email)</text><path d="M17.7083,315.1082 L88.5417,315.1082 L88.5417,332.3832 L78.125,342.7999 L13.5417,342.7999 L13.5417,319.2749 A4.1667,4.1667 0 0 1 17.7083,315.1082 " fill="#E9ECEF" style="stroke:#868E96;stroke-width:1.0416666666666667;"/><rect fill="none" height="118.0583" rx="4.1667" ry="4.1667" style="stroke:#59B6EC;stroke-width:1.0416666666666667;" width="729.6875" x="13.5417" y="315.1082"/><text fill="#033C73" font-family="Verdana" font-size="12.5" font-weight="bold" lengthAdjust="spacing" textLength="17.7083" x="34.375" y="333.9254">alt</text><text fill="#343A40" font-family="Verdana" font-size="12.5" font-weight="bold" lengthAdjust="spacing" textLength="117.7083" x="109.375" y="334.967">[user not found]</text><polygon fill="#2FA4E7" points="235.4167,380.4749,225,384.6415,235.4167,388.8082,231.25,384.6415" style="stroke:#2FA4E7;stroke-width:1.0416666666666667;"/><line style="stroke:#2FA4E7;stroke-width:3.125;stroke-dasharray:2.0,2.0;" x1="229.1667" x2="650" y1="384.6415" y2="384.6415"/><text fill="#343A40" font-family="Verdana" font-size="12.5" lengthAdjust="spacing" textLength="144.7917" x="246.875" y="374.7253">throw BadRequestError</text><polygon fill="#2FA4E7" points="21.875,420.6665,11.4583,424.8332,21.875,428.9998,17.7083,424.8332" style="stroke:#2FA4E7;stroke-width:1.0416666666666667;"/><line style="stroke:#2FA4E7;stroke-width:3.125;stroke-dasharray:2.0,2.0;" x1="15.625" x2="222.9167" y1="424.8332" y2="424.8332"/><text fill="#343A40" font-family="Verdana" font-size="12.5" lengthAdjust="spacing" textLength="133.3333" x="33.3333" y="414.917">400 BadRequestError</text><path d="M416.6667,449.8332 L416.6667,476.9165 A4.1667,4.1667 0 0 0 420.8333,481.0832 L565.625,481.0832 A4.1667,4.1667 0 0 0 569.7917,476.9165 L569.7917,456.0832 L559.375,445.6665 L420.8333,445.6665 A4.1667,4.1667 0 0 0 416.6667,449.8332 " fill="url(#gxupwknqkyys21)" style="stroke:#033C73;stroke-width:1.0416666666666667;"/><path d="M559.375,445.6665 L559.375,453.9998 A2.0833,2.0833 0 0 0 561.4583,456.0832 L569.7917,456.0832 L559.375,445.6665 " fill="url(#gxupwknqkyys21)" style="stroke:#033C73;stroke-width:1.0416666666666667;"/><text fill="#FFFFFF" font-family="Verdana" font-size="12.5" lengthAdjust="spacing" textLength="120.8333" x="428.125" y="468.6503">Finish the workflow</text><polygon fill="#2FA4E7" points="1031.7708,514.5915,1042.1875,518.7581,1031.7708,522.9248,1035.9375,518.7581" style="stroke:#2FA4E7;stroke-width:1.0416666666666667;"/><line style="stroke:#2FA4E7;stroke-width:3.125;" x1="661.4583" x2="1038.0208" y1="518.7581" y2="518.7581"/><text fill="#343A40" font-family="Verdana" font-size="12.5" lengthAdjust="spacing" textLength="88.5417" x="673.9583" y="508.842">user.isActive()</text><path d="M17.7083,565.6331 L88.5417,565.6331 L88.5417,582.9081 L78.125,593.3248 L13.5417,593.3248 L13.5417,569.7998 A4.1667,4.1667 0 0 1 17.7083,565.6331 " fill="#E9ECEF" style="stroke:#868E96;stroke-width:1.0416666666666667;"/><rect fill="none" height="164.4999" rx="4.1667" ry="4.1667" style="stroke:#59B6EC;stroke-width:1.0416666666666667;" width="729.6875" x="13.5417" y="565.6331"/><text fill="#033C73" font-family="Verdana" font-size="12.5" font-weight="bold" lengthAdjust="spacing" textLength="17.7083" x="34.375" y="584.4503">alt</text><text fill="#343A40" font-family="Verdana" font-size="12.5" font-weight="bold" lengthAdjust="spacing" textLength="134.375" x="109.375" y="585.4919">[user is not active]</text><polygon fill="#2FA4E7" points="235.4167,630.9998,225,635.1664,235.4167,639.3331,231.25,635.1664" style="stroke:#2FA4E7;stroke-width:1.0416666666666667;"/><line style="stroke:#2FA4E7;stroke-width:3.125;stroke-dasharray:2.0,2.0;" x1="229.1667" x2="650" y1="635.1664" y2="635.1664"/><text fill="#343A40" font-family="Verdana" font-size="12.5" lengthAdjust="spacing" textLength="144.7917" x="246.875" y="625.2502">throw BadRequestError</text><path d="M416.6667,652.8748 L416.6667,679.9581 A4.1667,4.1667 0 0 0 420.8333,684.1248 L565.625,684.1248 A4.1667,4.1667 0 0 0 569.7917,679.9581 L569.7917,659.1248 L559.375,648.7081 L420.8333,648.7081 A4.1667,4.1667 0 0 0 416.6667,652.8748 " fill="url(#gxupwknqkyys21)" style="stroke:#033C73;stroke-width:1.0416666666666667;"/><path d="M559.375,648.7081 L559.375,657.0414 A2.0833,2.0833 0 0 0 561.4583,659.1248 L569.7917,659.1248 L559.375,648.7081 " fill="url(#gxupwknqkyys21)" style="stroke:#033C73;stroke-width:1.0416666666666667;"/><text fill="#FFFFFF" font-family="Verdana" font-size="12.5" lengthAdjust="spacing" textLength="120.8333" x="428.125" y="671.6919">Finish the workflow</text><polygon fill="#2FA4E7" points="21.875,717.6331,11.4583,721.7997,21.875,725.9664,17.7083,721.7997" style="stroke:#2FA4E7;stroke-width:1.0416666666666667;"/><line style="stroke:#2FA4E7;stroke-width:3.125;stroke-dasharray:2.0,2.0;" x1="15.625" x2="222.9167" y1="721.7997" y2="721.7997"/><text fill="#343A40" font-family="Verdana" font-size="12.5" lengthAdjust="spacing" textLength="133.3333" x="33.3333" y="711.8835">400 BadRequestError</text><polygon fill="#2FA4E7" points="1222.3958,765.1164,1232.8125,769.283,1222.3958,773.4497,1226.5625,769.283" style="stroke:#2FA4E7;stroke-width:1.0416666666666667;"/><line style="stroke:#2FA4E7;stroke-width:3.125;" x1="661.4583" x2="1228.6458" y1="769.283" y2="769.283"/><text fill="#343A40" font-family="Verdana" font-size="12.5" lengthAdjust="spacing" textLength="375" x="673.9583" y="759.3669">isPasswordValid = isPasswordValid(password, user.password)</text><path d="M17.7083,816.158 L88.5417,816.158 L88.5417,833.433 L78.125,843.8497 L13.5417,843.8497 L13.5417,820.3247 A4.1667,4.1667 0 0 1 17.7083,816.158 " fill="#E9ECEF" style="stroke:#868E96;stroke-width:1.0416666666666667;"/><rect fill="none" height="164.4999" rx="4.1667" ry="4.1667" style="stroke:#59B6EC;stroke-width:1.0416666666666667;" width="729.6875" x="13.5417" y="816.158"/><text fill="#033C73" font-family="Verdana" font-size="12.5" font-weight="bold" lengthAdjust="spacing" textLength="17.7083" x="34.375" y="834.9752">alt</text><text fill="#343A40" font-family="Verdana" font-size="12.5" font-weight="bold" lengthAdjust="spacing" textLength="161.4583" x="109.375" y="836.0168">[password is not valid]</text><polygon fill="#2FA4E7" points="235.4167,881.5247,225,885.6913,235.4167,889.858,231.25,885.6913" style="stroke:#2FA4E7;stroke-width:1.0416666666666667;"/><line style="stroke:#2FA4E7;stroke-width:3.125;stroke-dasharray:2.0,2.0;" x1="229.1667" x2="650" y1="885.6913" y2="885.6913"/><text fill="#343A40" font-family="Verdana" font-size="12.5" lengthAdjust="spacing" textLength="144.7917" x="246.875" y="875.7751">throw BadRequestError</text><path d="M416.6667,903.3997 L416.6667,930.483 A4.1667,4.1667 0 0 0 420.8333,934.6497 L565.625,934.6497 A4.1667,4.1667 0 0 0 569.7917,930.483 L569.7917,909.6497 L559.375,899.233 L420.8333,899.233 A4.1667,4.1667 0 0 0 416.6667,903.3997 " fill="url(#gxupwknqkyys21)" style="stroke:#033C73;stroke-width:1.0416666666666667;"/><path d="M559.375,899.233 L559.375,907.5663 A2.0833,2.0833 0 0 0 561.4583,909.6497 L569.7917,909.6497 L559.375,899.233 " fill="url(#gxupwknqkyys21)" style="stroke:#033C73;stroke-width:1.0416666666666667;"/><text fill="#FFFFFF" font-family="Verdana" font-size="12.5" lengthAdjust="spacing" textLength="120.8333" x="428.125" y="922.2168">Finish the workflow</text><polygon fill="#2FA4E7" points="21.875,968.158,11.4583,972.3246,21.875,976.4913,17.7083,972.3246" style="stroke:#2FA4E7;stroke-width:1.0416666666666667;"/><line style="stroke:#2FA4E7;stroke-width:3.125;stroke-dasharray:2.0,2.0;" x1="15.625" x2="222.9167" y1="972.3246" y2="972.3246"/><text fill="#343A40" font-family="Verdana" font-size="12.5" lengthAdjust="spacing" textLength="133.3333" x="33.3333" y="962.4084">400 BadRequestError</text><polygon fill="#2FA4E7" points="1429.1667,1015.6413,1439.5833,1019.8079,1429.1667,1023.9746,1433.3333,1019.8079" style="stroke:#2FA4E7;stroke-width:1.0416666666666667;"/><line style="stroke:#2FA4E7;stroke-width:3.125;" x1="661.4583" x2="1435.4167" y1="1019.8079" y2="1019.8079"/><text fill="#343A40" font-family="Verdana" font-size="12.5" lengthAdjust="spacing" textLength="461.4583" x="673.9583" y="1009.8918">tokens = encrypter.encrypt({user.id, user.email, user.role, user.isActive})</text><polygon fill="#2FA4E7" points="1636.9792,1087.0829,1647.3958,1091.2496,1636.9792,1095.4163,1641.1458,1091.2496" style="stroke:#2FA4E7;stroke-width:1.0416666666666667;"/><line style="stroke:#2FA4E7;stroke-width:3.125;" x1="661.4583" x2="1643.2292" y1="1091.2496" y2="1091.2496"/><text fill="#343A40" font-family="Verdana" font-size="12.5" lengthAdjust="spacing" textLength="368.75" x="673.9583" y="1081.3334">refreshTokenStore.saveRefreshToken(tokens.refreshToken)</text><polygon fill="#2FA4E7" points="422.9167,1158.5246,412.5,1162.6912,422.9167,1166.8579,418.75,1162.6912" style="stroke:#2FA4E7;stroke-width:1.0416666666666667;"/><line style="stroke:#2FA4E7;stroke-width:3.125;" x1="416.6667" x2="655.2083" y1="1162.6912" y2="1162.6912"/><text fill="#343A40" font-family="Verdana" font-size="12.5" lengthAdjust="spacing" textLength="141.6667" x="434.375" y="1152.7751">{token, refreshToken}</text><polygon fill="#2FA4E7" points="235.4167,1198.7162,225,1202.8829,235.4167,1207.0496,231.25,1202.8829" style="stroke:#2FA4E7;stroke-width:1.0416666666666667;"/><line style="stroke:#2FA4E7;stroke-width:3.125;" x1="229.1667" x2="405.2083" y1="1202.8829" y2="1202.8829"/><text fill="#343A40" font-family="Verdana" font-size="12.5" lengthAdjust="spacing" textLength="141.6667" x="246.875" y="1192.9667">{token, refreshToken}</text><polygon fill="#2FA4E7" points="21.875,1238.9079,11.4583,1243.0745,21.875,1247.2412,17.7083,1243.0745" style="stroke:#2FA4E7;stroke-width:1.0416666666666667;"/><line style="stroke:#2FA4E7;stroke-width:3.125;stroke-dasharray:2.0,2.0;" x1="15.625" x2="222.9167" y1="1243.0745" y2="1243.0745"/><text fill="#343A40" font-family="Verdana" font-size="12.5" lengthAdjust="spacing" textLength="170.8333" x="33.3333" y="1233.1584">200 {token, refreshToken}</text><!--SRC=[pLHDJ-Cm4BtxLyno2b8Rq6fFqR8IeAxK0wAYmDqaqyOYs5dRRLMX_dVycTgX4kAsFJJsp9lnl6VF_D0jlY7KA3STKavwAZMhMK-vXhFhnVmCg0BppHstWcifkWwbyzzgsUM09Sejgz5vmpe7F60l5DD2xXt6RdF0amh9xI9tpHTKgPsGpHtbT1rWrXRsENh6QxdlTO0Dkt4vAucgVHIlo9UcAWnLZQo4aEdqZzMZWiNzyX4kQCyk55jpnecnWd5QCIgmjZal9FxReDBdXDQQRQb6hvNzEsBVyOsoRW9ze7M0AmY1vOjezWCyA3ba7yKbfqJDmzS6Muahs1WrJVerQglhpNvcK_X4IRYxZWRpFUsq3-T2mqfiU4CW_8PZeZYwbM87DxHvy3ncKWevm8V5x-dKutzTNfv4OpZ478aWsRhL85PUmvZZB-DCjUP412F2wweJEsB2N0X91R24lG0bKzUM6XO9P_VE4ivkFt1coj5sNYJVvFpDwWDnp-1BcQn4ASsa4IfJTkoLPzgnnjpyo5B4npFnofnuIsbd9VgaPYjJZ8nIRMtw_rgfOHQOYcoBAoCFHbiPLiMxVp5HeD1pRcr684xo5tL8X3lEcaIsep5lpj6agSm469bAHRUO0WjVTPaYioOUJw-iep-DjgISC9TS_abMoI5D4gTCd4zE-I-ZtAs6Yu8AVfgREXr3FW00]--></g></svg>