<?xml version="1.0" encoding="us-ascii" standalone="no"?><svg xmlns="http://www.w3.org/2000/svg" xmlns:xlink="http://www.w3.org/1999/xlink" contentStyleType="text/css" height="1435.4167px" preserveAspectRatio="none" style="width:1909px;height:1435px;" version="1.1" viewBox="0 0 1909 1435" width="1909.375px" zoomAndPan="magnify"><defs><linearGradient id="gibbcg95zf14k0" x1="50%" x2="50%" y1="0%" y2="100%"><stop offset="0%" stop-color="#59B6EC"/><stop offset="100%" stop-color="#2FA4E7"/></linearGradient><linearGradient id="gibbcg95zf14k1" x1="50%" x2="50%" y1="0%" y2="100%"><stop offset="0%" stop-color="#35638F"/><stop offset="100%" stop-color="#033C73"/></linearGradient></defs><g><rect fill="#EDF0F2" height="1192.4662" style="stroke:#BABDBF;stroke-width:1.0416666666666667;" width="10.4167" x="401.0417" y="134.1166"/><rect fill="#EDF0F2" height="1058.3496" style="stroke:#BABDBF;stroke-width:1.0416666666666667;" width="10.4167" x="721.875" y="228.0416"/><rect fill="#EDF0F2" height="31.25" style="stroke:#BABDBF;stroke-width:1.0416666666666667;" width="10.4167" x="1020.8333" y="268.2332"/><rect fill="#EDF0F2" height="31.25" style="stroke:#BABDBF;stroke-width:1.0416666666666667;" width="10.4167" x="1020.8333" y="384.6415"/><rect fill="#EDF0F2" height="31.25" style="stroke:#BABDBF;stroke-width:1.0416666666666667;" width="10.4167" x="1185.9375" y="642.4581"/><rect fill="#EDF0F2" height="31.25" style="stroke:#BABDBF;stroke-width:1.0416666666666667;" width="10.4167" x="1376.5625" y="892.983"/><rect fill="#EDF0F2" height="31.25" style="stroke:#BABDBF;stroke-width:1.0416666666666667;" width="10.4167" x="1598.4375" y="1143.5079"/><rect fill="#EDF0F2" height="31.25" style="stroke:#BABDBF;stroke-width:1.0416666666666667;" width="10.4167" x="1821.3542" y="1214.9495"/><rect fill="none" height="288.1999" rx="4.1667" ry="4.1667" style="stroke:#59B6EC;stroke-width:1.0416666666666667;" width="1109.375" x="13.5417" y="315.1082"/><rect fill="none" height="118.0583" rx="4.1667" ry="4.1667" style="stroke:#59B6EC;stroke-width:1.0416666666666667;" width="800.5208" x="13.5417" y="431.5165"/><rect fill="none" height="164.4999" rx="4.1667" ry="4.1667" style="stroke:#59B6EC;stroke-width:1.0416666666666667;" width="800.5208" x="13.5417" y="689.3331"/><rect fill="none" height="164.4999" rx="4.1667" ry="4.1667" style="stroke:#59B6EC;stroke-width:1.0416666666666667;" width="800.5208" x="13.5417" y="939.858"/><line style="stroke:#BABDBF;stroke-width:1.0416666666666667;stroke-dasharray:5.0,5.0;" x1="223.9583" x2="223.9583" y1="51.65" y2="1385.5245"/><line style="stroke:#BABDBF;stroke-width:1.0416666666666667;stroke-dasharray:5.0,5.0;" x1="406.25" x2="406.25" y1="51.65" y2="1385.5245"/><line style="stroke:#BABDBF;stroke-width:1.0416666666666667;stroke-dasharray:5.0,5.0;" x1="726.5625" x2="726.5625" y1="51.65" y2="1385.5245"/><line style="stroke:#BABDBF;stroke-width:1.0416666666666667;stroke-dasharray:5.0,5.0;" x1="1026.0417" x2="1026.0417" y1="51.65" y2="1385.5245"/><line style="stroke:#BABDBF;stroke-width:1.0416666666666667;stroke-dasharray:5.0,5.0;" x1="1190.625" x2="1190.625" y1="51.65" y2="1385.5245"/><line style="stroke:#BABDBF;stroke-width:1.0416666666666667;stroke-dasharray:5.0,5.0;" x1="1381.25" x2="1381.25" y1="51.65" y2="1385.5245"/><line style="stroke:#BABDBF;stroke-width:1.0416666666666667;stroke-dasharray:5.0,5.0;" x1="1603.125" x2="1603.125" y1="51.65" y2="1385.5245"/><line style="stroke:#BABDBF;stroke-width:1.0416666666666667;stroke-dasharray:5.0,5.0;" x1="1826.0417" x2="1826.0417" y1="51.65" y2="1385.5245"/><rect fill="url(#gibbcg95zf14k0)" height="40.1917" rx="4.1667" ry="4.1667" style="stroke:#2FA4E7;stroke-width:1.0416666666666667;" width="45.8333" x="201.0417" y="10.4167"/><text fill="#FFFFFF" font-family="Verdana" font-size="12.5" lengthAdjust="spacing" textLength="20.8333" x="213.5417" y="35.4838">API</text><rect fill="url(#gibbcg95zf14k0)" height="40.1917" rx="4.1667" ry="4.1667" style="stroke:#2FA4E7;stroke-width:1.0416666666666667;" width="45.8333" x="201.0417" y="1384.4828"/><text fill="#FFFFFF" font-family="Verdana" font-size="12.5" lengthAdjust="spacing" textLength="20.8333" x="213.5417" y="1409.55">API</text><rect fill="url(#gibbcg95zf14k0)" height="40.1917" rx="4.1667" ry="4.1667" style="stroke:#2FA4E7;stroke-width:1.0416666666666667;" width="85.4167" x="363.5417" y="10.4167"/><text fill="#FFFFFF" font-family="Verdana" font-size="12.5" lengthAdjust="spacing" textLength="60.4167" x="376.0417" y="35.4838">Controller</text><rect fill="url(#gibbcg95zf14k0)" height="40.1917" rx="4.1667" ry="4.1667" style="stroke:#2FA4E7;stroke-width:1.0416666666666667;" width="85.4167" x="363.5417" y="1384.4828"/><text fill="#FFFFFF" font-family="Verdana" font-size="12.5" lengthAdjust="spacing" textLength="60.4167" x="376.0417" y="1409.55">Controller</text><rect fill="url(#gibbcg95zf14k0)" height="40.1917" rx="4.1667" ry="4.1667" style="stroke:#2FA4E7;stroke-width:1.0416666666666667;" width="69.7917" x="692.1875" y="10.4167"/><text fill="#FFFFFF" font-family="Verdana" font-size="12.5" lengthAdjust="spacing" textLength="44.7917" x="704.6875" y="35.4838">Service</text><rect fill="url(#gibbcg95zf14k0)" height="40.1917" rx="4.1667" ry="4.1667" style="stroke:#2FA4E7;stroke-width:1.0416666666666667;" width="69.7917" x="692.1875" y="1384.4828"/><text fill="#FFFFFF" font-family="Verdana" font-size="12.5" lengthAdjust="spacing" textLength="44.7917" x="704.6875" y="1409.55">Service</text><rect fill="url(#gibbcg95zf14k0)" height="40.1917" rx="4.1667" ry="4.1667" style="stroke:#2FA4E7;stroke-width:1.0416666666666667;" width="89.5833" x="981.25" y="10.4167"/><text fill="#FFFFFF" font-family="Verdana" font-size="12.5" lengthAdjust="spacing" textLength="64.5833" x="993.75" y="35.4838">Repository</text><rect fill="url(#gibbcg95zf14k0)" height="40.1917" rx="4.1667" ry="4.1667" style="stroke:#2FA4E7;stroke-width:1.0416666666666667;" width="89.5833" x="981.25" y="1384.4828"/><text fill="#FFFFFF" font-family="Verdana" font-size="12.5" lengthAdjust="spacing" textLength="64.5833" x="993.75" y="1409.55">Repository</text><rect fill="url(#gibbcg95zf14k0)" height="40.1917" rx="4.1667" ry="4.1667" style="stroke:#2FA4E7;stroke-width:1.0416666666666667;" width="53.125" x="1164.5833" y="10.4167"/><text fill="#FFFFFF" font-family="Verdana" font-size="12.5" lengthAdjust="spacing" textLength="28.125" x="1177.0833" y="35.4838">User</text><rect fill="url(#gibbcg95zf14k0)" height="40.1917" rx="4.1667" ry="4.1667" style="stroke:#2FA4E7;stroke-width:1.0416666666666667;" width="53.125" x="1164.5833" y="1384.4828"/><text fill="#FFFFFF" font-family="Verdana" font-size="12.5" lengthAdjust="spacing" textLength="28.125" x="1177.0833" y="1409.55">User</text><rect fill="url(#gibbcg95zf14k0)" height="40.1917" rx="4.1667" ry="4.1667" style="stroke:#2FA4E7;stroke-width:1.0416666666666667;" width="140.625" x="1311.4583" y="10.4167"/><text fill="#FFFFFF" font-family="Verdana" font-size="12.5" lengthAdjust="spacing" textLength="115.625" x="1323.9583" y="35.4838">IPasswordManager</text><rect fill="url(#gibbcg95zf14k0)" height="40.1917" rx="4.1667" ry="4.1667" style="stroke:#2FA4E7;stroke-width:1.0416666666666667;" width="140.625" x="1311.4583" y="1384.4828"/><text fill="#FFFFFF" font-family="Verdana" font-size="12.5" lengthAdjust="spacing" textLength="115.625" x="1323.9583" y="1409.55">IPasswordManager</text><rect fill="url(#gibbcg95zf14k0)" height="40.1917" rx="4.1667" ry="4.1667" style="stroke:#2FA4E7;stroke-width:1.0416666666666667;" width="115.625" x="1545.8333" y="10.4167"/><text fill="#FFFFFF" font-family="Verdana" font-size="12.5" lengthAdjust="spacing" textLength="90.625" x="1558.3333" y="35.4838">TokenManager</text><rect fill="url(#gibbcg95zf14k0)" height="40.1917" rx="4.1667" ry="4.1667" style="stroke:#2FA4E7;stroke-width:1.0416666666666667;" width="115.625" x="1545.8333" y="1384.4828"/><text fill="#FFFFFF" font-family="Verdana" font-size="12.5" lengthAdjust="spacing" textLength="90.625" x="1558.3333" y="1409.55">TokenManager</text><rect fill="url(#gibbcg95zf14k0)" height="40.1917" rx="4.1667" ry="4.1667" style="stroke:#2FA4E7;stroke-width:1.0416666666666667;" width="142.7083" x="1755.2083" y="10.4167"/><text fill="#FFFFFF" font-family="Verdana" font-size="12.5" lengthAdjust="spacing" textLength="117.7083" x="1767.7083" y="35.4838">RefreshTokenStore</text><rect fill="url(#gibbcg95zf14k0)" height="40.1917" rx="4.1667" ry="4.1667" style="stroke:#2FA4E7;stroke-width:1.0416666666666667;" width="142.7083" x="1755.2083" y="1384.4828"/><text fill="#FFFFFF" font-family="Verdana" font-size="12.5" lengthAdjust="spacing" textLength="117.7083" x="1767.7083" y="1409.55">RefreshTokenStore</text><rect fill="#EDF0F2" height="1192.4662" style="stroke:#BABDBF;stroke-width:1.0416666666666667;" width="10.4167" x="401.0417" y="134.1166"/><rect fill="#EDF0F2" height="1058.3496" style="stroke:#BABDBF;stroke-width:1.0416666666666667;" width="10.4167" x="721.875" y="228.0416"/><rect fill="#EDF0F2" height="31.25" style="stroke:#BABDBF;stroke-width:1.0416666666666667;" width="10.4167" x="1020.8333" y="268.2332"/><rect fill="#EDF0F2" height="31.25" style="stroke:#BABDBF;stroke-width:1.0416666666666667;" width="10.4167" x="1020.8333" y="384.6415"/><rect fill="#EDF0F2" height="31.25" style="stroke:#BABDBF;stroke-width:1.0416666666666667;" width="10.4167" x="1185.9375" y="642.4581"/><rect fill="#EDF0F2" height="31.25" style="stroke:#BABDBF;stroke-width:1.0416666666666667;" width="10.4167" x="1376.5625" y="892.983"/><rect fill="#EDF0F2" height="31.25" style="stroke:#BABDBF;stroke-width:1.0416666666666667;" width="10.4167" x="1598.4375" y="1143.5079"/><rect fill="#EDF0F2" height="31.25" style="stroke:#BABDBF;stroke-width:1.0416666666666667;" width="10.4167" x="1821.3542" y="1214.9495"/><polygon fill="#2FA4E7" points="211.4583,89.7583,221.875,93.925,211.4583,98.0916,215.625,93.925" style="stroke:#2FA4E7;stroke-width:1.0416666666666667;"/><line style="stroke:#2FA4E7;stroke-width:3.125;stroke-dasharray:2.0,2.0;" x1="10.4167" x2="217.7083" y1="93.925" y2="93.925"/><text fill="#343A40" font-family="Verdana" font-size="12.5" lengthAdjust="spacing" textLength="101.0417" x="22.9167" y="84.0088">POST /api/signin</text><polygon fill="#2FA4E7" points="388.5417,129.95,398.9583,134.1166,388.5417,138.2833,392.7083,134.1166" style="stroke:#2FA4E7;stroke-width:1.0416666666666667;"/><line style="stroke:#2FA4E7;stroke-width:3.125;" x1="223.9583" x2="394.7917" y1="134.1166" y2="134.1166"/><text fill="#343A40" font-family="Verdana" font-size="12.5" lengthAdjust="spacing" textLength="95.8333" x="236.4583" y="124.2004">signIn(request)</text><line style="stroke:#2FA4E7;stroke-width:3.125;" x1="411.4583" x2="455.2083" y1="174.3083" y2="174.3083"/><line style="stroke:#2FA4E7;stroke-width:3.125;" x1="455.2083" x2="455.2083" y1="174.3083" y2="187.8499"/><line style="stroke:#2FA4E7;stroke-width:3.125;" x1="412.5" x2="455.2083" y1="187.8499" y2="187.8499"/><polygon fill="#2FA4E7" points="422.9167,183.6833,412.5,187.8499,422.9167,192.0166,418.75,187.8499" style="stroke:#2FA4E7;stroke-width:1.0416666666666667;"/><text fill="#343A40" font-family="Verdana" font-size="12.5" lengthAdjust="spacing" textLength="285.4167" x="423.9583" y="164.3921">{email, username, password} = request.body</text><polygon fill="#2FA4E7" points="709.375,223.8749,719.7917,228.0416,709.375,232.2083,713.5417,228.0416" style="stroke:#2FA4E7;stroke-width:1.0416666666666667;"/><line style="stroke:#2FA4E7;stroke-width:3.125;" x1="411.4583" x2="715.625" y1="228.0416" y2="228.0416"/><text fill="#343A40" font-family="Verdana" font-size="12.5" lengthAdjust="spacing" textLength="218.75" x="423.9583" y="218.1254">signIn(password, email, username)</text><polygon fill="#2FA4E7" points="1008.3333,264.0666,1018.75,268.2332,1008.3333,272.3999,1012.5,268.2332" style="stroke:#2FA4E7;stroke-width:1.0416666666666667;"/><line style="stroke:#2FA4E7;stroke-width:3.125;" x1="732.2917" x2="1014.5833" y1="268.2332" y2="268.2332"/><text fill="#343A40" font-family="Verdana" font-size="12.5" lengthAdjust="spacing" textLength="258.3333" x="744.7917" y="258.3171">user = getUserByEmail(email, username)</text><path d="M17.7083,315.1082 L88.5417,315.1082 L88.5417,332.3832 L78.125,342.7999 L13.5417,342.7999 L13.5417,319.2749 A4.1667,4.1667 0 0 1 17.7083,315.1082 " fill="#E9ECEF" style="stroke:#868E96;stroke-width:1.0416666666666667;"/><rect fill="none" height="288.1999" rx="4.1667" ry="4.1667" style="stroke:#59B6EC;stroke-width:1.0416666666666667;" width="1109.375" x="13.5417" y="315.1082"/><text fill="#033C73" font-family="Verdana" font-size="12.5" font-weight="bold" lengthAdjust="spacing" textLength="17.7083" x="34.375" y="333.9254">alt</text><text fill="#343A40" font-family="Verdana" font-size="12.5" font-weight="bold" lengthAdjust="spacing" textLength="117.7083" x="109.375" y="334.967">[user not found]</text><polygon fill="#2FA4E7" points="1008.3333,380.4749,1018.75,384.6415,1008.3333,388.8082,1012.5,384.6415" style="stroke:#2FA4E7;stroke-width:1.0416666666666667;"/><line style="stroke:#2FA4E7;stroke-width:3.125;stroke-dasharray:2.0,2.0;" x1="732.2917" x2="1014.5833" y1="384.6415" y2="384.6415"/><text fill="#343A40" font-family="Verdana" font-size="12.5" lengthAdjust="spacing" textLength="245.8333" x="744.7917" y="374.7253">user = getUserByUsername(username)</text><path d="M17.7083,431.5165 L88.5417,431.5165 L88.5417,448.7915 L78.125,459.2082 L13.5417,459.2082 L13.5417,435.6832 A4.1667,4.1667 0 0 1 17.7083,431.5165 " fill="#E9ECEF" style="stroke:#868E96;stroke-width:1.0416666666666667;"/><rect fill="none" height="118.0583" rx="4.1667" ry="4.1667" style="stroke:#59B6EC;stroke-width:1.0416666666666667;" width="800.5208" x="13.5417" y="431.5165"/><text fill="#033C73" font-family="Verdana" font-size="12.5" font-weight="bold" lengthAdjust="spacing" textLength="17.7083" x="34.375" y="450.3337">alt</text><text fill="#343A40" font-family="Verdana" font-size="12.5" font-weight="bold" lengthAdjust="spacing" textLength="117.7083" x="109.375" y="451.3753">[user not found]</text><polygon fill="#2FA4E7" points="235.4167,496.8831,225,501.0498,235.4167,505.2165,231.25,501.0498" style="stroke:#2FA4E7;stroke-width:1.0416666666666667;"/><line style="stroke:#2FA4E7;stroke-width:3.125;stroke-dasharray:2.0,2.0;" x1="229.1667" x2="720.8333" y1="501.0498" y2="501.0498"/><text fill="#343A40" font-family="Verdana" font-size="12.5" lengthAdjust="spacing" textLength="144.7917" x="246.875" y="491.1336">throw BadRequestError</text><polygon fill="#2FA4E7" points="21.875,537.0748,11.4583,541.2415,21.875,545.4081,17.7083,541.2415" style="stroke:#2FA4E7;stroke-width:1.0416666666666667;"/><line style="stroke:#2FA4E7;stroke-width:3.125;stroke-dasharray:2.0,2.0;" x1="15.625" x2="222.9167" y1="541.2415" y2="541.2415"/><text fill="#343A40" font-family="Verdana" font-size="12.5" lengthAdjust="spacing" textLength="133.3333" x="33.3333" y="531.3253">400 BadRequestError</text><path d="M416.6667,566.2415 L416.6667,593.3248 A4.1667,4.1667 0 0 0 420.8333,597.4915 L565.625,597.4915 A4.1667,4.1667 0 0 0 569.7917,593.3248 L569.7917,572.4915 L559.375,562.0748 L420.8333,562.0748 A4.1667,4.1667 0 0 0 416.6667,566.2415 " fill="url(#gibbcg95zf14k1)" style="stroke:#033C73;stroke-width:1.0416666666666667;"/><path d="M559.375,562.0748 L559.375,570.4081 A2.0833,2.0833 0 0 0 561.4583,572.4915 L569.7917,572.4915 L559.375,562.0748 " fill="url(#gibbcg95zf14k1)" style="stroke:#033C73;stroke-width:1.0416666666666667;"/><text fill="#FFFFFF" font-family="Verdana" font-size="12.5" lengthAdjust="spacing" textLength="120.8333" x="428.125" y="585.0586">Finish the workflow</text><polygon fill="#2FA4E7" points="1173.4375,638.2914,1183.8542,642.4581,1173.4375,646.6248,1177.6042,642.4581" style="stroke:#2FA4E7;stroke-width:1.0416666666666667;"/><line style="stroke:#2FA4E7;stroke-width:3.125;" x1="732.2917" x2="1179.6875" y1="642.4581" y2="642.4581"/><text fill="#343A40" font-family="Verdana" font-size="12.5" lengthAdjust="spacing" textLength="88.5417" x="744.7917" y="632.5419">user.isActive()</text><path d="M17.7083,689.3331 L88.5417,689.3331 L88.5417,706.6081 L78.125,717.0247 L13.5417,717.0247 L13.5417,693.4998 A4.1667,4.1667 0 0 1 17.7083,689.3331 " fill="#E9ECEF" style="stroke:#868E96;stroke-width:1.0416666666666667;"/><rect fill="none" height="164.4999" rx="4.1667" ry="4.1667" style="stroke:#59B6EC;stroke-width:1.0416666666666667;" width="800.5208" x="13.5417" y="689.3331"/><text fill="#033C73" font-family="Verdana" font-size="12.5" font-weight="bold" lengthAdjust="spacing" textLength="17.7083" x="34.375" y="708.1502">alt</text><text fill="#343A40" font-family="Verdana" font-size="12.5" font-weight="bold" lengthAdjust="spacing" textLength="134.375" x="109.375" y="709.1919">[user is not active]</text><polygon fill="#2FA4E7" points="235.4167,754.6997,225,758.8664,235.4167,763.033,231.25,758.8664" style="stroke:#2FA4E7;stroke-width:1.0416666666666667;"/><line style="stroke:#2FA4E7;stroke-width:3.125;stroke-dasharray:2.0,2.0;" x1="229.1667" x2="720.8333" y1="758.8664" y2="758.8664"/><text fill="#343A40" font-family="Verdana" font-size="12.5" lengthAdjust="spacing" textLength="144.7917" x="246.875" y="748.9502">throw BadRequestError</text><path d="M416.6667,776.5747 L416.6667,803.658 A4.1667,4.1667 0 0 0 420.8333,807.8247 L565.625,807.8247 A4.1667,4.1667 0 0 0 569.7917,803.658 L569.7917,782.8247 L559.375,772.408 L420.8333,772.408 A4.1667,4.1667 0 0 0 416.6667,776.5747 " fill="url(#gibbcg95zf14k1)" style="stroke:#033C73;stroke-width:1.0416666666666667;"/><path d="M559.375,772.408 L559.375,780.7414 A2.0833,2.0833 0 0 0 561.4583,782.8247 L569.7917,782.8247 L559.375,772.408 " fill="url(#gibbcg95zf14k1)" style="stroke:#033C73;stroke-width:1.0416666666666667;"/><text fill="#FFFFFF" font-family="Verdana" font-size="12.5" lengthAdjust="spacing" textLength="120.8333" x="428.125" y="795.3918">Finish the workflow</text><polygon fill="#2FA4E7" points="21.875,841.333,11.4583,845.4997,21.875,849.6663,17.7083,845.4997" style="stroke:#2FA4E7;stroke-width:1.0416666666666667;"/><line style="stroke:#2FA4E7;stroke-width:3.125;stroke-dasharray:2.0,2.0;" x1="15.625" x2="222.9167" y1="845.4997" y2="845.4997"/><text fill="#343A40" font-family="Verdana" font-size="12.5" lengthAdjust="spacing" textLength="133.3333" x="33.3333" y="835.5835">400 BadRequestError</text><polygon fill="#2FA4E7" points="1364.0625,888.8163,1374.4792,892.983,1364.0625,897.1497,1368.2292,892.983" style="stroke:#2FA4E7;stroke-width:1.0416666666666667;"/><line style="stroke:#2FA4E7;stroke-width:3.125;" x1="732.2917" x2="1370.3125" y1="892.983" y2="892.983"/><text fill="#343A40" font-family="Verdana" font-size="12.5" lengthAdjust="spacing" textLength="375" x="744.7917" y="883.0668">isPasswordValid = isPasswordValid(password, user.password)</text><path d="M17.7083,939.858 L88.5417,939.858 L88.5417,957.133 L78.125,967.5496 L13.5417,967.5496 L13.5417,944.0247 A4.1667,4.1667 0 0 1 17.7083,939.858 " fill="#E9ECEF" style="stroke:#868E96;stroke-width:1.0416666666666667;"/><rect fill="none" height="164.4999" rx="4.1667" ry="4.1667" style="stroke:#59B6EC;stroke-width:1.0416666666666667;" width="800.5208" x="13.5417" y="939.858"/><text fill="#033C73" font-family="Verdana" font-size="12.5" font-weight="bold" lengthAdjust="spacing" textLength="17.7083" x="34.375" y="958.6751">alt</text><text fill="#343A40" font-family="Verdana" font-size="12.5" font-weight="bold" lengthAdjust="spacing" textLength="161.4583" x="109.375" y="959.7168">[password is not valid]</text><polygon fill="#2FA4E7" points="235.4167,1005.2246,225,1009.3913,235.4167,1013.5579,231.25,1009.3913" style="stroke:#2FA4E7;stroke-width:1.0416666666666667;"/><line style="stroke:#2FA4E7;stroke-width:3.125;stroke-dasharray:2.0,2.0;" x1="229.1667" x2="720.8333" y1="1009.3913" y2="1009.3913"/><text fill="#343A40" font-family="Verdana" font-size="12.5" lengthAdjust="spacing" textLength="144.7917" x="246.875" y="999.4751">throw BadRequestError</text><path d="M416.6667,1027.0996 L416.6667,1054.1829 A4.1667,4.1667 0 0 0 420.8333,1058.3496 L565.625,1058.3496 A4.1667,4.1667 0 0 0 569.7917,1054.1829 L569.7917,1033.3496 L559.375,1022.9329 L420.8333,1022.9329 A4.1667,4.1667 0 0 0 416.6667,1027.0996 " fill="url(#gibbcg95zf14k1)" style="stroke:#033C73;stroke-width:1.0416666666666667;"/><path d="M559.375,1022.9329 L559.375,1031.2663 A2.0833,2.0833 0 0 0 561.4583,1033.3496 L569.7917,1033.3496 L559.375,1022.9329 " fill="url(#gibbcg95zf14k1)" style="stroke:#033C73;stroke-width:1.0416666666666667;"/><text fill="#FFFFFF" font-family="Verdana" font-size="12.5" lengthAdjust="spacing" textLength="120.8333" x="428.125" y="1045.9167">Finish the workflow</text><polygon fill="#2FA4E7" points="21.875,1091.8579,11.4583,1096.0246,21.875,1100.1912,17.7083,1096.0246" style="stroke:#2FA4E7;stroke-width:1.0416666666666667;"/><line style="stroke:#2FA4E7;stroke-width:3.125;stroke-dasharray:2.0,2.0;" x1="15.625" x2="222.9167" y1="1096.0246" y2="1096.0246"/><text fill="#343A40" font-family="Verdana" font-size="12.5" lengthAdjust="spacing" textLength="133.3333" x="33.3333" y="1086.1084">400 BadRequestError</text><polygon fill="#2FA4E7" points="1585.9375,1139.3412,1596.3542,1143.5079,1585.9375,1147.6746,1590.1042,1143.5079" style="stroke:#2FA4E7;stroke-width:1.0416666666666667;"/><line style="stroke:#2FA4E7;stroke-width:3.125;" x1="732.2917" x2="1592.1875" y1="1143.5079" y2="1143.5079"/><text fill="#343A40" font-family="Verdana" font-size="12.5" lengthAdjust="spacing" textLength="570.8333" x="744.7917" y="1133.5917">tokens = tokenManager.sign({user.id, user.email, user.username, user.role, user.isActive})</text><polygon fill="#2FA4E7" points="1808.8542,1210.7829,1819.2708,1214.9495,1808.8542,1219.1162,1813.0208,1214.9495" style="stroke:#2FA4E7;stroke-width:1.0416666666666667;"/><line style="stroke:#2FA4E7;stroke-width:3.125;" x1="732.2917" x2="1815.1042" y1="1214.9495" y2="1214.9495"/><text fill="#343A40" font-family="Verdana" font-size="12.5" lengthAdjust="spacing" textLength="368.75" x="744.7917" y="1205.0334">refreshTokenStore.saveRefreshToken(tokens.refreshToken)</text><polygon fill="#2FA4E7" points="422.9167,1282.2245,412.5,1286.3912,422.9167,1290.5579,418.75,1286.3912" style="stroke:#2FA4E7;stroke-width:1.0416666666666667;"/><line style="stroke:#2FA4E7;stroke-width:3.125;" x1="416.6667" x2="726.0417" y1="1286.3912" y2="1286.3912"/><text fill="#343A40" font-family="Verdana" font-size="12.5" lengthAdjust="spacing" textLength="141.6667" x="434.375" y="1276.475">{token, refreshToken}</text><polygon fill="#2FA4E7" points="235.4167,1322.4162,225,1326.5828,235.4167,1330.7495,231.25,1326.5828" style="stroke:#2FA4E7;stroke-width:1.0416666666666667;"/><line style="stroke:#2FA4E7;stroke-width:3.125;" x1="229.1667" x2="405.2083" y1="1326.5828" y2="1326.5828"/><text fill="#343A40" font-family="Verdana" font-size="12.5" lengthAdjust="spacing" textLength="141.6667" x="246.875" y="1316.6667">{token, refreshToken}</text><polygon fill="#2FA4E7" points="21.875,1362.6078,11.4583,1366.7745,21.875,1370.9412,17.7083,1366.7745" style="stroke:#2FA4E7;stroke-width:1.0416666666666667;"/><line style="stroke:#2FA4E7;stroke-width:3.125;stroke-dasharray:2.0,2.0;" x1="15.625" x2="222.9167" y1="1366.7745" y2="1366.7745"/><text fill="#343A40" font-family="Verdana" font-size="12.5" lengthAdjust="spacing" textLength="170.8333" x="33.3333" y="1356.8583">200 {token, refreshToken}</text><!--SRC=[pLHDRzim3BthLt0zUK3Y5iDEnZQWBJeWXs51q-wknKmir94yIKaG5FdlasJ9eRmKHT7BSeX5wl7hKUG7s-06OObwsoANhEFQYgNekBHmSJsVNG0tuBxvnQsILgksHHtkRwrkSy02zKuiCTp6SmwunquPOPK-18mNSy2ZYSxz8R-QpRanUwNh7rpoTOHvNPHpz8DwGacHL35EQgNHD06mSBbXp6saPOnDfzyyAnNCVouUu99tujA8jHIIEIsuIqz91LutauN6FriqzYFZIojst6BFcFyxOPznmqKxWQshL_8DJg2BPHxXAqGNvMzL7mR3oEmG9nbCOEIBH4xTY5_lnfDV1QmBj4Rh6Ryvt7aNnSkEGijgp6NUsjwHL1PMQYjh1kut17inscCCK9mYUSFSkzUC8mRK-QZZoA5Xjj5g3pUylkyPlTDQwG4-7BvCfpt-yzNLMJJ682uaWXRhne9QzNrDFhuBAKpZ8YAuhZojMhLFfi6CUH-q4Pw4dffIc6jV9XQ4yJ09fFuW3xKB4yeFjyZUMFjxgdYLhd6PP5GhbtQQvb-y5RLx4oCDUTM1cIGIOkZi4twesjEKB1DLE-_-lsQAhYgNb9UCOyWITUbdltZk7qtYY4njUTedGNHhEntJ6piIAhFbIBZCzFdo66t7oksgaQeqV8SKMFIbb1IPhPRnnisc_fzrJDA9kpJudsIP7AcJj0NJ9WqTUTKgT3is42huv3futeRz1G00]--></g></svg>