<?xml version="1.0" encoding="us-ascii" standalone="no"?><svg xmlns="http://www.w3.org/2000/svg" xmlns:xlink="http://www.w3.org/1999/xlink" contentStyleType="text/css" height="1937.5px" preserveAspectRatio="none" style="width:2033px;height:1937px;" version="1.1" viewBox="0 0 2033 1937" width="2033.3333px" zoomAndPan="magnify"><defs><linearGradient id="gnzw9jw226d4e0" x1="50%" x2="50%" y1="0%" y2="100%"><stop offset="0%" stop-color="#59B6EC"/><stop offset="100%" stop-color="#2FA4E7"/></linearGradient><linearGradient id="gnzw9jw226d4e1" x1="50%" x2="50%" y1="0%" y2="100%"><stop offset="0%" stop-color="#35638F"/><stop offset="100%" stop-color="#033C73"/></linearGradient></defs><g><rect fill="#EDF0F2" height="1694.6411" style="stroke:#BABDBF;stroke-width:1.0416666666666667;" width="10.4167" x="406.25" y="134.1166"/><rect fill="#EDF0F2" height="31.25" style="stroke:#BABDBF;stroke-width:1.0416666666666667;" width="10.4167" x="615.625" y="174.3083"/><rect fill="#EDF0F2" height="1542.8162" style="stroke:#BABDBF;stroke-width:1.0416666666666667;" width="10.4167" x="781.7708" y="245.7499"/><rect fill="#EDF0F2" height="31.25" style="stroke:#BABDBF;stroke-width:1.0416666666666667;" width="10.4167" x="1145.3125" y="285.9416"/><rect fill="#EDF0F2" height="31.25" style="stroke:#BABDBF;stroke-width:1.0416666666666667;" width="10.4167" x="1145.3125" y="1051.6663"/><rect fill="#EDF0F2" height="31.25" style="stroke:#BABDBF;stroke-width:1.0416666666666667;" width="10.4167" x="1145.3125" y="1502.7995"/><rect fill="#EDF0F2" height="31.25" style="stroke:#BABDBF;stroke-width:1.0416666666666667;" width="10.4167" x="1338.0208" y="607.9081"/><rect fill="#EDF0F2" height="31.25" style="stroke:#BABDBF;stroke-width:1.0416666666666667;" width="10.4167" x="1338.0208" y="980.2246"/><rect fill="#EDF0F2" height="31.25" style="stroke:#BABDBF;stroke-width:1.0416666666666667;" width="10.4167" x="1338.0208" y="1431.3578"/><rect fill="#EDF0F2" height="31.25" style="stroke:#BABDBF;stroke-width:1.0416666666666667;" width="10.4167" x="1528.6458" y="536.4665"/><rect fill="#EDF0F2" height="31.25" style="stroke:#BABDBF;stroke-width:1.0416666666666667;" width="10.4167" x="1727.6042" y="1123.1079"/><rect fill="#EDF0F2" height="31.25" style="stroke:#BABDBF;stroke-width:1.0416666666666667;" width="10.4167" x="1727.6042" y="1265.9912"/><rect fill="#EDF0F2" height="31.25" style="stroke:#BABDBF;stroke-width:1.0416666666666667;" width="10.4167" x="1727.6042" y="1574.2411"/><rect fill="#EDF0F2" height="31.25" style="stroke:#BABDBF;stroke-width:1.0416666666666667;" width="10.4167" x="1727.6042" y="1717.1244"/><rect fill="#EDF0F2" height="31.25" style="stroke:#BABDBF;stroke-width:1.0416666666666667;" width="10.4167" x="1910.4167" y="1194.5496"/><rect fill="#EDF0F2" height="31.25" style="stroke:#BABDBF;stroke-width:1.0416666666666667;" width="10.4167" x="1910.4167" y="1645.6828"/><rect fill="none" height="164.4999" rx="4.1667" ry="4.1667" style="stroke:#59B6EC;stroke-width:1.0416666666666667;" width="860.4167" x="13.5417" y="332.8166"/><rect fill="none" height="164.4999" rx="4.1667" ry="4.1667" style="stroke:#59B6EC;stroke-width:1.0416666666666667;" width="860.4167" x="13.5417" y="654.7831"/><rect fill="none" height="558.3415" rx="4.1667" ry="4.1667" style="stroke:#59B6EC;stroke-width:1.0416666666666667;" width="1705.2083" x="316.6667" y="833.8664"/><line style="stroke:#BABDBF;stroke-width:1.0416666666666667;stroke-dasharray:5.0,5.0;" x1="252.0833" x2="252.0833" y1="51.65" y2="1887.6994"/><line style="stroke:#BABDBF;stroke-width:1.0416666666666667;stroke-dasharray:5.0,5.0;" x1="411.4583" x2="411.4583" y1="51.65" y2="1887.6994"/><line style="stroke:#BABDBF;stroke-width:1.0416666666666667;stroke-dasharray:5.0,5.0;" x1="620.8333" x2="620.8333" y1="51.65" y2="1887.6994"/><line style="stroke:#BABDBF;stroke-width:1.0416666666666667;stroke-dasharray:5.0,5.0;" x1="786.4583" x2="786.4583" y1="51.65" y2="1887.6994"/><line style="stroke:#BABDBF;stroke-width:1.0416666666666667;stroke-dasharray:5.0,5.0;" x1="1150.5208" x2="1150.5208" y1="51.65" y2="1887.6994"/><line style="stroke:#BABDBF;stroke-width:1.0416666666666667;stroke-dasharray:5.0,5.0;" x1="1342.7083" x2="1342.7083" y1="51.65" y2="1887.6994"/><line style="stroke:#BABDBF;stroke-width:1.0416666666666667;stroke-dasharray:5.0,5.0;" x1="1533.3333" x2="1533.3333" y1="51.65" y2="1887.6994"/><line style="stroke:#BABDBF;stroke-width:1.0416666666666667;stroke-dasharray:5.0,5.0;" x1="1732.2917" x2="1732.2917" y1="51.65" y2="1887.6994"/><line style="stroke:#BABDBF;stroke-width:1.0416666666666667;stroke-dasharray:5.0,5.0;" x1="1915.625" x2="1915.625" y1="51.65" y2="1887.6994"/><rect fill="url(#gnzw9jw226d4e0)" height="40.1917" rx="4.1667" ry="4.1667" style="stroke:#2FA4E7;stroke-width:1.0416666666666667;" width="45.8333" x="229.1667" y="10.4167"/><text fill="#FFFFFF" font-family="Verdana" font-size="12.5" lengthAdjust="spacing" textLength="20.8333" x="241.6667" y="35.4838">API</text><rect fill="url(#gnzw9jw226d4e0)" height="40.1917" rx="4.1667" ry="4.1667" style="stroke:#2FA4E7;stroke-width:1.0416666666666667;" width="45.8333" x="229.1667" y="1886.6577"/><text fill="#FFFFFF" font-family="Verdana" font-size="12.5" lengthAdjust="spacing" textLength="20.8333" x="241.6667" y="1911.7249">API</text><rect fill="url(#gnzw9jw226d4e0)" height="40.1917" rx="4.1667" ry="4.1667" style="stroke:#2FA4E7;stroke-width:1.0416666666666667;" width="85.4167" x="368.75" y="10.4167"/><text fill="#FFFFFF" font-family="Verdana" font-size="12.5" lengthAdjust="spacing" textLength="60.4167" x="381.25" y="35.4838">Controller</text><rect fill="url(#gnzw9jw226d4e0)" height="40.1917" rx="4.1667" ry="4.1667" style="stroke:#2FA4E7;stroke-width:1.0416666666666667;" width="85.4167" x="368.75" y="1886.6577"/><text fill="#FFFFFF" font-family="Verdana" font-size="12.5" lengthAdjust="spacing" textLength="60.4167" x="381.25" y="1911.7249">Controller</text><rect fill="url(#gnzw9jw226d4e0)" height="40.1917" rx="4.1667" ry="4.1667" style="stroke:#2FA4E7;stroke-width:1.0416666666666667;" width="75" x="583.3333" y="10.4167"/><text fill="#FFFFFF" font-family="Verdana" font-size="12.5" lengthAdjust="spacing" textLength="50" x="595.8333" y="35.4838">UserDto</text><rect fill="url(#gnzw9jw226d4e0)" height="40.1917" rx="4.1667" ry="4.1667" style="stroke:#2FA4E7;stroke-width:1.0416666666666667;" width="75" x="583.3333" y="1886.6577"/><text fill="#FFFFFF" font-family="Verdana" font-size="12.5" lengthAdjust="spacing" textLength="50" x="595.8333" y="1911.7249">UserDto</text><rect fill="url(#gnzw9jw226d4e0)" height="40.1917" rx="4.1667" ry="4.1667" style="stroke:#2FA4E7;stroke-width:1.0416666666666667;" width="69.7917" x="752.0833" y="10.4167"/><text fill="#FFFFFF" font-family="Verdana" font-size="12.5" lengthAdjust="spacing" textLength="44.7917" x="764.5833" y="35.4838">Service</text><rect fill="url(#gnzw9jw226d4e0)" height="40.1917" rx="4.1667" ry="4.1667" style="stroke:#2FA4E7;stroke-width:1.0416666666666667;" width="69.7917" x="752.0833" y="1886.6577"/><text fill="#FFFFFF" font-family="Verdana" font-size="12.5" lengthAdjust="spacing" textLength="44.7917" x="764.5833" y="1911.7249">Service</text><rect fill="url(#gnzw9jw226d4e0)" height="40.1917" rx="4.1667" ry="4.1667" style="stroke:#2FA4E7;stroke-width:1.0416666666666667;" width="89.5833" x="1105.7292" y="10.4167"/><text fill="#FFFFFF" font-family="Verdana" font-size="12.5" lengthAdjust="spacing" textLength="64.5833" x="1118.2292" y="35.4838">Repository</text><rect fill="url(#gnzw9jw226d4e0)" height="40.1917" rx="4.1667" ry="4.1667" style="stroke:#2FA4E7;stroke-width:1.0416666666666667;" width="89.5833" x="1105.7292" y="1886.6577"/><text fill="#FFFFFF" font-family="Verdana" font-size="12.5" lengthAdjust="spacing" textLength="64.5833" x="1118.2292" y="1911.7249">Repository</text><rect fill="url(#gnzw9jw226d4e0)" height="40.1917" rx="4.1667" ry="4.1667" style="stroke:#2FA4E7;stroke-width:1.0416666666666667;" width="53.125" x="1316.6667" y="10.4167"/><text fill="#FFFFFF" font-family="Verdana" font-size="12.5" lengthAdjust="spacing" textLength="28.125" x="1329.1667" y="35.4838">User</text><rect fill="url(#gnzw9jw226d4e0)" height="40.1917" rx="4.1667" ry="4.1667" style="stroke:#2FA4E7;stroke-width:1.0416666666666667;" width="53.125" x="1316.6667" y="1886.6577"/><text fill="#FFFFFF" font-family="Verdana" font-size="12.5" lengthAdjust="spacing" textLength="28.125" x="1329.1667" y="1911.7249">User</text><rect fill="url(#gnzw9jw226d4e0)" height="40.1917" rx="4.1667" ry="4.1667" style="stroke:#2FA4E7;stroke-width:1.0416666666666667;" width="140.625" x="1463.5417" y="10.4167"/><text fill="#FFFFFF" font-family="Verdana" font-size="12.5" lengthAdjust="spacing" textLength="115.625" x="1476.0417" y="35.4838">IPasswordManager</text><rect fill="url(#gnzw9jw226d4e0)" height="40.1917" rx="4.1667" ry="4.1667" style="stroke:#2FA4E7;stroke-width:1.0416666666666667;" width="140.625" x="1463.5417" y="1886.6577"/><text fill="#FFFFFF" font-family="Verdana" font-size="12.5" lengthAdjust="spacing" textLength="115.625" x="1476.0417" y="1911.7249">IPasswordManager</text><rect fill="url(#gnzw9jw226d4e0)" height="40.1917" rx="4.1667" ry="4.1667" style="stroke:#2FA4E7;stroke-width:1.0416666666666667;" width="69.7917" x="1697.9167" y="10.4167"/><text fill="#FFFFFF" font-family="Verdana" font-size="12.5" lengthAdjust="spacing" textLength="44.7917" x="1710.4167" y="35.4838">Mapper</text><rect fill="url(#gnzw9jw226d4e0)" height="40.1917" rx="4.1667" ry="4.1667" style="stroke:#2FA4E7;stroke-width:1.0416666666666667;" width="69.7917" x="1697.9167" y="1886.6577"/><text fill="#FFFFFF" font-family="Verdana" font-size="12.5" lengthAdjust="spacing" textLength="44.7917" x="1710.4167" y="1911.7249">Mapper</text><rect fill="url(#gnzw9jw226d4e0)" height="40.1917" rx="4.1667" ry="4.1667" style="stroke:#2FA4E7;stroke-width:1.0416666666666667;" width="108.3333" x="1861.4583" y="10.4167"/><text fill="#FFFFFF" font-family="Verdana" font-size="12.5" lengthAdjust="spacing" textLength="83.3333" x="1873.9583" y="35.4838">EventEmitter</text><rect fill="url(#gnzw9jw226d4e0)" height="40.1917" rx="4.1667" ry="4.1667" style="stroke:#2FA4E7;stroke-width:1.0416666666666667;" width="108.3333" x="1861.4583" y="1886.6577"/><text fill="#FFFFFF" font-family="Verdana" font-size="12.5" lengthAdjust="spacing" textLength="83.3333" x="1873.9583" y="1911.7249">EventEmitter</text><rect fill="#EDF0F2" height="1694.6411" style="stroke:#BABDBF;stroke-width:1.0416666666666667;" width="10.4167" x="406.25" y="134.1166"/><rect fill="#EDF0F2" height="31.25" style="stroke:#BABDBF;stroke-width:1.0416666666666667;" width="10.4167" x="615.625" y="174.3083"/><rect fill="#EDF0F2" height="1542.8162" style="stroke:#BABDBF;stroke-width:1.0416666666666667;" width="10.4167" x="781.7708" y="245.7499"/><rect fill="#EDF0F2" height="31.25" style="stroke:#BABDBF;stroke-width:1.0416666666666667;" width="10.4167" x="1145.3125" y="285.9416"/><rect fill="#EDF0F2" height="31.25" style="stroke:#BABDBF;stroke-width:1.0416666666666667;" width="10.4167" x="1145.3125" y="1051.6663"/><rect fill="#EDF0F2" height="31.25" style="stroke:#BABDBF;stroke-width:1.0416666666666667;" width="10.4167" x="1145.3125" y="1502.7995"/><rect fill="#EDF0F2" height="31.25" style="stroke:#BABDBF;stroke-width:1.0416666666666667;" width="10.4167" x="1338.0208" y="607.9081"/><rect fill="#EDF0F2" height="31.25" style="stroke:#BABDBF;stroke-width:1.0416666666666667;" width="10.4167" x="1338.0208" y="980.2246"/><rect fill="#EDF0F2" height="31.25" style="stroke:#BABDBF;stroke-width:1.0416666666666667;" width="10.4167" x="1338.0208" y="1431.3578"/><rect fill="#EDF0F2" height="31.25" style="stroke:#BABDBF;stroke-width:1.0416666666666667;" width="10.4167" x="1528.6458" y="536.4665"/><rect fill="#EDF0F2" height="31.25" style="stroke:#BABDBF;stroke-width:1.0416666666666667;" width="10.4167" x="1727.6042" y="1123.1079"/><rect fill="#EDF0F2" height="31.25" style="stroke:#BABDBF;stroke-width:1.0416666666666667;" width="10.4167" x="1727.6042" y="1265.9912"/><rect fill="#EDF0F2" height="31.25" style="stroke:#BABDBF;stroke-width:1.0416666666666667;" width="10.4167" x="1727.6042" y="1574.2411"/><rect fill="#EDF0F2" height="31.25" style="stroke:#BABDBF;stroke-width:1.0416666666666667;" width="10.4167" x="1727.6042" y="1717.1244"/><rect fill="#EDF0F2" height="31.25" style="stroke:#BABDBF;stroke-width:1.0416666666666667;" width="10.4167" x="1910.4167" y="1194.5496"/><rect fill="#EDF0F2" height="31.25" style="stroke:#BABDBF;stroke-width:1.0416666666666667;" width="10.4167" x="1910.4167" y="1645.6828"/><polygon fill="#2FA4E7" points="239.5833,89.7583,250,93.925,239.5833,98.0916,243.75,93.925" style="stroke:#2FA4E7;stroke-width:1.0416666666666667;"/><line style="stroke:#2FA4E7;stroke-width:3.125;stroke-dasharray:2.0,2.0;" x1="10.4167" x2="245.8333" y1="93.925" y2="93.925"/><text fill="#343A40" font-family="Verdana" font-size="12.5" lengthAdjust="spacing" textLength="91.6667" x="22.9167" y="84.0088">POST /api/user</text><polygon fill="#2FA4E7" points="393.75,129.95,404.1667,134.1166,393.75,138.2833,397.9167,134.1166" style="stroke:#2FA4E7;stroke-width:1.0416666666666667;"/><line style="stroke:#2FA4E7;stroke-width:3.125;" x1="252.0833" x2="400" y1="134.1166" y2="134.1166"/><text fill="#343A40" font-family="Verdana" font-size="12.5" lengthAdjust="spacing" textLength="123.9583" x="264.5833" y="124.2004">createUser(request)</text><polygon fill="#2FA4E7" points="603.125,170.1416,613.5417,174.3083,603.125,178.4749,607.2917,174.3083" style="stroke:#2FA4E7;stroke-width:1.0416666666666667;"/><line style="stroke:#2FA4E7;stroke-width:3.125;" x1="416.6667" x2="609.375" y1="174.3083" y2="174.3083"/><text fill="#343A40" font-family="Verdana" font-size="12.5" lengthAdjust="spacing" textLength="168.75" x="429.1667" y="164.3921">convert request to UserDto</text><polygon fill="#2FA4E7" points="769.2708,241.5833,779.6875,245.7499,769.2708,249.9166,773.4375,245.7499" style="stroke:#2FA4E7;stroke-width:1.0416666666666667;"/><line style="stroke:#2FA4E7;stroke-width:3.125;" x1="416.6667" x2="775.5208" y1="245.7499" y2="245.7499"/><text fill="#343A40" font-family="Verdana" font-size="12.5" lengthAdjust="spacing" textLength="200" x="429.1667" y="235.8337">newUser = createUser(UserDto)</text><polygon fill="#2FA4E7" points="1132.8125,281.7749,1143.2292,285.9416,1132.8125,290.1082,1136.9792,285.9416" style="stroke:#2FA4E7;stroke-width:1.0416666666666667;"/><line style="stroke:#2FA4E7;stroke-width:3.125;" x1="792.1875" x2="1139.0625" y1="285.9416" y2="285.9416"/><text fill="#343A40" font-family="Verdana" font-size="12.5" lengthAdjust="spacing" textLength="322.9167" x="804.6875" y="276.0254">userAlreadyExists = getUserByEmail(userDto.email)</text><path d="M17.7083,332.8166 L88.5417,332.8166 L88.5417,350.0916 L78.125,360.5082 L13.5417,360.5082 L13.5417,336.9832 A4.1667,4.1667 0 0 1 17.7083,332.8166 " fill="#E9ECEF" style="stroke:#868E96;stroke-width:1.0416666666666667;"/><rect fill="none" height="164.4999" rx="4.1667" ry="4.1667" style="stroke:#59B6EC;stroke-width:1.0416666666666667;" width="860.4167" x="13.5417" y="332.8166"/><text fill="#033C73" font-family="Verdana" font-size="12.5" font-weight="bold" lengthAdjust="spacing" textLength="17.7083" x="34.375" y="351.6337">alt</text><text fill="#343A40" font-family="Verdana" font-size="12.5" font-weight="bold" lengthAdjust="spacing" textLength="257.2917" x="109.375" y="352.6754">[user exist and don't have googleId]</text><polygon fill="#2FA4E7" points="263.5417,398.1832,253.125,402.3499,263.5417,406.5165,259.375,402.3499" style="stroke:#2FA4E7;stroke-width:1.0416666666666667;"/><line style="stroke:#2FA4E7;stroke-width:3.125;stroke-dasharray:2.0,2.0;" x1="257.2917" x2="780.7292" y1="402.3499" y2="402.3499"/><text fill="#343A40" font-family="Verdana" font-size="12.5" lengthAdjust="spacing" textLength="210.4167" x="275" y="392.4337">throw UserAlreadyRegisteredError</text><path d="M421.875,420.0582 L421.875,447.1415 A4.1667,4.1667 0 0 0 426.0417,451.3082 L570.8333,451.3082 A4.1667,4.1667 0 0 0 575,447.1415 L575,426.3082 L564.5833,415.8915 L426.0417,415.8915 A4.1667,4.1667 0 0 0 421.875,420.0582 " fill="url(#gnzw9jw226d4e1)" style="stroke:#033C73;stroke-width:1.0416666666666667;"/><path d="M564.5833,415.8915 L564.5833,424.2249 A2.0833,2.0833 0 0 0 566.6667,426.3082 L575,426.3082 L564.5833,415.8915 " fill="url(#gnzw9jw226d4e1)" style="stroke:#033C73;stroke-width:1.0416666666666667;"/><text fill="#FFFFFF" font-family="Verdana" font-size="12.5" lengthAdjust="spacing" textLength="120.8333" x="433.3333" y="438.8753">Finish the workflow</text><polygon fill="#2FA4E7" points="21.875,484.8165,11.4583,488.9832,21.875,493.1498,17.7083,488.9832" style="stroke:#2FA4E7;stroke-width:1.0416666666666667;"/><line style="stroke:#2FA4E7;stroke-width:3.125;stroke-dasharray:2.0,2.0;" x1="15.625" x2="251.0417" y1="488.9832" y2="488.9832"/><text fill="#343A40" font-family="Verdana" font-size="12.5" lengthAdjust="spacing" textLength="198.9583" x="33.3333" y="479.067">403 UserAlreadyRegisteredError</text><polygon fill="#2FA4E7" points="1516.1458,532.2998,1526.5625,536.4665,1516.1458,540.6331,1520.3125,536.4665" style="stroke:#2FA4E7;stroke-width:1.0416666666666667;"/><line style="stroke:#2FA4E7;stroke-width:3.125;" x1="792.1875" x2="1522.3958" y1="536.4665" y2="536.4665"/><text fill="#343A40" font-family="Verdana" font-size="12.5" lengthAdjust="spacing" textLength="329.1667" x="804.6875" y="526.5503">hashedPassword = hashPassword(userDto.password)</text><polygon fill="#2FA4E7" points="1325.5208,603.7415,1335.9375,607.9081,1325.5208,612.0748,1329.6875,607.9081" style="stroke:#2FA4E7;stroke-width:1.0416666666666667;"/><line style="stroke:#2FA4E7;stroke-width:3.125;" x1="792.1875" x2="1331.7708" y1="607.9081" y2="607.9081"/><text fill="#343A40" font-family="Verdana" font-size="12.5" lengthAdjust="spacing" textLength="515.625" x="804.6875" y="597.9919">isPasswordValid = User.isPasswordValid(userDto.password, passwordRequirements)</text><path d="M17.7083,654.7831 L88.5417,654.7831 L88.5417,672.0581 L78.125,682.4748 L13.5417,682.4748 L13.5417,658.9498 A4.1667,4.1667 0 0 1 17.7083,654.7831 " fill="#E9ECEF" style="stroke:#868E96;stroke-width:1.0416666666666667;"/><rect fill="none" height="164.4999" rx="4.1667" ry="4.1667" style="stroke:#59B6EC;stroke-width:1.0416666666666667;" width="860.4167" x="13.5417" y="654.7831"/><text fill="#033C73" font-family="Verdana" font-size="12.5" font-weight="bold" lengthAdjust="spacing" textLength="17.7083" x="34.375" y="673.6003">alt</text><text fill="#343A40" font-family="Verdana" font-size="12.5" font-weight="bold" lengthAdjust="spacing" textLength="161.4583" x="109.375" y="674.6419">[password is not valid]</text><polygon fill="#2FA4E7" points="263.5417,720.1497,253.125,724.3164,263.5417,728.4831,259.375,724.3164" style="stroke:#2FA4E7;stroke-width:1.0416666666666667;"/><line style="stroke:#2FA4E7;stroke-width:3.125;stroke-dasharray:2.0,2.0;" x1="257.2917" x2="780.7292" y1="724.3164" y2="724.3164"/><text fill="#343A40" font-family="Verdana" font-size="12.5" lengthAdjust="spacing" textLength="141.6667" x="275" y="714.4002">throw InvalidUserError</text><path d="M421.875,742.0247 L421.875,769.1081 A4.1667,4.1667 0 0 0 426.0417,773.2747 L570.8333,773.2747 A4.1667,4.1667 0 0 0 575,769.1081 L575,748.2747 L564.5833,737.8581 L426.0417,737.8581 A4.1667,4.1667 0 0 0 421.875,742.0247 " fill="url(#gnzw9jw226d4e1)" style="stroke:#033C73;stroke-width:1.0416666666666667;"/><path d="M564.5833,737.8581 L564.5833,746.1914 A2.0833,2.0833 0 0 0 566.6667,748.2747 L575,748.2747 L564.5833,737.8581 " fill="url(#gnzw9jw226d4e1)" style="stroke:#033C73;stroke-width:1.0416666666666667;"/><text fill="#FFFFFF" font-family="Verdana" font-size="12.5" lengthAdjust="spacing" textLength="120.8333" x="433.3333" y="760.8419">Finish the workflow</text><polygon fill="#2FA4E7" points="21.875,806.783,11.4583,810.9497,21.875,815.1164,17.7083,810.9497" style="stroke:#2FA4E7;stroke-width:1.0416666666666667;"/><line style="stroke:#2FA4E7;stroke-width:3.125;stroke-dasharray:2.0,2.0;" x1="15.625" x2="251.0417" y1="810.9497" y2="810.9497"/><text fill="#343A40" font-family="Verdana" font-size="12.5" lengthAdjust="spacing" textLength="130.2083" x="33.3333" y="801.0335">400 InvalidUserError</text><path d="M320.8333,833.8664 L391.6667,833.8664 L391.6667,851.1414 L381.25,861.558 L316.6667,861.558 L316.6667,838.033 A4.1667,4.1667 0 0 1 320.8333,833.8664 " fill="#E9ECEF" style="stroke:#868E96;stroke-width:1.0416666666666667;"/><rect fill="none" height="558.3415" rx="4.1667" ry="4.1667" style="stroke:#59B6EC;stroke-width:1.0416666666666667;" width="1705.2083" x="316.6667" y="833.8664"/><text fill="#033C73" font-family="Verdana" font-size="12.5" font-weight="bold" lengthAdjust="spacing" textLength="17.7083" x="337.5" y="852.6835">alt</text><text fill="#343A40" font-family="Verdana" font-size="12.5" font-weight="bold" lengthAdjust="spacing" textLength="217.7083" x="412.5" y="853.7252">[user exist and have googleId]</text><path d="M421.875,880.9163 L421.875,938.208 A4.1667,4.1667 0 0 0 426.0417,942.3747 L650,942.3747 A4.1667,4.1667 0 0 0 654.1667,938.208 L654.1667,887.1663 L643.75,876.7497 L426.0417,876.7497 A4.1667,4.1667 0 0 0 421.875,880.9163 " fill="url(#gnzw9jw226d4e1)" style="stroke:#033C73;stroke-width:1.0416666666666667;"/><path d="M643.75,876.7497 L643.75,885.083 A2.0833,2.0833 0 0 0 645.8333,887.1663 L654.1667,887.1663 L643.75,876.7497 " fill="url(#gnzw9jw226d4e1)" style="stroke:#033C73;stroke-width:1.0416666666666667;"/><text fill="#FFFFFF" font-family="Verdana" font-size="12.5" lengthAdjust="spacing" textLength="154.1667" x="433.3333" y="899.7335">If the user already exists</text><text fill="#FFFFFF" font-family="Verdana" font-size="12.5" lengthAdjust="spacing" textLength="189.5833" x="433.3333" y="914.9251">and has a googleId, we update</text><text fill="#FFFFFF" font-family="Verdana" font-size="12.5" lengthAdjust="spacing" textLength="200" x="433.3333" y="930.1168">the user with the new password</text><polygon fill="#2FA4E7" points="1325.5208,976.0579,1335.9375,980.2246,1325.5208,984.3913,1329.6875,980.2246" style="stroke:#2FA4E7;stroke-width:1.0416666666666667;"/><line style="stroke:#2FA4E7;stroke-width:3.125;" x1="792.1875" x2="1331.7708" y1="980.2246" y2="980.2246"/><text fill="#343A40" font-family="Verdana" font-size="12.5" lengthAdjust="spacing" textLength="302.0833" x="804.6875" y="970.3084">userAlreadyExists.setPassword(hashedPassword)</text><polygon fill="#2FA4E7" points="1132.8125,1047.4996,1143.2292,1051.6663,1132.8125,1055.8329,1136.9792,1051.6663" style="stroke:#2FA4E7;stroke-width:1.0416666666666667;"/><line style="stroke:#2FA4E7;stroke-width:3.125;" x1="792.1875" x2="1139.0625" y1="1051.6663" y2="1051.6663"/><text fill="#343A40" font-family="Verdana" font-size="12.5" lengthAdjust="spacing" textLength="190.625" x="804.6875" y="1041.7501">updateUser(userAlreadyExists)</text><polygon fill="#2FA4E7" points="1715.1042,1118.9412,1725.5208,1123.1079,1715.1042,1127.2746,1719.2708,1123.1079" style="stroke:#2FA4E7;stroke-width:1.0416666666666667;"/><line style="stroke:#2FA4E7;stroke-width:3.125;" x1="792.1875" x2="1721.3542" y1="1123.1079" y2="1123.1079"/><text fill="#343A40" font-family="Verdana" font-size="12.5" lengthAdjust="spacing" textLength="378.125" x="804.6875" y="1113.1917">userCodes = UserMapper.toUserCodesDto(userAlreadyExists)</text><polygon fill="#2FA4E7" points="1897.9167,1190.3829,1908.3333,1194.5496,1897.9167,1198.7162,1902.0833,1194.5496" style="stroke:#2FA4E7;stroke-width:1.0416666666666667;"/><line style="stroke:#2FA4E7;stroke-width:3.125;" x1="792.1875" x2="1904.1667" y1="1194.5496" y2="1194.5496"/><text fill="#343A40" font-family="Verdana" font-size="12.5" lengthAdjust="spacing" textLength="251.0417" x="804.6875" y="1184.6334">emit('CreateUserSendEmail', userCodes)</text><polygon fill="#2FA4E7" points="1715.1042,1261.8245,1725.5208,1265.9912,1715.1042,1270.1579,1719.2708,1265.9912" style="stroke:#2FA4E7;stroke-width:1.0416666666666667;"/><line style="stroke:#2FA4E7;stroke-width:3.125;" x1="792.1875" x2="1721.3542" y1="1265.9912" y2="1265.9912"/><text fill="#343A40" font-family="Verdana" font-size="12.5" lengthAdjust="spacing" textLength="269.7917" x="804.6875" y="1256.075">dto = UserMapper.toDto(userAlreadyExists)</text><polygon fill="#2FA4E7" points="428.125,1333.2662,417.7083,1337.4329,428.125,1341.5995,423.9583,1337.4329" style="stroke:#2FA4E7;stroke-width:1.0416666666666667;"/><line style="stroke:#2FA4E7;stroke-width:3.125;stroke-dasharray:2.0,2.0;" x1="421.875" x2="780.7292" y1="1337.4329" y2="1337.4329"/><text fill="#343A40" font-family="Verdana" font-size="12.5" lengthAdjust="spacing" textLength="19.7917" x="439.5833" y="1327.5167">dto</text><path d="M421.875,1355.1412 L421.875,1382.2245 A4.1667,4.1667 0 0 0 426.0417,1386.3912 L570.8333,1386.3912 A4.1667,4.1667 0 0 0 575,1382.2245 L575,1361.3912 L564.5833,1350.9745 L426.0417,1350.9745 A4.1667,4.1667 0 0 0 421.875,1355.1412 " fill="url(#gnzw9jw226d4e1)" style="stroke:#033C73;stroke-width:1.0416666666666667;"/><path d="M564.5833,1350.9745 L564.5833,1359.3079 A2.0833,2.0833 0 0 0 566.6667,1361.3912 L575,1361.3912 L564.5833,1350.9745 " fill="url(#gnzw9jw226d4e1)" style="stroke:#033C73;stroke-width:1.0416666666666667;"/><text fill="#FFFFFF" font-family="Verdana" font-size="12.5" lengthAdjust="spacing" textLength="120.8333" x="433.3333" y="1373.9583">Finish the workflow</text><polygon fill="#2FA4E7" points="1325.5208,1427.1912,1335.9375,1431.3578,1325.5208,1435.5245,1329.6875,1431.3578" style="stroke:#2FA4E7;stroke-width:1.0416666666666667;"/><line style="stroke:#2FA4E7;stroke-width:3.125;" x1="792.1875" x2="1331.7708" y1="1431.3578" y2="1431.3578"/><text fill="#343A40" font-family="Verdana" font-size="12.5" lengthAdjust="spacing" textLength="323.9583" x="804.6875" y="1421.4417">user = User.create(userDto.email, hashedPassword)</text><polygon fill="#2FA4E7" points="1132.8125,1498.6328,1143.2292,1502.7995,1132.8125,1506.9661,1136.9792,1502.7995" style="stroke:#2FA4E7;stroke-width:1.0416666666666667;"/><line style="stroke:#2FA4E7;stroke-width:3.125;" x1="792.1875" x2="1139.0625" y1="1502.7995" y2="1502.7995"/><text fill="#343A40" font-family="Verdana" font-size="12.5" lengthAdjust="spacing" textLength="177.0833" x="804.6875" y="1492.8833">newUser = createUser(user)</text><polygon fill="#2FA4E7" points="1715.1042,1570.0745,1725.5208,1574.2411,1715.1042,1578.4078,1719.2708,1574.2411" style="stroke:#2FA4E7;stroke-width:1.0416666666666667;"/><line style="stroke:#2FA4E7;stroke-width:3.125;" x1="792.1875" x2="1721.3542" y1="1574.2411" y2="1574.2411"/><text fill="#343A40" font-family="Verdana" font-size="12.5" lengthAdjust="spacing" textLength="322.9167" x="804.6875" y="1564.325">userCodes = UserMapper.toUserCodesDto(newUser)</text><polygon fill="#2FA4E7" points="1897.9167,1641.5161,1908.3333,1645.6828,1897.9167,1649.8494,1902.0833,1645.6828" style="stroke:#2FA4E7;stroke-width:1.0416666666666667;"/><line style="stroke:#2FA4E7;stroke-width:3.125;" x1="792.1875" x2="1904.1667" y1="1645.6828" y2="1645.6828"/><text fill="#343A40" font-family="Verdana" font-size="12.5" lengthAdjust="spacing" textLength="251.0417" x="804.6875" y="1635.7666">emit('CreateUserSendEmail', userCodes)</text><polygon fill="#2FA4E7" points="1715.1042,1712.9578,1725.5208,1717.1244,1715.1042,1721.2911,1719.2708,1717.1244" style="stroke:#2FA4E7;stroke-width:1.0416666666666667;"/><line style="stroke:#2FA4E7;stroke-width:3.125;" x1="792.1875" x2="1721.3542" y1="1717.1244" y2="1717.1244"/><text fill="#343A40" font-family="Verdana" font-size="12.5" lengthAdjust="spacing" textLength="214.5833" x="804.6875" y="1707.2083">dto = UserMapper.toDto(newUser)</text><polygon fill="#2FA4E7" points="428.125,1784.3994,417.7083,1788.5661,428.125,1792.7327,423.9583,1788.5661" style="stroke:#2FA4E7;stroke-width:1.0416666666666667;"/><line style="stroke:#2FA4E7;stroke-width:3.125;stroke-dasharray:2.0,2.0;" x1="421.875" x2="785.9375" y1="1788.5661" y2="1788.5661"/><text fill="#343A40" font-family="Verdana" font-size="12.5" lengthAdjust="spacing" textLength="19.7917" x="439.5833" y="1778.6499">dto</text><polygon fill="#2FA4E7" points="263.5417,1824.5911,253.125,1828.7577,263.5417,1832.9244,259.375,1828.7577" style="stroke:#2FA4E7;stroke-width:1.0416666666666667;"/><line style="stroke:#2FA4E7;stroke-width:3.125;stroke-dasharray:2.0,2.0;" x1="257.2917" x2="410.4167" y1="1828.7577" y2="1828.7577"/><text fill="#343A40" font-family="Verdana" font-size="12.5" lengthAdjust="spacing" textLength="54.1667" x="275" y="1818.8416">newUser</text><polygon fill="#2FA4E7" points="21.875,1864.7827,11.4583,1868.9494,21.875,1873.116,17.7083,1868.9494" style="stroke:#2FA4E7;stroke-width:1.0416666666666667;"/><line style="stroke:#2FA4E7;stroke-width:3.125;stroke-dasharray:2.0,2.0;" x1="15.625" x2="251.0417" y1="1868.9494" y2="1868.9494"/><text fill="#343A40" font-family="Verdana" font-size="12.5" lengthAdjust="spacing" textLength="83.3333" x="33.3333" y="1859.0332">201 newUser</text><!--SRC=[jLPBRzim3BxxLt2zf0MIj7kSZ6r0bsL03iMAFdONOZOHvbYUf2Jhln-fXolPGJgqcm-nH58VgK-VwBonQzmWB55lQnHDqGfjvLAseh5mSdczE05XWDwvOwOQgrLTetR-cTLr7d1lK7-roddfdJjlKU_a4fqpZFE06soLaLRfHnV3qo6yS_4WToskXJ5xfQihqOXL26DRcEVHLw9jGumVvkxv3XixtqXhGr0O5yLayfbfAU7w- -qTd8jMdc-v5h81kPYH4fOQXKMkyLJZhoqQUrQ8fPKxidhI-8VZYICALyqEjOKG2rP1uF5f5KygpAOH8r1PGeDxNWUVqW82Kb90f3wy6OAPBe4tSbdJqkfn_biQQmXfXPOHlZpEDqBMfrkFDaMU9PZkg9Bwt5pKrc42CXg8fe9ADICBQx53M2crgd5H5K1FLqkarwwrsZiQGaKtk28Gr5ZDjLRQhMeKfT9ojRQW7Zon49vlif5cJJ0898gV3xNQEnzI4RpCJJvE9ZxRXultntBHefIjH5KbxSMiiOhY8yRO4ASTNsqm99IbsaoOIyrfKYwl16aYz0zHIqx7zcdFF4WxXZYw8Or9JLU_iIOfnjsdf0etTmSO5r9g9WvsdE3OcIqQ5y88_-MaBeOP-7mEgMseioDrB1vS3Gv2U1ruADE5U4m3eWCTmvwMj9K8TVBJeUobzVkYYzdncEyj9pAUyk0YJWtQJbEvuiuSH7vmREaVPYzHkF6kSjSd1ZbxmEv6zu0xMmBiswdVmqnLQ896lNrgrNrqa42VpHgQSozlOaqoXnvT0jBWT3JhUk0jqUtQrsZyL5OlKMpmlKof-S0cAshLlUtzsrrrdnJAzEgBvAx9GR75FkA_6tcN7qDVSCUxna1a1pzBdEAvxyUBLHKo9lY1so7Rhz3FG2G7TFFtcdb9pPawahZuXVV_469x3XdIGAUVq5kXX7SNRxkeelW3]--></g></svg>