<?xml version="1.0" encoding="us-ascii" standalone="no"?><svg xmlns="http://www.w3.org/2000/svg" xmlns:xlink="http://www.w3.org/1999/xlink" contentStyleType="text/css" height="1332.2917px" preserveAspectRatio="none" style="width:1708px;height:1332px;" version="1.1" viewBox="0 0 1708 1332" width="1708.3333px" zoomAndPan="magnify"><defs><linearGradient id="g1j9iux2hbeedz0" x1="50%" x2="50%" y1="0%" y2="100%"><stop offset="0%" stop-color="#59B6EC"/><stop offset="100%" stop-color="#2FA4E7"/></linearGradient><linearGradient id="g1j9iux2hbeedz1" x1="50%" x2="50%" y1="0%" y2="100%"><stop offset="0%" stop-color="#35638F"/><stop offset="100%" stop-color="#033C73"/></linearGradient></defs><g><rect fill="#EDF0F2" height="1088.9913" style="stroke:#BABDBF;stroke-width:1.0416666666666667;" width="10.4167" x="688.5417" y="134.1166"/><rect fill="#EDF0F2" height="980.483" style="stroke:#BABDBF;stroke-width:1.0416666666666667;" width="10.4167" x="906.25" y="228.0416"/><rect fill="#EDF0F2" height="31.25" style="stroke:#BABDBF;stroke-width:1.0416666666666667;" width="10.4167" x="1134.375" y="268.2332"/><rect fill="#EDF0F2" height="31.25" style="stroke:#BABDBF;stroke-width:1.0416666666666667;" width="10.4167" x="1134.375" y="1019.8079"/><rect fill="#EDF0F2" height="31.25" style="stroke:#BABDBF;stroke-width:1.0416666666666667;" width="10.4167" x="1299.4792" y="518.7581"/><rect fill="#EDF0F2" height="31.25" style="stroke:#BABDBF;stroke-width:1.0416666666666667;" width="10.4167" x="1299.4792" y="948.3663"/><rect fill="#EDF0F2" height="31.25" style="stroke:#BABDBF;stroke-width:1.0416666666666667;" width="10.4167" x="1454.6875" y="1091.2496"/><rect fill="#EDF0F2" height="31.25" style="stroke:#BABDBF;stroke-width:1.0416666666666667;" width="10.4167" x="1637.5" y="1162.6912"/><rect fill="none" height="164.4999" rx="4.1667" ry="4.1667" style="stroke:#59B6EC;stroke-width:1.0416666666666667;" width="984.8958" x="13.5417" y="315.1082"/><rect fill="none" height="164.4999" rx="4.1667" ry="4.1667" style="stroke:#59B6EC;stroke-width:1.0416666666666667;" width="984.8958" x="13.5417" y="565.6331"/><rect fill="none" height="164.4999" rx="4.1667" ry="4.1667" style="stroke:#59B6EC;stroke-width:1.0416666666666667;" width="984.8958" x="13.5417" y="744.7164"/><line style="stroke:#BABDBF;stroke-width:1.0416666666666667;stroke-dasharray:5.0,5.0;" x1="467.7083" x2="467.7083" y1="51.65" y2="1282.0496"/><line style="stroke:#BABDBF;stroke-width:1.0416666666666667;stroke-dasharray:5.0,5.0;" x1="693.75" x2="693.75" y1="51.65" y2="1282.0496"/><line style="stroke:#BABDBF;stroke-width:1.0416666666666667;stroke-dasharray:5.0,5.0;" x1="910.9375" x2="910.9375" y1="51.65" y2="1282.0496"/><line style="stroke:#BABDBF;stroke-width:1.0416666666666667;stroke-dasharray:5.0,5.0;" x1="1139.5833" x2="1139.5833" y1="51.65" y2="1282.0496"/><line style="stroke:#BABDBF;stroke-width:1.0416666666666667;stroke-dasharray:5.0,5.0;" x1="1304.1667" x2="1304.1667" y1="51.65" y2="1282.0496"/><line style="stroke:#BABDBF;stroke-width:1.0416666666666667;stroke-dasharray:5.0,5.0;" x1="1459.375" x2="1459.375" y1="51.65" y2="1282.0496"/><line style="stroke:#BABDBF;stroke-width:1.0416666666666667;stroke-dasharray:5.0,5.0;" x1="1642.7083" x2="1642.7083" y1="51.65" y2="1282.0496"/><rect fill="url(#g1j9iux2hbeedz0)" height="40.1917" rx="4.1667" ry="4.1667" style="stroke:#2FA4E7;stroke-width:1.0416666666666667;" width="45.8333" x="444.7917" y="10.4167"/><text fill="#FFFFFF" font-family="Verdana" font-size="12.5" lengthAdjust="spacing" textLength="20.8333" x="457.2917" y="35.4838">API</text><rect fill="url(#g1j9iux2hbeedz0)" height="40.1917" rx="4.1667" ry="4.1667" style="stroke:#2FA4E7;stroke-width:1.0416666666666667;" width="45.8333" x="444.7917" y="1281.0079"/><text fill="#FFFFFF" font-family="Verdana" font-size="12.5" lengthAdjust="spacing" textLength="20.8333" x="457.2917" y="1306.075">API</text><rect fill="url(#g1j9iux2hbeedz0)" height="40.1917" rx="4.1667" ry="4.1667" style="stroke:#2FA4E7;stroke-width:1.0416666666666667;" width="85.4167" x="651.0417" y="10.4167"/><text fill="#FFFFFF" font-family="Verdana" font-size="12.5" lengthAdjust="spacing" textLength="60.4167" x="663.5417" y="35.4838">Controller</text><rect fill="url(#g1j9iux2hbeedz0)" height="40.1917" rx="4.1667" ry="4.1667" style="stroke:#2FA4E7;stroke-width:1.0416666666666667;" width="85.4167" x="651.0417" y="1281.0079"/><text fill="#FFFFFF" font-family="Verdana" font-size="12.5" lengthAdjust="spacing" textLength="60.4167" x="663.5417" y="1306.075">Controller</text><rect fill="url(#g1j9iux2hbeedz0)" height="40.1917" rx="4.1667" ry="4.1667" style="stroke:#2FA4E7;stroke-width:1.0416666666666667;" width="69.7917" x="876.5625" y="10.4167"/><text fill="#FFFFFF" font-family="Verdana" font-size="12.5" lengthAdjust="spacing" textLength="44.7917" x="889.0625" y="35.4838">Service</text><rect fill="url(#g1j9iux2hbeedz0)" height="40.1917" rx="4.1667" ry="4.1667" style="stroke:#2FA4E7;stroke-width:1.0416666666666667;" width="69.7917" x="876.5625" y="1281.0079"/><text fill="#FFFFFF" font-family="Verdana" font-size="12.5" lengthAdjust="spacing" textLength="44.7917" x="889.0625" y="1306.075">Service</text><rect fill="url(#g1j9iux2hbeedz0)" height="40.1917" rx="4.1667" ry="4.1667" style="stroke:#2FA4E7;stroke-width:1.0416666666666667;" width="89.5833" x="1094.7917" y="10.4167"/><text fill="#FFFFFF" font-family="Verdana" font-size="12.5" lengthAdjust="spacing" textLength="64.5833" x="1107.2917" y="35.4838">Repository</text><rect fill="url(#g1j9iux2hbeedz0)" height="40.1917" rx="4.1667" ry="4.1667" style="stroke:#2FA4E7;stroke-width:1.0416666666666667;" width="89.5833" x="1094.7917" y="1281.0079"/><text fill="#FFFFFF" font-family="Verdana" font-size="12.5" lengthAdjust="spacing" textLength="64.5833" x="1107.2917" y="1306.075">Repository</text><rect fill="url(#g1j9iux2hbeedz0)" height="40.1917" rx="4.1667" ry="4.1667" style="stroke:#2FA4E7;stroke-width:1.0416666666666667;" width="53.125" x="1278.125" y="10.4167"/><text fill="#FFFFFF" font-family="Verdana" font-size="12.5" lengthAdjust="spacing" textLength="28.125" x="1290.625" y="35.4838">User</text><rect fill="url(#g1j9iux2hbeedz0)" height="40.1917" rx="4.1667" ry="4.1667" style="stroke:#2FA4E7;stroke-width:1.0416666666666667;" width="53.125" x="1278.125" y="1281.0079"/><text fill="#FFFFFF" font-family="Verdana" font-size="12.5" lengthAdjust="spacing" textLength="28.125" x="1290.625" y="1306.075">User</text><rect fill="url(#g1j9iux2hbeedz0)" height="40.1917" rx="4.1667" ry="4.1667" style="stroke:#2FA4E7;stroke-width:1.0416666666666667;" width="69.7917" x="1425" y="10.4167"/><text fill="#FFFFFF" font-family="Verdana" font-size="12.5" lengthAdjust="spacing" textLength="44.7917" x="1437.5" y="35.4838">Mapper</text><rect fill="url(#g1j9iux2hbeedz0)" height="40.1917" rx="4.1667" ry="4.1667" style="stroke:#2FA4E7;stroke-width:1.0416666666666667;" width="69.7917" x="1425" y="1281.0079"/><text fill="#FFFFFF" font-family="Verdana" font-size="12.5" lengthAdjust="spacing" textLength="44.7917" x="1437.5" y="1306.075">Mapper</text><rect fill="url(#g1j9iux2hbeedz0)" height="40.1917" rx="4.1667" ry="4.1667" style="stroke:#2FA4E7;stroke-width:1.0416666666666667;" width="108.3333" x="1588.5417" y="10.4167"/><text fill="#FFFFFF" font-family="Verdana" font-size="12.5" lengthAdjust="spacing" textLength="83.3333" x="1601.0417" y="35.4838">EventEmitter</text><rect fill="url(#g1j9iux2hbeedz0)" height="40.1917" rx="4.1667" ry="4.1667" style="stroke:#2FA4E7;stroke-width:1.0416666666666667;" width="108.3333" x="1588.5417" y="1281.0079"/><text fill="#FFFFFF" font-family="Verdana" font-size="12.5" lengthAdjust="spacing" textLength="83.3333" x="1601.0417" y="1306.075">EventEmitter</text><rect fill="#EDF0F2" height="1088.9913" style="stroke:#BABDBF;stroke-width:1.0416666666666667;" width="10.4167" x="688.5417" y="134.1166"/><rect fill="#EDF0F2" height="980.483" style="stroke:#BABDBF;stroke-width:1.0416666666666667;" width="10.4167" x="906.25" y="228.0416"/><rect fill="#EDF0F2" height="31.25" style="stroke:#BABDBF;stroke-width:1.0416666666666667;" width="10.4167" x="1134.375" y="268.2332"/><rect fill="#EDF0F2" height="31.25" style="stroke:#BABDBF;stroke-width:1.0416666666666667;" width="10.4167" x="1134.375" y="1019.8079"/><rect fill="#EDF0F2" height="31.25" style="stroke:#BABDBF;stroke-width:1.0416666666666667;" width="10.4167" x="1299.4792" y="518.7581"/><rect fill="#EDF0F2" height="31.25" style="stroke:#BABDBF;stroke-width:1.0416666666666667;" width="10.4167" x="1299.4792" y="948.3663"/><rect fill="#EDF0F2" height="31.25" style="stroke:#BABDBF;stroke-width:1.0416666666666667;" width="10.4167" x="1454.6875" y="1091.2496"/><rect fill="#EDF0F2" height="31.25" style="stroke:#BABDBF;stroke-width:1.0416666666666667;" width="10.4167" x="1637.5" y="1162.6912"/><polygon fill="#2FA4E7" points="455.2083,89.7583,465.625,93.925,455.2083,98.0916,459.375,93.925" style="stroke:#2FA4E7;stroke-width:1.0416666666666667;"/><line style="stroke:#2FA4E7;stroke-width:3.125;stroke-dasharray:2.0,2.0;" x1="10.4167" x2="461.4583" y1="93.925" y2="93.925"/><text fill="#343A40" font-family="Verdana" font-size="12.5" lengthAdjust="spacing" textLength="205.2083" x="22.9167" y="84.0088">POST /api/resend-activation-code</text><polygon fill="#2FA4E7" points="676.0417,129.95,686.4583,134.1166,676.0417,138.2833,680.2083,134.1166" style="stroke:#2FA4E7;stroke-width:1.0416666666666667;"/><line style="stroke:#2FA4E7;stroke-width:3.125;" x1="467.7083" x2="682.2917" y1="134.1166" y2="134.1166"/><text fill="#343A40" font-family="Verdana" font-size="12.5" lengthAdjust="spacing" textLength="190.625" x="480.2083" y="124.2004">resendActivationCode(request)</text><line style="stroke:#2FA4E7;stroke-width:3.125;" x1="698.9583" x2="742.7083" y1="174.3083" y2="174.3083"/><line style="stroke:#2FA4E7;stroke-width:3.125;" x1="742.7083" x2="742.7083" y1="174.3083" y2="187.8499"/><line style="stroke:#2FA4E7;stroke-width:3.125;" x1="700" x2="742.7083" y1="187.8499" y2="187.8499"/><polygon fill="#2FA4E7" points="710.4167,183.6833,700,187.8499,710.4167,192.0166,706.25,187.8499" style="stroke:#2FA4E7;stroke-width:1.0416666666666667;"/><text fill="#343A40" font-family="Verdana" font-size="12.5" lengthAdjust="spacing" textLength="142.7083" x="711.4583" y="164.3921">email = req.body.email</text><polygon fill="#2FA4E7" points="893.75,223.8749,904.1667,228.0416,893.75,232.2083,897.9167,228.0416" style="stroke:#2FA4E7;stroke-width:1.0416666666666667;"/><line style="stroke:#2FA4E7;stroke-width:3.125;" x1="698.9583" x2="900" y1="228.0416" y2="228.0416"/><text fill="#343A40" font-family="Verdana" font-size="12.5" lengthAdjust="spacing" textLength="177.0833" x="711.4583" y="218.1254">resendActivationCode(email)</text><polygon fill="#2FA4E7" points="1121.875,264.0666,1132.2917,268.2332,1121.875,272.3999,1126.0417,268.2332" style="stroke:#2FA4E7;stroke-width:1.0416666666666667;"/><line style="stroke:#2FA4E7;stroke-width:3.125;" x1="916.6667" x2="1128.125" y1="268.2332" y2="268.2332"/><text fill="#343A40" font-family="Verdana" font-size="12.5" lengthAdjust="spacing" textLength="187.5" x="929.1667" y="258.3171">user = getUserByEmail(email)</text><path d="M17.7083,315.1082 L88.5417,315.1082 L88.5417,332.3832 L78.125,342.7999 L13.5417,342.7999 L13.5417,319.2749 A4.1667,4.1667 0 0 1 17.7083,315.1082 " fill="#E9ECEF" style="stroke:#868E96;stroke-width:1.0416666666666667;"/><rect fill="none" height="164.4999" rx="4.1667" ry="4.1667" style="stroke:#59B6EC;stroke-width:1.0416666666666667;" width="984.8958" x="13.5417" y="315.1082"/><text fill="#033C73" font-family="Verdana" font-size="12.5" font-weight="bold" lengthAdjust="spacing" textLength="17.7083" x="34.375" y="333.9254">alt</text><text fill="#343A40" font-family="Verdana" font-size="12.5" font-weight="bold" lengthAdjust="spacing" textLength="117.7083" x="109.375" y="334.967">[user not found]</text><polygon fill="#2FA4E7" points="479.1667,380.4749,468.75,384.6415,479.1667,388.8082,475,384.6415" style="stroke:#2FA4E7;stroke-width:1.0416666666666667;"/><line style="stroke:#2FA4E7;stroke-width:3.125;stroke-dasharray:2.0,2.0;" x1="472.9167" x2="905.2083" y1="384.6415" y2="384.6415"/><text fill="#343A40" font-family="Verdana" font-size="12.5" lengthAdjust="spacing" textLength="160.4167" x="490.625" y="374.7253">throw UserNotFoundError</text><polygon fill="#2FA4E7" points="21.875,420.6665,11.4583,424.8332,21.875,428.9998,17.7083,424.8332" style="stroke:#2FA4E7;stroke-width:1.0416666666666667;"/><line style="stroke:#2FA4E7;stroke-width:3.125;stroke-dasharray:2.0,2.0;" x1="15.625" x2="466.6667" y1="424.8332" y2="424.8332"/><text fill="#343A40" font-family="Verdana" font-size="12.5" lengthAdjust="spacing" textLength="148.9583" x="33.3333" y="414.917">404 UserNotFoundError</text><path d="M704.1667,442.5415 L704.1667,469.6248 A4.1667,4.1667 0 0 0 708.3333,473.7915 L853.125,473.7915 A4.1667,4.1667 0 0 0 857.2917,469.6248 L857.2917,448.7915 L846.875,438.3748 L708.3333,438.3748 A4.1667,4.1667 0 0 0 704.1667,442.5415 " fill="url(#g1j9iux2hbeedz1)" style="stroke:#033C73;stroke-width:1.0416666666666667;"/><path d="M846.875,438.3748 L846.875,446.7082 A2.0833,2.0833 0 0 0 848.9583,448.7915 L857.2917,448.7915 L846.875,438.3748 " fill="url(#g1j9iux2hbeedz1)" style="stroke:#033C73;stroke-width:1.0416666666666667;"/><text fill="#FFFFFF" font-family="Verdana" font-size="12.5" lengthAdjust="spacing" textLength="120.8333" x="715.625" y="461.3586">Finish the workflow</text><polygon fill="#2FA4E7" points="1286.9792,514.5915,1297.3958,518.7581,1286.9792,522.9248,1291.1458,518.7581" style="stroke:#2FA4E7;stroke-width:1.0416666666666667;"/><line style="stroke:#2FA4E7;stroke-width:3.125;" x1="916.6667" x2="1293.2292" y1="518.7581" y2="518.7581"/><text fill="#343A40" font-family="Verdana" font-size="12.5" lengthAdjust="spacing" textLength="88.5417" x="929.1667" y="508.842">user.isActive()</text><path d="M17.7083,565.6331 L88.5417,565.6331 L88.5417,582.9081 L78.125,593.3248 L13.5417,593.3248 L13.5417,569.7998 A4.1667,4.1667 0 0 1 17.7083,565.6331 " fill="#E9ECEF" style="stroke:#868E96;stroke-width:1.0416666666666667;"/><rect fill="none" height="164.4999" rx="4.1667" ry="4.1667" style="stroke:#59B6EC;stroke-width:1.0416666666666667;" width="984.8958" x="13.5417" y="565.6331"/><text fill="#033C73" font-family="Verdana" font-size="12.5" font-weight="bold" lengthAdjust="spacing" textLength="17.7083" x="34.375" y="584.4503">alt</text><text fill="#343A40" font-family="Verdana" font-size="12.5" font-weight="bold" lengthAdjust="spacing" textLength="107.2917" x="109.375" y="585.4919">[user is active]</text><polygon fill="#2FA4E7" points="479.1667,630.9998,468.75,635.1664,479.1667,639.3331,475,635.1664" style="stroke:#2FA4E7;stroke-width:1.0416666666666667;"/><line style="stroke:#2FA4E7;stroke-width:3.125;stroke-dasharray:2.0,2.0;" x1="472.9167" x2="905.2083" y1="635.1664" y2="635.1664"/><text fill="#343A40" font-family="Verdana" font-size="12.5" lengthAdjust="spacing" textLength="210.4167" x="490.625" y="625.2502">throw UserAlreadyRegisteredError</text><polygon fill="#2FA4E7" points="21.875,671.1914,11.4583,675.3581,21.875,679.5247,17.7083,675.3581" style="stroke:#2FA4E7;stroke-width:1.0416666666666667;"/><line style="stroke:#2FA4E7;stroke-width:3.125;stroke-dasharray:2.0,2.0;" x1="15.625" x2="466.6667" y1="675.3581" y2="675.3581"/><text fill="#343A40" font-family="Verdana" font-size="12.5" lengthAdjust="spacing" textLength="198.9583" x="33.3333" y="665.4419">403 UserAlreadyRegisteredError</text><path d="M704.1667,693.0664 L704.1667,720.1497 A4.1667,4.1667 0 0 0 708.3333,724.3164 L853.125,724.3164 A4.1667,4.1667 0 0 0 857.2917,720.1497 L857.2917,699.3164 L846.875,688.8997 L708.3333,688.8997 A4.1667,4.1667 0 0 0 704.1667,693.0664 " fill="url(#g1j9iux2hbeedz1)" style="stroke:#033C73;stroke-width:1.0416666666666667;"/><path d="M846.875,688.8997 L846.875,697.2331 A2.0833,2.0833 0 0 0 848.9583,699.3164 L857.2917,699.3164 L846.875,688.8997 " fill="url(#g1j9iux2hbeedz1)" style="stroke:#033C73;stroke-width:1.0416666666666667;"/><text fill="#FFFFFF" font-family="Verdana" font-size="12.5" lengthAdjust="spacing" textLength="120.8333" x="715.625" y="711.8835">Finish the workflow</text><path d="M17.7083,744.7164 L88.5417,744.7164 L88.5417,761.9914 L78.125,772.408 L13.5417,772.408 L13.5417,748.8831 A4.1667,4.1667 0 0 1 17.7083,744.7164 " fill="#E9ECEF" style="stroke:#868E96;stroke-width:1.0416666666666667;"/><rect fill="none" height="164.4999" rx="4.1667" ry="4.1667" style="stroke:#59B6EC;stroke-width:1.0416666666666667;" width="984.8958" x="13.5417" y="744.7164"/><text fill="#033C73" font-family="Verdana" font-size="12.5" font-weight="bold" lengthAdjust="spacing" textLength="17.7083" x="34.375" y="763.5335">alt</text><text fill="#343A40" font-family="Verdana" font-size="12.5" font-weight="bold" lengthAdjust="spacing" textLength="408.3333" x="109.375" y="764.5752">[user.activationCode &amp;&amp; !user.activationCode.isExpired()]</text><polygon fill="#2FA4E7" points="479.1667,810.083,468.75,814.2497,479.1667,818.4163,475,814.2497" style="stroke:#2FA4E7;stroke-width:1.0416666666666667;"/><line style="stroke:#2FA4E7;stroke-width:3.125;stroke-dasharray:2.0,2.0;" x1="472.9167" x2="905.2083" y1="814.2497" y2="814.2497"/><text fill="#343A40" font-family="Verdana" font-size="12.5" lengthAdjust="spacing" textLength="144.7917" x="490.625" y="804.3335">throw BadRequestError</text><polygon fill="#2FA4E7" points="21.875,850.2747,11.4583,854.4413,21.875,858.608,17.7083,854.4413" style="stroke:#2FA4E7;stroke-width:1.0416666666666667;"/><line style="stroke:#2FA4E7;stroke-width:3.125;stroke-dasharray:2.0,2.0;" x1="15.625" x2="466.6667" y1="854.4413" y2="854.4413"/><text fill="#343A40" font-family="Verdana" font-size="12.5" lengthAdjust="spacing" textLength="414.5833" x="33.3333" y="844.5251">400 BadRequestError: You've already requested an activation code</text><path d="M704.1667,872.1497 L704.1667,899.233 A4.1667,4.1667 0 0 0 708.3333,903.3997 L853.125,903.3997 A4.1667,4.1667 0 0 0 857.2917,899.233 L857.2917,878.3997 L846.875,867.983 L708.3333,867.983 A4.1667,4.1667 0 0 0 704.1667,872.1497 " fill="url(#g1j9iux2hbeedz1)" style="stroke:#033C73;stroke-width:1.0416666666666667;"/><path d="M846.875,867.983 L846.875,876.3163 A2.0833,2.0833 0 0 0 848.9583,878.3997 L857.2917,878.3997 L846.875,867.983 " fill="url(#g1j9iux2hbeedz1)" style="stroke:#033C73;stroke-width:1.0416666666666667;"/><text fill="#FFFFFF" font-family="Verdana" font-size="12.5" lengthAdjust="spacing" textLength="120.8333" x="715.625" y="890.9668">Finish the workflow</text><polygon fill="#2FA4E7" points="1286.9792,944.1996,1297.3958,948.3663,1286.9792,952.533,1291.1458,948.3663" style="stroke:#2FA4E7;stroke-width:1.0416666666666667;"/><line style="stroke:#2FA4E7;stroke-width:3.125;" x1="916.6667" x2="1293.2292" y1="948.3663" y2="948.3663"/><text fill="#343A40" font-family="Verdana" font-size="12.5" lengthAdjust="spacing" textLength="188.5417" x="929.1667" y="938.4501">user.generateActivationCode()</text><polygon fill="#2FA4E7" points="1121.875,1015.6413,1132.2917,1019.8079,1121.875,1023.9746,1126.0417,1019.8079" style="stroke:#2FA4E7;stroke-width:1.0416666666666667;"/><line style="stroke:#2FA4E7;stroke-width:3.125;" x1="916.6667" x2="1128.125" y1="1019.8079" y2="1019.8079"/><text fill="#343A40" font-family="Verdana" font-size="12.5" lengthAdjust="spacing" textLength="108.3333" x="929.1667" y="1009.8918">updateUser(user)</text><polygon fill="#2FA4E7" points="1442.1875,1087.0829,1452.6042,1091.2496,1442.1875,1095.4163,1446.3542,1091.2496" style="stroke:#2FA4E7;stroke-width:1.0416666666666667;"/><line style="stroke:#2FA4E7;stroke-width:3.125;" x1="916.6667" x2="1448.4375" y1="1091.2496" y2="1091.2496"/><text fill="#343A40" font-family="Verdana" font-size="12.5" lengthAdjust="spacing" textLength="266.6667" x="929.1667" y="1081.3334">codes = UserMapper.toUserCodesDto(user)</text><polygon fill="#2FA4E7" points="1625,1158.5246,1635.4167,1162.6912,1625,1166.8579,1629.1667,1162.6912" style="stroke:#2FA4E7;stroke-width:1.0416666666666667;"/><line style="stroke:#2FA4E7;stroke-width:3.125;" x1="916.6667" x2="1631.25" y1="1162.6912" y2="1162.6912"/><text fill="#343A40" font-family="Verdana" font-size="12.5" lengthAdjust="spacing" textLength="221.875" x="929.1667" y="1152.7751">emit('CreateUserSendEmail', codes)</text><polygon fill="#2FA4E7" points="710.4167,1204.3579,700,1208.5246,710.4167,1212.6912,706.25,1208.5246" style="stroke:#2FA4E7;stroke-width:1.0416666666666667;"/><line style="stroke:#2FA4E7;stroke-width:3.125;stroke-dasharray:2.0,2.0;" x1="704.1667" x2="910.4167" y1="1208.5246" y2="1208.5246"/><polygon fill="#2FA4E7" points="479.1667,1218.9412,468.75,1223.1079,479.1667,1227.2746,475,1223.1079" style="stroke:#2FA4E7;stroke-width:1.0416666666666667;"/><line style="stroke:#2FA4E7;stroke-width:3.125;stroke-dasharray:2.0,2.0;" x1="472.9167" x2="692.7083" y1="1223.1079" y2="1223.1079"/><polygon fill="#2FA4E7" points="21.875,1259.1329,11.4583,1263.2996,21.875,1267.4662,17.7083,1263.2996" style="stroke:#2FA4E7;stroke-width:1.0416666666666667;"/><line style="stroke:#2FA4E7;stroke-width:3.125;stroke-dasharray:2.0,2.0;" x1="15.625" x2="466.6667" y1="1263.2996" y2="1263.2996"/><text fill="#343A40" font-family="Verdana" font-size="12.5" lengthAdjust="spacing" textLength="25" x="33.3333" y="1253.3834">200</text><!--SRC=[hLHDRzim3BtxLx0zD1amky7Maz4DI3CNs65RaMo77TMOIOGvaYinoVBlHtqubREqEMm-s9BuIEezaxoW5QuHvcWs3GgLjSAGdCjMA8BBySFdIn0M-DitJBGYevi6ZRTFo3Hzm0pDLixHM-Ew3vXYgwqaRVOUuxPzm0yRWxj5t_H5j6qqXcNVN6rHKRMMH14KrrcMvnyTbn8Ulis-mxLevRL1YwhEnPpaLf3KAf_h6ZD60OCTiH82Pdo0J1WnDFYqGKjlikYAGGNtUlR4jP0DVE08JyMZhlU5FpY0eZ8lPF3O97wdO_ow04ws4ZQi42TP8ZcjxlQLS_pBtKjSOtyl6WhkIXCiz4RL6V1pID49HYkZT_vNVDLqxt2LCTfui7lyuZRF0_fcTFC2bjCW6BbS4UX5KAmBSI-Lj2lEXB3JvjUYqJjlOs6yMyQBbBjB4BWNqdhfS9ZGzMMJqFNx0rrfmLlm7DrnOr3K-oakfUKQmZEytvzp-bS13XGAqQiMkBg2YnFdh4trkvLy1nRd5Qvtefw6YdwTuEWOMS9FlHbi4KGW3R4ni0QXuFaouFlglqXmkWYMgD3mdpxgedCbSQATsfgjpZXqWS-rK1eWZAFISxNSaYv8E2j8kusxalr4-ZXod6D9x7YI18zZp4qLISF1XEKErvonAhxd1sz3vYHmD_kIoDrHMWd-BoIORjQ4IHLA9RLxV2mBAE7TQ9HbVm00]--></g></svg>