<?xml version="1.0" encoding="us-ascii" standalone="no"?><svg xmlns="http://www.w3.org/2000/svg" xmlns:xlink="http://www.w3.org/1999/xlink" contentStyleType="text/css" height="1166.6667px" preserveAspectRatio="none" style="width:1860px;height:1166px;" version="1.1" viewBox="0 0 1860 1166" width="1860.4167px" zoomAndPan="magnify"><defs><linearGradient id="g1qf5pu69prg9k0" x1="50%" x2="50%" y1="0%" y2="100%"><stop offset="0%" stop-color="#59B6EC"/><stop offset="100%" stop-color="#2FA4E7"/></linearGradient><linearGradient id="g1qf5pu69prg9k1" x1="50%" x2="50%" y1="0%" y2="100%"><stop offset="0%" stop-color="#35638F"/><stop offset="100%" stop-color="#033C73"/></linearGradient></defs><g><rect fill="#EDF0F2" height="93.925" style="stroke:#BABDBF;stroke-width:1.0416666666666667;" width="10.4167" x="506.25" y="134.1166"/><rect fill="#EDF0F2" height="40.1917" style="stroke:#BABDBF;stroke-width:1.0416666666666667;" width="10.4167" x="506.25" y="1017.5496"/><rect fill="#EDF0F2" height="789.5081" style="stroke:#BABDBF;stroke-width:1.0416666666666667;" width="10.4167" x="834.375" y="228.0416"/><rect fill="#EDF0F2" height="31.25" style="stroke:#BABDBF;stroke-width:1.0416666666666667;" width="10.4167" x="1090.625" y="268.2332"/><rect fill="#EDF0F2" height="31.25" style="stroke:#BABDBF;stroke-width:1.0416666666666667;" width="10.4167" x="1090.625" y="860.083"/><rect fill="#EDF0F2" height="301.1332" style="stroke:#BABDBF;stroke-width:1.0416666666666667;" width="10.4167" x="1255.7292" y="518.7581"/><rect fill="#EDF0F2" height="45.8333" style="stroke:#BABDBF;stroke-width:1.0416666666666667;" width="10.4167" x="1471.3542" y="931.5247"/><rect fill="#EDF0F2" height="31.25" style="stroke:#BABDBF;stroke-width:1.0416666666666667;" width="10.4167" x="1806.25" y="946.108"/><rect fill="none" height="164.4999" rx="4.1667" ry="4.1667" style="stroke:#59B6EC;stroke-width:1.0416666666666667;" width="913.0208" x="13.5417" y="315.1082"/><rect fill="none" height="164.4999" rx="4.1667" ry="4.1667" style="stroke:#59B6EC;stroke-width:1.0416666666666667;" width="1326.0417" x="13.5417" y="534.3831"/><line style="stroke:#BABDBF;stroke-width:1.0416666666666667;stroke-dasharray:5.0,5.0;" x1="341.6667" x2="341.6667" y1="51.65" y2="1116.6829"/><line style="stroke:#BABDBF;stroke-width:1.0416666666666667;stroke-dasharray:5.0,5.0;" x1="511.4583" x2="511.4583" y1="51.65" y2="1116.6829"/><line style="stroke:#BABDBF;stroke-width:1.0416666666666667;stroke-dasharray:5.0,5.0;" x1="839.0625" x2="839.0625" y1="51.65" y2="1116.6829"/><line style="stroke:#BABDBF;stroke-width:1.0416666666666667;stroke-dasharray:5.0,5.0;" x1="1095.8333" x2="1095.8333" y1="51.65" y2="1116.6829"/><line style="stroke:#BABDBF;stroke-width:1.0416666666666667;stroke-dasharray:5.0,5.0;" x1="1260.4167" x2="1260.4167" y1="51.65" y2="1116.6829"/><line style="stroke:#BABDBF;stroke-width:1.0416666666666667;stroke-dasharray:5.0,5.0;" x1="1476.0417" x2="1476.0417" y1="51.65" y2="1116.6829"/><line style="stroke:#BABDBF;stroke-width:1.0416666666666667;stroke-dasharray:5.0,5.0;" x1="1642.7083" x2="1642.7083" y1="51.65" y2="1116.6829"/><line style="stroke:#BABDBF;stroke-width:1.0416666666666667;stroke-dasharray:5.0,5.0;" x1="1811.4583" x2="1811.4583" y1="51.65" y2="1116.6829"/><rect fill="url(#g1qf5pu69prg9k0)" height="40.1917" rx="4.1667" ry="4.1667" style="stroke:#2FA4E7;stroke-width:1.0416666666666667;" width="45.8333" x="318.75" y="10.4167"/><text fill="#FFFFFF" font-family="Verdana" font-size="12.5" lengthAdjust="spacing" textLength="20.8333" x="331.25" y="35.4838">API</text><rect fill="url(#g1qf5pu69prg9k0)" height="40.1917" rx="4.1667" ry="4.1667" style="stroke:#2FA4E7;stroke-width:1.0416666666666667;" width="45.8333" x="318.75" y="1115.6413"/><text fill="#FFFFFF" font-family="Verdana" font-size="12.5" lengthAdjust="spacing" textLength="20.8333" x="331.25" y="1140.7084">API</text><rect fill="url(#g1qf5pu69prg9k0)" height="40.1917" rx="4.1667" ry="4.1667" style="stroke:#2FA4E7;stroke-width:1.0416666666666667;" width="85.4167" x="468.75" y="10.4167"/><text fill="#FFFFFF" font-family="Verdana" font-size="12.5" lengthAdjust="spacing" textLength="60.4167" x="481.25" y="35.4838">Controller</text><rect fill="url(#g1qf5pu69prg9k0)" height="40.1917" rx="4.1667" ry="4.1667" style="stroke:#2FA4E7;stroke-width:1.0416666666666667;" width="85.4167" x="468.75" y="1115.6413"/><text fill="#FFFFFF" font-family="Verdana" font-size="12.5" lengthAdjust="spacing" textLength="60.4167" x="481.25" y="1140.7084">Controller</text><rect fill="url(#g1qf5pu69prg9k0)" height="40.1917" rx="4.1667" ry="4.1667" style="stroke:#2FA4E7;stroke-width:1.0416666666666667;" width="69.7917" x="804.6875" y="10.4167"/><text fill="#FFFFFF" font-family="Verdana" font-size="12.5" lengthAdjust="spacing" textLength="44.7917" x="817.1875" y="35.4838">Service</text><rect fill="url(#g1qf5pu69prg9k0)" height="40.1917" rx="4.1667" ry="4.1667" style="stroke:#2FA4E7;stroke-width:1.0416666666666667;" width="69.7917" x="804.6875" y="1115.6413"/><text fill="#FFFFFF" font-family="Verdana" font-size="12.5" lengthAdjust="spacing" textLength="44.7917" x="817.1875" y="1140.7084">Service</text><rect fill="url(#g1qf5pu69prg9k0)" height="40.1917" rx="4.1667" ry="4.1667" style="stroke:#2FA4E7;stroke-width:1.0416666666666667;" width="89.5833" x="1051.0417" y="10.4167"/><text fill="#FFFFFF" font-family="Verdana" font-size="12.5" lengthAdjust="spacing" textLength="64.5833" x="1063.5417" y="35.4838">Repository</text><rect fill="url(#g1qf5pu69prg9k0)" height="40.1917" rx="4.1667" ry="4.1667" style="stroke:#2FA4E7;stroke-width:1.0416666666666667;" width="89.5833" x="1051.0417" y="1115.6413"/><text fill="#FFFFFF" font-family="Verdana" font-size="12.5" lengthAdjust="spacing" textLength="64.5833" x="1063.5417" y="1140.7084">Repository</text><rect fill="url(#g1qf5pu69prg9k0)" height="40.1917" rx="4.1667" ry="4.1667" style="stroke:#2FA4E7;stroke-width:1.0416666666666667;" width="53.125" x="1234.375" y="10.4167"/><text fill="#FFFFFF" font-family="Verdana" font-size="12.5" lengthAdjust="spacing" textLength="28.125" x="1246.875" y="35.4838">User</text><rect fill="url(#g1qf5pu69prg9k0)" height="40.1917" rx="4.1667" ry="4.1667" style="stroke:#2FA4E7;stroke-width:1.0416666666666667;" width="53.125" x="1234.375" y="1115.6413"/><text fill="#FFFFFF" font-family="Verdana" font-size="12.5" lengthAdjust="spacing" textLength="28.125" x="1246.875" y="1140.7084">User</text><rect fill="url(#g1qf5pu69prg9k0)" height="40.1917" rx="4.1667" ry="4.1667" style="stroke:#2FA4E7;stroke-width:1.0416666666666667;" width="69.7917" x="1441.6667" y="10.4167"/><text fill="#FFFFFF" font-family="Verdana" font-size="12.5" lengthAdjust="spacing" textLength="44.7917" x="1454.1667" y="35.4838">Mapper</text><rect fill="url(#g1qf5pu69prg9k0)" height="40.1917" rx="4.1667" ry="4.1667" style="stroke:#2FA4E7;stroke-width:1.0416666666666667;" width="69.7917" x="1441.6667" y="1115.6413"/><text fill="#FFFFFF" font-family="Verdana" font-size="12.5" lengthAdjust="spacing" textLength="44.7917" x="1454.1667" y="1140.7084">Mapper</text><rect fill="url(#g1qf5pu69prg9k0)" height="40.1917" rx="4.1667" ry="4.1667" style="stroke:#2FA4E7;stroke-width:1.0416666666666667;" width="75" x="1605.2083" y="10.4167"/><text fill="#FFFFFF" font-family="Verdana" font-size="12.5" lengthAdjust="spacing" textLength="50" x="1617.7083" y="35.4838">UserDto</text><rect fill="url(#g1qf5pu69prg9k0)" height="40.1917" rx="4.1667" ry="4.1667" style="stroke:#2FA4E7;stroke-width:1.0416666666666667;" width="75" x="1605.2083" y="1115.6413"/><text fill="#FFFFFF" font-family="Verdana" font-size="12.5" lengthAdjust="spacing" textLength="50" x="1617.7083" y="1140.7084">UserDto</text><rect fill="url(#g1qf5pu69prg9k0)" height="40.1917" rx="4.1667" ry="4.1667" style="stroke:#2FA4E7;stroke-width:1.0416666666666667;" width="75" x="1773.9583" y="10.4167"/><text fill="#FFFFFF" font-family="Verdana" font-size="12.5" lengthAdjust="spacing" textLength="50" x="1786.4583" y="35.4838">UserDto</text><rect fill="url(#g1qf5pu69prg9k0)" height="40.1917" rx="4.1667" ry="4.1667" style="stroke:#2FA4E7;stroke-width:1.0416666666666667;" width="75" x="1773.9583" y="1115.6413"/><text fill="#FFFFFF" font-family="Verdana" font-size="12.5" lengthAdjust="spacing" textLength="50" x="1786.4583" y="1140.7084">UserDto</text><rect fill="#EDF0F2" height="93.925" style="stroke:#BABDBF;stroke-width:1.0416666666666667;" width="10.4167" x="506.25" y="134.1166"/><rect fill="#EDF0F2" height="40.1917" style="stroke:#BABDBF;stroke-width:1.0416666666666667;" width="10.4167" x="506.25" y="1017.5496"/><rect fill="#EDF0F2" height="789.5081" style="stroke:#BABDBF;stroke-width:1.0416666666666667;" width="10.4167" x="834.375" y="228.0416"/><rect fill="#EDF0F2" height="31.25" style="stroke:#BABDBF;stroke-width:1.0416666666666667;" width="10.4167" x="1090.625" y="268.2332"/><rect fill="#EDF0F2" height="31.25" style="stroke:#BABDBF;stroke-width:1.0416666666666667;" width="10.4167" x="1090.625" y="860.083"/><rect fill="#EDF0F2" height="301.1332" style="stroke:#BABDBF;stroke-width:1.0416666666666667;" width="10.4167" x="1255.7292" y="518.7581"/><rect fill="#EDF0F2" height="45.8333" style="stroke:#BABDBF;stroke-width:1.0416666666666667;" width="10.4167" x="1471.3542" y="931.5247"/><rect fill="#EDF0F2" height="31.25" style="stroke:#BABDBF;stroke-width:1.0416666666666667;" width="10.4167" x="1806.25" y="946.108"/><polygon fill="#2FA4E7" points="329.1667,89.7583,339.5833,93.925,329.1667,98.0916,333.3333,93.925" style="stroke:#2FA4E7;stroke-width:1.0416666666666667;"/><line style="stroke:#2FA4E7;stroke-width:3.125;stroke-dasharray:2.0,2.0;" x1="10.4167" x2="335.4167" y1="93.925" y2="93.925"/><text fill="#343A40" font-family="Verdana" font-size="12.5" lengthAdjust="spacing" textLength="282.2917" x="22.9167" y="84.0088">PUT /api/user/activate/:email/:activationCode</text><polygon fill="#2FA4E7" points="493.75,129.95,504.1667,134.1166,493.75,138.2833,497.9167,134.1166" style="stroke:#2FA4E7;stroke-width:1.0416666666666667;"/><line style="stroke:#2FA4E7;stroke-width:3.125;" x1="341.6667" x2="500" y1="134.1166" y2="134.1166"/><text fill="#343A40" font-family="Verdana" font-size="12.5" lengthAdjust="spacing" textLength="134.375" x="354.1667" y="124.2004">activateUser(request)</text><line style="stroke:#2FA4E7;stroke-width:3.125;" x1="516.6667" x2="560.4167" y1="174.3083" y2="174.3083"/><line style="stroke:#2FA4E7;stroke-width:3.125;" x1="560.4167" x2="560.4167" y1="174.3083" y2="187.8499"/><line style="stroke:#2FA4E7;stroke-width:3.125;" x1="517.7083" x2="560.4167" y1="187.8499" y2="187.8499"/><polygon fill="#2FA4E7" points="528.125,183.6833,517.7083,187.8499,528.125,192.0166,523.9583,187.8499" style="stroke:#2FA4E7;stroke-width:1.0416666666666667;"/><text fill="#343A40" font-family="Verdana" font-size="12.5" lengthAdjust="spacing" textLength="292.7083" x="529.1667" y="164.3921">{activationCode, userEmail} = request.params</text><polygon fill="#2FA4E7" points="821.875,223.8749,832.2917,228.0416,821.875,232.2083,826.0417,228.0416" style="stroke:#2FA4E7;stroke-width:1.0416666666666667;"/><line style="stroke:#2FA4E7;stroke-width:3.125;" x1="511.4583" x2="828.125" y1="228.0416" y2="228.0416"/><text fill="#343A40" font-family="Verdana" font-size="12.5" lengthAdjust="spacing" textLength="247.9167" x="523.9583" y="218.1254">activateUser(userEmail, activationCode)</text><polygon fill="#2FA4E7" points="1078.125,264.0666,1088.5417,268.2332,1078.125,272.3999,1082.2917,268.2332" style="stroke:#2FA4E7;stroke-width:1.0416666666666667;"/><line style="stroke:#2FA4E7;stroke-width:3.125;" x1="844.7917" x2="1084.375" y1="268.2332" y2="268.2332"/><text fill="#343A40" font-family="Verdana" font-size="12.5" lengthAdjust="spacing" textLength="215.625" x="857.2917" y="258.3171">user = getUserByEmail(userEmail)</text><path d="M17.7083,315.1082 L88.5417,315.1082 L88.5417,332.3832 L78.125,342.7999 L13.5417,342.7999 L13.5417,319.2749 A4.1667,4.1667 0 0 1 17.7083,315.1082 " fill="#E9ECEF" style="stroke:#868E96;stroke-width:1.0416666666666667;"/><rect fill="none" height="164.4999" rx="4.1667" ry="4.1667" style="stroke:#59B6EC;stroke-width:1.0416666666666667;" width="913.0208" x="13.5417" y="315.1082"/><text fill="#033C73" font-family="Verdana" font-size="12.5" font-weight="bold" lengthAdjust="spacing" textLength="17.7083" x="34.375" y="333.9254">alt</text><text fill="#343A40" font-family="Verdana" font-size="12.5" font-weight="bold" lengthAdjust="spacing" textLength="128.125" x="109.375" y="334.967">[user dont't exist]</text><polygon fill="#2FA4E7" points="353.125,380.4749,342.7083,384.6415,353.125,388.8082,348.9583,384.6415" style="stroke:#2FA4E7;stroke-width:1.0416666666666667;"/><line style="stroke:#2FA4E7;stroke-width:3.125;stroke-dasharray:2.0,2.0;" x1="346.875" x2="833.3333" y1="384.6415" y2="384.6415"/><text fill="#343A40" font-family="Verdana" font-size="12.5" lengthAdjust="spacing" textLength="160.4167" x="364.5833" y="374.7253">throw UserNotFoundError</text><path d="M516.6667,402.3499 L516.6667,429.4332 A4.1667,4.1667 0 0 0 520.8333,433.5999 L665.625,433.5999 A4.1667,4.1667 0 0 0 669.7917,429.4332 L669.7917,408.5999 L659.375,398.1832 L520.8333,398.1832 A4.1667,4.1667 0 0 0 516.6667,402.3499 " fill="url(#g1qf5pu69prg9k1)" style="stroke:#033C73;stroke-width:1.0416666666666667;"/><path d="M659.375,398.1832 L659.375,406.5165 A2.0833,2.0833 0 0 0 661.4583,408.5999 L669.7917,408.5999 L659.375,398.1832 " fill="url(#g1qf5pu69prg9k1)" style="stroke:#033C73;stroke-width:1.0416666666666667;"/><text fill="#FFFFFF" font-family="Verdana" font-size="12.5" lengthAdjust="spacing" textLength="120.8333" x="528.125" y="421.167">Finish the workflow</text><polygon fill="#2FA4E7" points="21.875,467.1082,11.4583,471.2748,21.875,475.4415,17.7083,471.2748" style="stroke:#2FA4E7;stroke-width:1.0416666666666667;"/><line style="stroke:#2FA4E7;stroke-width:3.125;stroke-dasharray:2.0,2.0;" x1="15.625" x2="340.625" y1="471.2748" y2="471.2748"/><text fill="#343A40" font-family="Verdana" font-size="12.5" lengthAdjust="spacing" textLength="148.9583" x="33.3333" y="461.3586">404 UserNotFoundError</text><polygon fill="#2FA4E7" points="1243.2292,514.5915,1253.6458,518.7581,1243.2292,522.9248,1247.3958,518.7581" style="stroke:#2FA4E7;stroke-width:1.0416666666666667;"/><line style="stroke:#2FA4E7;stroke-width:3.125;" x1="844.7917" x2="1249.4792" y1="518.7581" y2="518.7581"/><text fill="#343A40" font-family="Verdana" font-size="12.5" lengthAdjust="spacing" textLength="181.25" x="857.2917" y="508.842">user.activate(activationCode)</text><path d="M17.7083,534.3831 L88.5417,534.3831 L88.5417,551.6581 L78.125,562.0748 L13.5417,562.0748 L13.5417,538.5498 A4.1667,4.1667 0 0 1 17.7083,534.3831 " fill="#E9ECEF" style="stroke:#868E96;stroke-width:1.0416666666666667;"/><rect fill="none" height="164.4999" rx="4.1667" ry="4.1667" style="stroke:#59B6EC;stroke-width:1.0416666666666667;" width="1326.0417" x="13.5417" y="534.3831"/><text fill="#033C73" font-family="Verdana" font-size="12.5" font-weight="bold" lengthAdjust="spacing" textLength="17.7083" x="34.375" y="553.2003">alt</text><text fill="#343A40" font-family="Verdana" font-size="12.5" font-weight="bold" lengthAdjust="spacing" textLength="207.2917" x="109.375" y="554.2419">[validation code don't match]</text><polygon fill="#2FA4E7" points="353.125,599.7498,342.7083,603.9164,353.125,608.0831,348.9583,603.9164" style="stroke:#2FA4E7;stroke-width:1.0416666666666667;"/><line style="stroke:#2FA4E7;stroke-width:3.125;stroke-dasharray:2.0,2.0;" x1="346.875" x2="1254.6875" y1="603.9164" y2="603.9164"/><text fill="#343A40" font-family="Verdana" font-size="12.5" lengthAdjust="spacing" textLength="300" x="364.5833" y="594.0002">throw BadRequestError('Invalid activation code')</text><path d="M516.6667,621.6248 L516.6667,648.7081 A4.1667,4.1667 0 0 0 520.8333,652.8748 L665.625,652.8748 A4.1667,4.1667 0 0 0 669.7917,648.7081 L669.7917,627.8748 L659.375,617.4581 L520.8333,617.4581 A4.1667,4.1667 0 0 0 516.6667,621.6248 " fill="url(#g1qf5pu69prg9k1)" style="stroke:#033C73;stroke-width:1.0416666666666667;"/><path d="M659.375,617.4581 L659.375,625.7914 A2.0833,2.0833 0 0 0 661.4583,627.8748 L669.7917,627.8748 L659.375,617.4581 " fill="url(#g1qf5pu69prg9k1)" style="stroke:#033C73;stroke-width:1.0416666666666667;"/><text fill="#FFFFFF" font-family="Verdana" font-size="12.5" lengthAdjust="spacing" textLength="120.8333" x="528.125" y="640.4419">Finish the workflow</text><polygon fill="#2FA4E7" points="21.875,686.3831,11.4583,690.5497,21.875,694.7164,17.7083,690.5497" style="stroke:#2FA4E7;stroke-width:1.0416666666666667;"/><line style="stroke:#2FA4E7;stroke-width:3.125;stroke-dasharray:2.0,2.0;" x1="15.625" x2="340.625" y1="690.5497" y2="690.5497"/><text fill="#343A40" font-family="Verdana" font-size="12.5" lengthAdjust="spacing" textLength="288.5417" x="33.3333" y="680.6335">400 BadRequestError('Invalid activation code')</text><line style="stroke:#2FA4E7;stroke-width:3.125;" x1="1266.1458" x2="1309.8958" y1="738.033" y2="738.033"/><line style="stroke:#2FA4E7;stroke-width:3.125;" x1="1309.8958" x2="1309.8958" y1="738.033" y2="751.5747"/><line style="stroke:#2FA4E7;stroke-width:3.125;" x1="1267.1875" x2="1309.8958" y1="751.5747" y2="751.5747"/><polygon fill="#2FA4E7" points="1277.6042,747.408,1267.1875,751.5747,1277.6042,755.7414,1273.4375,751.5747" style="stroke:#2FA4E7;stroke-width:1.0416666666666667;"/><text fill="#343A40" font-family="Verdana" font-size="12.5" lengthAdjust="spacing" textLength="100" x="1278.6458" y="728.1169">_isActive = true</text><line style="stroke:#2FA4E7;stroke-width:3.125;" x1="1266.1458" x2="1309.8958" y1="791.7664" y2="791.7664"/><line style="stroke:#2FA4E7;stroke-width:3.125;" x1="1309.8958" x2="1309.8958" y1="791.7664" y2="805.308"/><line style="stroke:#2FA4E7;stroke-width:3.125;" x1="1267.1875" x2="1309.8958" y1="805.308" y2="805.308"/><polygon fill="#2FA4E7" points="1277.6042,801.1414,1267.1875,805.308,1277.6042,809.4747,1273.4375,805.308" style="stroke:#2FA4E7;stroke-width:1.0416666666666667;"/><text fill="#343A40" font-family="Verdana" font-size="12.5" lengthAdjust="spacing" textLength="180.2083" x="1278.6458" y="781.8502">_activationCode = 'activated'</text><polygon fill="#2FA4E7" points="856.25,815.7247,845.8333,819.8914,856.25,824.058,852.0833,819.8914" style="stroke:#2FA4E7;stroke-width:1.0416666666666667;"/><line style="stroke:#2FA4E7;stroke-width:3.125;stroke-dasharray:2.0,2.0;" x1="850" x2="1259.8958" y1="819.8914" y2="819.8914"/><polygon fill="#2FA4E7" points="1078.125,855.9163,1088.5417,860.083,1078.125,864.2497,1082.2917,860.083" style="stroke:#2FA4E7;stroke-width:1.0416666666666667;"/><line style="stroke:#2FA4E7;stroke-width:3.125;" x1="844.7917" x2="1084.375" y1="860.083" y2="860.083"/><text fill="#343A40" font-family="Verdana" font-size="12.5" lengthAdjust="spacing" textLength="108.3333" x="857.2917" y="850.1668">updateUser(user)</text><polygon fill="#2FA4E7" points="1458.8542,927.358,1469.2708,931.5247,1458.8542,935.6913,1463.0208,931.5247" style="stroke:#2FA4E7;stroke-width:1.0416666666666667;"/><line style="stroke:#2FA4E7;stroke-width:3.125;" x1="844.7917" x2="1465.1042" y1="931.5247" y2="931.5247"/><text fill="#343A40" font-family="Verdana" font-size="12.5" lengthAdjust="spacing" textLength="244.7917" x="857.2917" y="921.6085">userDto = UserMapper.toUserDto(user)</text><polygon fill="#2FA4E7" points="1793.75,941.9413,1804.1667,946.108,1793.75,950.2747,1797.9167,946.108" style="stroke:#2FA4E7;stroke-width:1.0416666666666667;"/><line style="stroke:#2FA4E7;stroke-width:3.125;" x1="1481.7708" x2="1800" y1="946.108" y2="946.108"/><polygon fill="#2FA4E7" points="528.125,1013.383,517.7083,1017.5496,528.125,1021.7163,523.9583,1017.5496" style="stroke:#2FA4E7;stroke-width:1.0416666666666667;"/><line style="stroke:#2FA4E7;stroke-width:3.125;stroke-dasharray:2.0,2.0;" x1="521.875" x2="838.5417" y1="1017.5496" y2="1017.5496"/><text fill="#343A40" font-family="Verdana" font-size="12.5" lengthAdjust="spacing" textLength="19.7917" x="539.5833" y="1007.6335">dto</text><polygon fill="#2FA4E7" points="353.125,1053.5746,342.7083,1057.7413,353.125,1061.908,348.9583,1057.7413" style="stroke:#2FA4E7;stroke-width:1.0416666666666667;"/><line style="stroke:#2FA4E7;stroke-width:3.125;stroke-dasharray:2.0,2.0;" x1="346.875" x2="510.4167" y1="1057.7413" y2="1057.7413"/><text fill="#343A40" font-family="Verdana" font-size="12.5" lengthAdjust="spacing" textLength="84.375" x="364.5833" y="1047.8251">activatedUser</text><polygon fill="#2FA4E7" points="21.875,1093.7663,11.4583,1097.9329,21.875,1102.0996,17.7083,1097.9329" style="stroke:#2FA4E7;stroke-width:1.0416666666666667;"/><line style="stroke:#2FA4E7;stroke-width:3.125;stroke-dasharray:2.0,2.0;" x1="15.625" x2="340.625" y1="1097.9329" y2="1097.9329"/><text fill="#343A40" font-family="Verdana" font-size="12.5" lengthAdjust="spacing" textLength="113.5417" x="33.3333" y="1088.0168">200 activatedUser</text><!--SRC=[hLJ1Rjim3BtxAxXUd01DN0mz6Tk0Dck17ZOKtNeU18kjXJcI9zF9Yc7_FecINCijC0nO3f4bFZwIZvJUK8jxX0RjsA7GHIyigKRrGXESNDpUd80OmAsvOMSqMTDrQDc-8zlbW2ze3wf1jiRl7727lHaK6Vl46B_D0VT39FSVkUcJwFje39ylFJ-IORjRYsAp-U1BgE7s_YjKebVLw22LQ4WT165LurwehghZWJ9wPoGMpWMSfo-kXWJsv2kBFqOSQ5saqw20_tls-9NJdO8FUkKZ_ORt42csBdEn7oRNgDKYtkHv2Zdfkf2Ovp3jakfnzUHUv9hJS0ay8ddkooScVWunAugRCWl0Uz5He91k1ae2_Aa6Ai3zfaX9RcgjENB_FXkwDgEMLzOQos1j7A5LZos1UGYfG_nTAws6rdaZ78tz_j2P8zjGItRZpRlD9WGvFpj_9OJ3pYltW53vDbMpMYevbSa3ntKUHASaGw1n65-ogtWlg6av2OzSbdifv5teBMUoAcyqqymwnsJb-d_hSFOliRr08VsapZSrN7WOkk4WE-BIdElbG6LIJ9R5f4GQkzdO13rVpc4lv_FzjxcR4uHR7nhgRhZBnTE4qosP-00iQUDR4PPKc7yWiapzmIBvnL7acOzxkF4onoKfNdiaqinC4h98oyiScmirl7NTpR5_0000]--></g></svg>