<?xml version="1.0" encoding="us-ascii" standalone="no"?><svg xmlns="http://www.w3.org/2000/svg" xmlns:xlink="http://www.w3.org/1999/xlink" contentStyleType="text/css" height="688.5417px" preserveAspectRatio="none" style="width:880px;height:688px;" version="1.1" viewBox="0 0 880 688" width="880.2083px" zoomAndPan="magnify"><defs><linearGradient id="gdthgm4xnox6b0" x1="50%" x2="50%" y1="0%" y2="100%"><stop offset="0%" stop-color="#59B6EC"/><stop offset="100%" stop-color="#2FA4E7"/></linearGradient><linearGradient id="gdthgm4xnox6b1" x1="50%" x2="50%" y1="0%" y2="100%"><stop offset="0%" stop-color="#35638F"/><stop offset="100%" stop-color="#033C73"/></linearGradient></defs><g><rect fill="#EDF0F2" height="445.0582" style="stroke:#BABDBF;stroke-width:1.0416666666666667;" width="10.4167" x="356.25" y="134.1166"/><rect fill="#EDF0F2" height="336.5499" style="stroke:#BABDBF;stroke-width:1.0416666666666667;" width="10.4167" x="559.375" y="228.0416"/><rect fill="#EDF0F2" height="31.25" style="stroke:#BABDBF;stroke-width:1.0416666666666667;" width="10.4167" x="818.75" y="268.2332"/><rect fill="#EDF0F2" height="31.25" style="stroke:#BABDBF;stroke-width:1.0416666666666667;" width="10.4167" x="818.75" y="518.7581"/><rect fill="none" height="164.4999" rx="4.1667" ry="4.1667" style="stroke:#59B6EC;stroke-width:1.0416666666666667;" width="638.0208" x="13.5417" y="315.1082"/><line style="stroke:#BABDBF;stroke-width:1.0416666666666667;stroke-dasharray:5.0,5.0;" x1="202.0833" x2="202.0833" y1="51.65" y2="638.1165"/><line style="stroke:#BABDBF;stroke-width:1.0416666666666667;stroke-dasharray:5.0,5.0;" x1="361.4583" x2="361.4583" y1="51.65" y2="638.1165"/><line style="stroke:#BABDBF;stroke-width:1.0416666666666667;stroke-dasharray:5.0,5.0;" x1="564.0625" x2="564.0625" y1="51.65" y2="638.1165"/><line style="stroke:#BABDBF;stroke-width:1.0416666666666667;stroke-dasharray:5.0,5.0;" x1="823.9583" x2="823.9583" y1="51.65" y2="638.1165"/><rect fill="url(#gdthgm4xnox6b0)" height="40.1917" rx="4.1667" ry="4.1667" style="stroke:#2FA4E7;stroke-width:1.0416666666666667;" width="45.8333" x="179.1667" y="10.4167"/><text fill="#FFFFFF" font-family="Verdana" font-size="12.5" lengthAdjust="spacing" textLength="20.8333" x="191.6667" y="35.4838">API</text><rect fill="url(#gdthgm4xnox6b0)" height="40.1917" rx="4.1667" ry="4.1667" style="stroke:#2FA4E7;stroke-width:1.0416666666666667;" width="45.8333" x="179.1667" y="637.0748"/><text fill="#FFFFFF" font-family="Verdana" font-size="12.5" lengthAdjust="spacing" textLength="20.8333" x="191.6667" y="662.1419">API</text><rect fill="url(#gdthgm4xnox6b0)" height="40.1917" rx="4.1667" ry="4.1667" style="stroke:#2FA4E7;stroke-width:1.0416666666666667;" width="85.4167" x="318.75" y="10.4167"/><text fill="#FFFFFF" font-family="Verdana" font-size="12.5" lengthAdjust="spacing" textLength="60.4167" x="331.25" y="35.4838">Controller</text><rect fill="url(#gdthgm4xnox6b0)" height="40.1917" rx="4.1667" ry="4.1667" style="stroke:#2FA4E7;stroke-width:1.0416666666666667;" width="85.4167" x="318.75" y="637.0748"/><text fill="#FFFFFF" font-family="Verdana" font-size="12.5" lengthAdjust="spacing" textLength="60.4167" x="331.25" y="662.1419">Controller</text><rect fill="url(#gdthgm4xnox6b0)" height="40.1917" rx="4.1667" ry="4.1667" style="stroke:#2FA4E7;stroke-width:1.0416666666666667;" width="69.7917" x="529.6875" y="10.4167"/><text fill="#FFFFFF" font-family="Verdana" font-size="12.5" lengthAdjust="spacing" textLength="44.7917" x="542.1875" y="35.4838">Service</text><rect fill="url(#gdthgm4xnox6b0)" height="40.1917" rx="4.1667" ry="4.1667" style="stroke:#2FA4E7;stroke-width:1.0416666666666667;" width="69.7917" x="529.6875" y="637.0748"/><text fill="#FFFFFF" font-family="Verdana" font-size="12.5" lengthAdjust="spacing" textLength="44.7917" x="542.1875" y="662.1419">Service</text><rect fill="url(#gdthgm4xnox6b0)" height="40.1917" rx="4.1667" ry="4.1667" style="stroke:#2FA4E7;stroke-width:1.0416666666666667;" width="89.5833" x="779.1667" y="10.4167"/><text fill="#FFFFFF" font-family="Verdana" font-size="12.5" lengthAdjust="spacing" textLength="64.5833" x="791.6667" y="35.4838">Repository</text><rect fill="url(#gdthgm4xnox6b0)" height="40.1917" rx="4.1667" ry="4.1667" style="stroke:#2FA4E7;stroke-width:1.0416666666666667;" width="89.5833" x="779.1667" y="637.0748"/><text fill="#FFFFFF" font-family="Verdana" font-size="12.5" lengthAdjust="spacing" textLength="64.5833" x="791.6667" y="662.1419">Repository</text><rect fill="#EDF0F2" height="445.0582" style="stroke:#BABDBF;stroke-width:1.0416666666666667;" width="10.4167" x="356.25" y="134.1166"/><rect fill="#EDF0F2" height="336.5499" style="stroke:#BABDBF;stroke-width:1.0416666666666667;" width="10.4167" x="559.375" y="228.0416"/><rect fill="#EDF0F2" height="31.25" style="stroke:#BABDBF;stroke-width:1.0416666666666667;" width="10.4167" x="818.75" y="268.2332"/><rect fill="#EDF0F2" height="31.25" style="stroke:#BABDBF;stroke-width:1.0416666666666667;" width="10.4167" x="818.75" y="518.7581"/><polygon fill="#2FA4E7" points="189.5833,89.7583,200,93.925,189.5833,98.0916,193.75,93.925" style="stroke:#2FA4E7;stroke-width:1.0416666666666667;"/><line style="stroke:#2FA4E7;stroke-width:3.125;stroke-dasharray:2.0,2.0;" x1="10.4167" x2="195.8333" y1="93.925" y2="93.925"/><text fill="#343A40" font-family="Verdana" font-size="12.5" lengthAdjust="spacing" textLength="76.0417" x="22.9167" y="84.0088">DELETE /api</text><polygon fill="#2FA4E7" points="343.75,129.95,354.1667,134.1166,343.75,138.2833,347.9167,134.1166" style="stroke:#2FA4E7;stroke-width:1.0416666666666667;"/><line style="stroke:#2FA4E7;stroke-width:3.125;" x1="202.0833" x2="350" y1="134.1166" y2="134.1166"/><text fill="#343A40" font-family="Verdana" font-size="12.5" lengthAdjust="spacing" textLength="122.9167" x="214.5833" y="124.2004">deleteUser(request)</text><line style="stroke:#2FA4E7;stroke-width:3.125;" x1="366.6667" x2="410.4167" y1="174.3083" y2="174.3083"/><line style="stroke:#2FA4E7;stroke-width:3.125;" x1="410.4167" x2="410.4167" y1="174.3083" y2="187.8499"/><line style="stroke:#2FA4E7;stroke-width:3.125;" x1="367.7083" x2="410.4167" y1="187.8499" y2="187.8499"/><polygon fill="#2FA4E7" points="378.125,183.6833,367.7083,187.8499,378.125,192.0166,373.9583,187.8499" style="stroke:#2FA4E7;stroke-width:1.0416666666666667;"/><text fill="#343A40" font-family="Verdana" font-size="12.5" lengthAdjust="spacing" textLength="143.75" x="379.1667" y="164.3921">user = req.currentUser</text><polygon fill="#2FA4E7" points="546.875,223.8749,557.2917,228.0416,546.875,232.2083,551.0417,228.0416" style="stroke:#2FA4E7;stroke-width:1.0416666666666667;"/><line style="stroke:#2FA4E7;stroke-width:3.125;" x1="366.6667" x2="553.125" y1="228.0416" y2="228.0416"/><text fill="#343A40" font-family="Verdana" font-size="12.5" lengthAdjust="spacing" textLength="162.5" x="379.1667" y="218.1254">deleteUser(user: UserDto)</text><polygon fill="#2FA4E7" points="806.25,264.0666,816.6667,268.2332,806.25,272.3999,810.4167,268.2332" style="stroke:#2FA4E7;stroke-width:1.0416666666666667;"/><line style="stroke:#2FA4E7;stroke-width:3.125;" x1="569.7917" x2="812.5" y1="268.2332" y2="268.2332"/><text fill="#343A40" font-family="Verdana" font-size="12.5" lengthAdjust="spacing" textLength="218.75" x="582.2917" y="258.3171">user = getUserByEmail(user.email)</text><path d="M17.7083,315.1082 L88.5417,315.1082 L88.5417,332.3832 L78.125,342.7999 L13.5417,342.7999 L13.5417,319.2749 A4.1667,4.1667 0 0 1 17.7083,315.1082 " fill="#E9ECEF" style="stroke:#868E96;stroke-width:1.0416666666666667;"/><rect fill="none" height="164.4999" rx="4.1667" ry="4.1667" style="stroke:#59B6EC;stroke-width:1.0416666666666667;" width="638.0208" x="13.5417" y="315.1082"/><text fill="#033C73" font-family="Verdana" font-size="12.5" font-weight="bold" lengthAdjust="spacing" textLength="17.7083" x="34.375" y="333.9254">alt</text><text fill="#343A40" font-family="Verdana" font-size="12.5" font-weight="bold" lengthAdjust="spacing" textLength="117.7083" x="109.375" y="334.967">[user not found]</text><polygon fill="#2FA4E7" points="213.5417,380.4749,203.125,384.6415,213.5417,388.8082,209.375,384.6415" style="stroke:#2FA4E7;stroke-width:1.0416666666666667;"/><line style="stroke:#2FA4E7;stroke-width:3.125;stroke-dasharray:2.0,2.0;" x1="207.2917" x2="558.3333" y1="384.6415" y2="384.6415"/><text fill="#343A40" font-family="Verdana" font-size="12.5" lengthAdjust="spacing" textLength="160.4167" x="225" y="374.7253">throw UserNotFoundError</text><polygon fill="#2FA4E7" points="21.875,420.6665,11.4583,424.8332,21.875,428.9998,17.7083,424.8332" style="stroke:#2FA4E7;stroke-width:1.0416666666666667;"/><line style="stroke:#2FA4E7;stroke-width:3.125;stroke-dasharray:2.0,2.0;" x1="15.625" x2="201.0417" y1="424.8332" y2="424.8332"/><text fill="#343A40" font-family="Verdana" font-size="12.5" lengthAdjust="spacing" textLength="148.9583" x="33.3333" y="414.917">404 UserNotFoundError</text><path d="M371.875,442.5415 L371.875,469.6248 A4.1667,4.1667 0 0 0 376.0417,473.7915 L520.8333,473.7915 A4.1667,4.1667 0 0 0 525,469.6248 L525,448.7915 L514.5833,438.3748 L376.0417,438.3748 A4.1667,4.1667 0 0 0 371.875,442.5415 " fill="url(#gdthgm4xnox6b1)" style="stroke:#033C73;stroke-width:1.0416666666666667;"/><path d="M514.5833,438.3748 L514.5833,446.7082 A2.0833,2.0833 0 0 0 516.6667,448.7915 L525,448.7915 L514.5833,438.3748 " fill="url(#gdthgm4xnox6b1)" style="stroke:#033C73;stroke-width:1.0416666666666667;"/><text fill="#FFFFFF" font-family="Verdana" font-size="12.5" lengthAdjust="spacing" textLength="120.8333" x="383.3333" y="461.3586">Finish the workflow</text><polygon fill="#2FA4E7" points="806.25,514.5915,816.6667,518.7581,806.25,522.9248,810.4167,518.7581" style="stroke:#2FA4E7;stroke-width:1.0416666666666667;"/><line style="stroke:#2FA4E7;stroke-width:3.125;" x1="569.7917" x2="812.5" y1="518.7581" y2="518.7581"/><text fill="#343A40" font-family="Verdana" font-size="12.5" lengthAdjust="spacing" textLength="126.0417" x="582.2917" y="508.842">deleteUser(user.uid)</text><polygon fill="#2FA4E7" points="378.125,560.4248,367.7083,564.5915,378.125,568.7581,373.9583,564.5915" style="stroke:#2FA4E7;stroke-width:1.0416666666666667;"/><line style="stroke:#2FA4E7;stroke-width:3.125;stroke-dasharray:2.0,2.0;" x1="371.875" x2="563.5417" y1="564.5915" y2="564.5915"/><polygon fill="#2FA4E7" points="213.5417,575.0081,203.125,579.1748,213.5417,583.3415,209.375,579.1748" style="stroke:#2FA4E7;stroke-width:1.0416666666666667;"/><line style="stroke:#2FA4E7;stroke-width:3.125;stroke-dasharray:2.0,2.0;" x1="207.2917" x2="360.4167" y1="579.1748" y2="579.1748"/><polygon fill="#2FA4E7" points="21.875,615.1998,11.4583,619.3665,21.875,623.5331,17.7083,619.3665" style="stroke:#2FA4E7;stroke-width:1.0416666666666667;"/><line style="stroke:#2FA4E7;stroke-width:3.125;stroke-dasharray:2.0,2.0;" x1="15.625" x2="201.0417" y1="619.3665" y2="619.3665"/><text fill="#343A40" font-family="Verdana" font-size="12.5" lengthAdjust="spacing" textLength="25" x="33.3333" y="609.4503">204</text><!--SRC=[XP7DJiCm3CVlUGgp4nmw9hHJ1KYmTH8IGeYF1uXQTut8akAwc_Rs96uxMX0YXyI9V_xx8sTSuGuXHsejQgTgJMnoKsl7CBjxVfY1RY2SKyVAEoPlBPBuLqns2hmYxKsEuktjAV22jMyCUpeA4wzAgIIvZSbIM6UFsLi6bxesAZn0U8z9KYZG8kDxWtHE-DbYmnTAvspsch6h8sxVV1j8k870plEM21t7s1FKrpRHZI4fH7FDVgG-zD6VCJoMVSgnHT6-FsOxRQp8p36Q8mtfiy3fNLlkD9ndA7th2WLXdV8CG-6A_44AU_AyYLn6v4dWkCIuJfAENYwMVx0X3GAPRSNWosveWyJ6EDDK8HF2mTD7QVr1VEWA2LF1-3s07yERjwRuh-TnSrB121W6tNrIr_tOBtpV9wHmjLWgzGK0]--></g></svg>